<svg width="18" height="18" viewBox="0 0 18 18" fill="none" xmlns="http://www.w3.org/2000/svg">
<path d="M9 16.7811L10.6525 16.3998L9.38131 15.1287L9 16.7811Z" fill="#70708C"/>
<path d="M8.67426 15.6924L8.94767 14.5077C8.94834 14.5048 8.94932 14.502 8.9501 14.4992C8.9514 14.4943 8.9527 14.4894 8.95425 14.4846C8.95579 14.4798 8.95734 14.4757 8.95899 14.4714C8.96065 14.467 8.96209 14.4631 8.96384 14.4591C8.96592 14.4543 8.9682 14.4496 8.97052 14.445C8.97225 14.4415 8.97404 14.4382 8.97583 14.4348C8.97854 14.4299 8.98142 14.4252 8.98438 14.4205C8.98627 14.4175 8.98817 14.4146 8.99018 14.4116C8.99341 14.4069 8.99682 14.4024 9.00034 14.3979C9.00248 14.3951 9.00463 14.3924 9.00688 14.3897C9.01039 14.3854 9.01436 14.3813 9.01823 14.3772C9.01981 14.3755 9.02122 14.3737 9.02284 14.3721L12.7074 10.6875C11.6788 8.57176 9.77669 7.3125 7.59419 7.3125C5.99381 7.3125 4.51528 7.99752 3.43095 9.24135C2.33893 10.4941 1.72359 12.2402 1.68945 14.1735C2.33506 14.499 4.98602 15.75 7.59419 15.75C7.95497 15.7494 8.31547 15.7302 8.67426 15.6924Z" fill="#70708C"/>
<path d="M9.61719 14.5706L13.9918 10.196L15.5825 11.7867L11.2079 16.1613L9.61719 14.5706Z" fill="#70708C"/>
<path d="M7.59375 6.75C9.14705 6.75 10.4062 5.4908 10.4062 3.9375C10.4062 2.3842 9.14705 1.125 7.59375 1.125C6.04045 1.125 4.78125 2.3842 4.78125 3.9375C4.78125 5.4908 6.04045 6.75 7.59375 6.75Z" fill="#70708C"/>
<path d="M16.3121 10.5934C16.3121 10.3709 16.2461 10.1534 16.1224 9.96841C15.9988 9.78343 15.8231 9.63925 15.6176 9.55412C15.412 9.46899 15.1858 9.44672 14.9676 9.49013C14.7494 9.53354 14.5489 9.64068 14.3916 9.798L15.9826 11.389C16.0874 11.2847 16.1705 11.1607 16.227 11.0242C16.2836 10.8876 16.3125 10.7412 16.3121 10.5934Z" fill="#70708C"/>
</svg>
