<svg width="40" height="40" viewBox="0 0 40 40" fill="none" xmlns="http://www.w3.org/2000/svg">
<rect width="40" height="40" rx="10" fill="#FFB700" fill-opacity="0.2"/>
<path d="M28.3571 13C27.9714 13 27.7143 13.2571 27.7143 13.6429V16.2143H18.65C18.3286 14.4143 16.7857 13 14.8571 13H12.9286C11.8357 13 11 13.8357 11 14.9286V16.8571V19.4286V19.4929C11 19.5571 11 19.6214 11.0643 19.6857C11.0643 19.75 11.1286 19.75 11.1286 19.8143C11.1286 19.8786 11.1929 19.8786 11.1929 19.8786C11.2571 19.9429 11.3214 20.0071 11.3857 20.0071L18.3286 22.9643L16.85 23.6071C16.4 23.0286 15.6929 22.6429 14.8571 22.6429C13.4429 22.6429 12.2857 23.8 12.2857 25.2143C12.2857 26.6286 13.4429 27.7857 14.8571 27.7857C16.2714 27.7857 17.4286 26.6286 17.4286 25.2143C17.4286 25.0857 17.4286 24.9571 17.3643 24.8286L20 23.7357L22.6357 24.8286C22.6357 24.9571 22.5714 25.0857 22.5714 25.2143C22.5714 26.6286 23.7286 27.7857 25.1429 27.7857C26.5571 27.7857 27.7143 26.6286 27.7143 25.2143C27.7143 23.8 26.5571 22.6429 25.1429 22.6429C24.3071 22.6429 23.6 23.0286 23.15 23.6714L21.6714 23.0286L28.6143 20.0714C28.6786 20.0071 28.7429 20.0071 28.8071 19.9429L28.8714 19.8786C28.8714 19.8143 28.9357 19.8143 28.9357 19.75C28.9357 19.6857 29 19.6214 29 19.5571V19.4929V16.9214V13.6429C29 13.2571 28.7429 13 28.3571 13ZM14.8571 26.5C14.15 26.5 13.5714 25.9214 13.5714 25.2143C13.5714 24.5071 14.15 23.9286 14.8571 23.9286C15.1143 23.9286 15.4357 24.0571 15.6286 24.1857L14.6 24.6357C14.2786 24.7643 14.15 25.15 14.2786 25.4714C14.3429 25.7286 14.6 25.8571 14.8571 25.8571C14.9214 25.8571 15.05 25.8571 15.1143 25.7929L16.1429 25.3429C16.0786 25.9857 15.5 26.5 14.8571 26.5ZM25.4 24.6357L24.3714 24.1857C24.5643 24.0571 24.8214 23.9286 25.1429 23.9286C25.85 23.9286 26.4286 24.5071 26.4286 25.2143C26.4286 25.9214 25.85 26.5 25.1429 26.5C24.5 26.5 23.9214 25.9857 23.8571 25.3429L24.8857 25.7929C24.95 25.8571 25.0786 25.8571 25.1429 25.8571C25.4 25.8571 25.6571 25.7286 25.7214 25.4714C25.85 25.15 25.7214 24.7643 25.4 24.6357ZM12.2857 14.9286C12.2857 14.5429 12.5429 14.2857 12.9286 14.2857H14.8571C16.0786 14.2857 17.0429 15.1214 17.3643 16.2143H12.2857V14.9286ZM20 22.3214L14.7929 20.0714H25.2714L20 22.3214Z" fill="#FFB700"/>
</svg>
