<svg width="15" height="15" viewBox="0 0 15 15" fill="none" xmlns="http://www.w3.org/2000/svg">
<path d="M10.1723 8.82442L8.08086 7.25587V4.06069C8.08086 3.73942 7.82117 3.47974 7.4999 3.47974C7.17863 3.47974 6.91895 3.73942 6.91895 4.06069V7.54638C6.91895 7.72936 7.00493 7.90192 7.15133 8.01114L9.4751 9.75398C9.57966 9.83241 9.70168 9.87018 9.82309 9.87018C10.0003 9.87018 10.1746 9.79058 10.2884 9.63721C10.4814 9.38098 10.4291 9.01673 10.1723 8.82442Z" fill="#70708C"/>
<path d="M7.5 0C3.36425 0 0 3.36425 0 7.5C0 11.6358 3.36425 15 7.5 15C11.6358 15 15 11.6358 15 7.5C15 3.36425 11.6358 0 7.5 0ZM7.5 13.8381C4.00562 13.8381 1.16188 10.9944 1.16188 7.5C1.16188 4.00562 4.00562 1.16188 7.5 1.16188C10.995 1.16188 13.8381 4.00562 13.8381 7.5C13.8381 10.9944 10.9944 13.8381 7.5 13.8381Z" fill="#70708C"/>
</svg>
