<svg width="18" height="18" viewBox="0 0 18 18" fill="none" xmlns="http://www.w3.org/2000/svg">
<path d="M15.08 0C14.0504 0 13.2158 0.83461 13.2158 1.86416V7.42641H16.4168C16.708 7.42641 16.9441 7.1903 16.9441 6.89906V1.86416C16.9441 0.83461 16.1095 0 15.08 0V0Z" fill="#70708C"/>
<path d="M6.37617 13.2539C6.37617 10.0683 8.96758 7.44458 12.1958 7.45337V2.0913C12.1958 1.28914 12.4978 0.556277 12.9938 0H3.69266C2.2393 0 1.05664 1.18266 1.05664 2.63602V17.4632C1.05664 17.9376 1.63697 18.1706 1.96508 17.8277L2.63973 17.1232L3.35235 17.8362C3.55801 18.0418 3.89199 18.0418 4.09801 17.8362L4.77336 17.1612L5.45539 17.8376C5.66106 18.0415 5.99258 18.0415 6.19825 17.8376L6.89118 17.1506L7.58446 17.8376C7.78977 18.0415 8.12094 18.0415 8.32661 17.8379L8.4609 17.705C7.15337 16.6119 6.37617 14.9954 6.37617 13.2539ZM5.32271 4.25391H6.36348V3.21314C6.36348 2.92191 6.59959 2.6858 6.89083 2.6858C7.18206 2.6858 7.41817 2.92191 7.41817 3.21314V4.25391H8.45894C8.75017 4.25391 8.98628 4.49002 8.98628 4.78125C8.98628 5.07248 8.75017 5.30859 8.45894 5.30859H7.41817V6.34936C7.41817 6.64059 7.18206 6.8767 6.89083 6.8767C6.59959 6.8767 6.36348 6.64059 6.36348 6.34936V5.30859H5.32271C5.03148 5.30859 4.79537 5.07248 4.79537 4.78125C4.79537 4.49002 5.03148 4.25391 5.32271 4.25391ZM3.72673 7.94707H7.27754C7.56878 7.94707 7.80489 8.18318 7.80489 8.47441C7.80489 8.76565 7.56878 9.00176 7.27754 9.00176H3.72673C3.43549 9.00176 3.19938 8.76565 3.19938 8.47441C3.19938 8.18318 3.43549 7.94707 3.72673 7.94707ZM5.4863 13.217H3.72321C3.43197 13.217 3.19587 12.9809 3.19587 12.6896C3.19587 12.3984 3.43197 12.1623 3.72321 12.1623H5.4863C5.77753 12.1623 6.01364 12.3984 6.01364 12.6896C6.01364 12.9809 5.77753 13.217 5.4863 13.217ZM5.83789 11.1111H3.72493C3.4337 11.1111 3.19759 10.875 3.19759 10.5838C3.19759 10.2926 3.4337 10.0564 3.72493 10.0564H5.83789C6.12913 10.0564 6.36524 10.2926 6.36524 10.5838C6.36524 10.875 6.12913 11.1111 5.83789 11.1111Z" fill="#70708C"/>
<path d="M12.1768 8.50781C9.55976 8.50781 7.43066 10.6369 7.43066 13.2539C7.43066 15.8709 9.55976 18 12.1768 18C14.7938 18 16.9228 15.8709 16.9228 13.2539C16.9228 10.6369 14.7938 8.50781 12.1768 8.50781ZM12.7058 15.2848V15.335C12.7058 15.6262 12.4696 15.8623 12.1784 15.8623C11.8872 15.8623 11.6511 15.6262 11.6511 15.335V15.3261C11.4149 15.2698 11.1957 15.1767 11.0219 15.063C10.7782 14.9035 10.7099 14.5767 10.8693 14.333C11.0288 14.0892 11.3556 14.0209 11.5993 14.1804C11.8151 14.3216 12.1709 14.3752 12.3458 14.2929C12.4591 14.2396 12.5468 14.1258 12.559 14.0162C12.5851 13.7827 12.2193 13.6524 12.0008 13.5662C11.6703 13.4356 11.2589 13.2731 11.0201 12.842C10.6797 12.2275 10.9778 11.4172 11.6511 11.1401V11.1136C11.6511 10.8224 11.8872 10.5862 12.1784 10.5862C12.4668 10.5862 12.7007 10.8178 12.7053 11.1051C12.8951 11.1644 13.07 11.2593 13.21 11.3884C13.4241 11.5859 13.4376 11.9195 13.2401 12.1336C13.0426 12.3477 12.709 12.3611 12.4949 12.1637C12.4082 12.0836 12.1408 12.0514 12.0246 12.1294C11.9465 12.1819 11.9159 12.2825 11.9427 12.3308C12.054 12.5319 12.6373 12.6008 13.0787 12.9448C13.9803 13.6474 13.6666 14.9163 12.7058 15.2848Z" fill="#70708C"/>
</svg>
