<svg width="60" height="60" viewBox="0 0 60 60" fill="none" xmlns="http://www.w3.org/2000/svg">
<rect width="60" height="60" rx="30" fill="#605BFF" fill-opacity="0.2"/>
<g clip-path="url(#clip0_1_3875)">
<path d="M39.8551 18H19.1475V36.8794C19.147 37.165 19.251 37.4284 19.4421 37.6224C19.6241 37.8069 19.87 37.9086 20.1344 37.9086H24.3331L24.3331 41.9839C24.3331 42.5032 24.722 42.9325 25.2244 43H39.855V18H39.8551ZM24.7019 24.5896C24.5888 24.5445 24.403 24.4952 24.1441 24.4417C23.8114 24.3719 23.5341 24.2969 23.3123 24.2168C23.0904 24.1367 22.8973 24.0053 22.733 23.8225C22.5687 23.6397 22.4865 23.3921 22.4865 23.0799C22.4865 22.7184 22.6169 22.4082 22.8778 22.1494C23.1387 21.8905 23.5135 21.7263 24.0024 21.6563V20.9847H24.8713V21.644C25.3643 21.6893 25.7813 21.8084 26.1223 22.0015L25.6847 23.0552C25.2616 22.8417 24.861 22.7348 24.4831 22.7348C24.1092 22.7348 23.9224 22.8252 23.9224 23.006C23.9224 23.0922 23.9778 23.1569 24.0887 23.2001C24.1996 23.2432 24.3824 23.2895 24.6372 23.3387C24.9657 23.4003 25.2431 23.4712 25.469 23.5513C25.6949 23.6314 25.8912 23.7619 26.0576 23.9426C26.2239 24.1234 26.3071 24.37 26.3071 24.6821C26.3071 25.0272 26.1828 25.3282 25.9343 25.5849C25.6856 25.8417 25.3313 26.0111 24.8713 26.0933V26.7773H24.0024V26.1242C23.6942 26.1077 23.3994 26.0604 23.1181 25.9824C22.8367 25.9044 22.6036 25.8079 22.4187 25.6928L22.8871 24.6329C23.0924 24.7521 23.3225 24.8476 23.5772 24.9194C23.8319 24.9914 24.0764 25.0273 24.3105 25.0273C24.5118 25.0273 24.6556 25.0079 24.7419 24.9688C24.8282 24.9298 24.8713 24.8712 24.8713 24.7931C24.8713 24.7027 24.8147 24.6349 24.7019 24.5896ZM36.667 36.0177H35.2022V34.7607L31.0309 38.932L26.3526 34.2537L24.4561 36.1501L23.4203 35.1144L26.3526 32.182L31.0309 36.8604L34.2375 33.6538H32.8383V32.189H36.667V36.0177ZM36.7159 30.111H22.3593V28.6462H36.7159V30.111ZM36.7159 27.1813H29.8758V25.7165H36.7159V27.1813ZM36.7159 24.2517H29.8758V22.7868H36.7159V24.2517Z" fill="#605BFF"/>
<path d="M22.8682 39.3735H20.1344C19.7879 39.3735 19.4536 39.302 19.1475 39.1672V39.2391C19.1475 41.3162 20.8313 43.0001 22.9085 43.0001H23.086C22.9465 42.6896 22.8683 42.3458 22.8683 41.984L22.8682 39.3735Z" fill="#605BFF"/>
</g>
<defs>
<clipPath id="clip0_1_3875">
<rect width="25" height="25" fill="white" transform="translate(17 18)"/>
</clipPath>
</defs>
</svg>
