<svg width="616" height="500" viewBox="0 0 616 500" fill="none" xmlns="http://www.w3.org/2000/svg">
<path d="M432.767 294.816C486.141 263.899 519.737 218.897 519.737 168.802C519.737 75.5643 403.379 0 259.847 0C116.314 0 0 75.5643 0 168.78C0 245.717 79.2407 310.629 187.604 330.959C171.038 343.672 161.582 358.421 161.582 374.167C161.582 421.871 248.618 460.539 356.007 460.539C463.374 460.539 550.433 421.871 550.433 374.167C550.388 338.578 501.954 308.038 432.767 294.816Z" fill="url(#paint0_linear_1_911)"/>
<path d="M432.767 294.816C486.141 263.899 519.737 218.897 519.737 168.802C519.737 75.5643 403.379 0 259.847 0C116.314 0 0 75.5643 0 168.78C0 245.717 79.2407 310.629 187.604 330.959C171.038 343.672 161.582 358.421 161.582 374.167C161.582 421.871 248.618 460.539 356.007 460.539C463.374 460.539 550.433 421.871 550.433 374.167C550.388 338.578 501.954 308.038 432.767 294.816Z" fill="url(#paint1_linear_1_911)"/>
<path d="M587.949 474.691C587.861 489.441 472.809 500.758 330.938 499.96C189.066 499.163 74.1475 486.584 74.2139 471.834C74.3025 457.084 189.354 445.768 331.226 446.565C473.097 447.362 588.038 459.964 587.949 474.691Z" fill="#D9643C"/>
<path d="M129.425 276.855H122.072V462.953H129.425V276.855Z" fill="#9F5E86"/>
<path d="M557.497 276.855H550.676V462.953H557.497V276.855Z" fill="#9F5E86"/>
<path d="M550.676 406.391H127.188V418.04H550.676V406.391Z" fill="#9F5E86"/>
<path d="M601.724 290.984H85.7516C77.9339 290.984 71.6221 284.65 71.6221 276.855C71.6221 269.037 77.956 262.725 85.7516 262.725H601.702C609.52 262.725 615.831 269.059 615.831 276.855C615.854 284.65 609.52 290.984 601.724 290.984Z" fill="#850D57"/>
<path d="M604.315 262.969H501.488C501.488 250.988 511.211 241.265 523.192 241.265H604.337V262.969H604.315Z" fill="#9F5E86"/>
<path d="M127.365 246.58C127.365 246.58 99.1723 246.58 91.1109 246.58C83.0495 246.58 88.7855 260.444 95.5845 262.327C102.384 264.209 112.416 262.327 125.305 262.327C138.195 262.349 127.365 246.58 127.365 246.58Z" fill="#FC7575"/>
<path d="M338.732 187.294L355.342 265.184C375.584 265.184 394.874 265.184 412.149 265.162L428.493 189.486C397.953 161.449 345.443 162.866 338.732 187.294Z" fill="#FC7575"/>
<path d="M507.822 211.544C484.657 188.379 436.133 194.514 425.392 181.27L412.148 265.184C449.045 265.139 476.794 265.029 485.144 264.785C518.142 263.855 524.343 247.378 524.343 247.378C524.343 247.378 527.975 231.698 507.822 211.544Z" fill="#228EBC"/>
<path d="M520.047 227.712C533.091 230.812 556.213 228.221 556.213 228.221L561.838 244.211C561.838 244.211 523.17 248.795 523.17 248.175C514.599 242.793 513.669 226.981 520.047 227.712Z" fill="#FC7575"/>
<path d="M588.369 209.175C588.369 209.175 572.999 221.311 571.117 226.294C569.212 231.277 566.267 242.439 566.267 242.439C566.267 242.439 543.655 247.001 538.738 246.824C538.738 246.824 542.459 266.822 576.808 258.539C589.897 255.395 598.224 254.022 603.872 240.822C609.519 227.645 600.97 213.537 588.369 209.175Z" fill="#18287D"/>
<path d="M592.621 219.096C592.621 219.096 589.676 210.481 583.01 209.662C576.321 208.842 572.999 210.437 569.766 210.038C566.533 209.64 560.531 210.016 551.273 213.847C542.016 217.679 547.265 230.723 553.887 238.209C561.35 246.624 563.631 247.4 575.679 247.377C587.749 247.355 597.693 232.871 592.621 219.096Z" fill="#FC7575"/>
<path d="M561.284 218.72C562.303 218.875 561.107 217.457 564.385 215.11C565.846 216.04 567.64 216.549 569.235 216.638C566.001 215.819 564.717 214.113 564.429 213.892C564.34 213.98 561.24 215.796 560.863 218.166C560.819 218.432 560.996 218.676 561.284 218.72Z" fill="#2846A6"/>
<path d="M568.814 224.212C568.327 223.592 568.437 222.706 569.057 222.219C569.677 221.732 570.586 221.842 571.073 222.462C571.56 223.083 571.449 223.968 570.829 224.456C570.209 224.943 569.301 224.832 568.814 224.212Z" fill="#2846A6"/>
<path d="M569.212 212.408C568.725 211.788 568.836 210.902 569.456 210.415C570.076 209.927 570.984 210.038 571.471 210.658C571.958 211.278 571.848 212.164 571.228 212.651C570.607 213.139 569.699 213.028 569.212 212.408Z" fill="#2846A6"/>
<path d="M572.313 219.096C572.468 220.713 572.291 222.352 571.804 223.924C571.538 224.744 571.183 225.43 570.829 226.139C570.453 226.848 570.076 227.534 569.589 228.221C569.589 227.379 569.788 226.582 570.032 225.829C570.253 225.054 570.652 224.323 570.918 223.636C571.449 222.175 571.848 220.646 572.313 219.096Z" fill="#0F1D5B"/>
<path d="M572.557 208.399C572.602 209.595 572.402 210.813 571.937 212.009C571.694 212.629 571.406 213.161 571.096 213.692C570.786 214.224 570.453 214.778 570.055 215.287C570.099 214.667 570.276 214.069 570.498 213.493C570.697 212.917 571.051 212.342 571.273 211.832C571.76 210.725 572.114 209.573 572.557 208.399Z" fill="#0F1D5B"/>
<path d="M576.654 219.118L574.882 219.783C574.882 219.783 575.148 224.079 573.376 225.94C573.376 225.962 577.717 222.728 576.654 219.118Z" fill="#0F1D5B"/>
<path d="M577.274 209.573L575.613 209.861C575.613 209.861 575.878 214.158 574.129 216.018C574.129 216.018 578.337 213.161 577.274 209.573Z" fill="#0F1D5B"/>
<path d="M556.611 215.198C556.611 215.198 557.12 220.093 558.693 224.19C558.693 224.19 552.624 220.447 552.912 218.144C553.2 215.84 556.611 215.198 556.611 215.198Z" fill="white"/>
<path d="M598.867 210.88C598.867 210.88 597.759 204.059 591.115 204.878C584.471 205.72 576.432 222.086 577.783 233.314C578.292 237.522 575.768 237.434 574.129 239.05C571.383 241.73 568.039 244.011 562.834 241.464C554.529 237.389 558.936 233.846 558.936 233.846C558.936 233.846 553.865 236.991 556.522 246.89C559.18 256.768 573.775 258.429 582.367 251.364C590.96 244.299 595.035 236.88 597.161 230.834C601.812 217.745 598.867 210.88 598.867 210.88Z" fill="#2846A6"/>
<path d="M576.011 242.793C576.011 241.642 572.667 236.614 569.057 237.854C565.447 239.095 565.181 240.357 566.798 243.59C568.393 246.802 576.011 245.694 576.011 242.793Z" fill="#FC7575"/>
<path d="M571.339 239.361C571.339 239.361 574.351 241.863 572.8 243.059C571.272 244.233 568.681 243.768 567.862 242.04C567.064 240.291 569.545 237.677 571.339 239.361Z" fill="#FD5E5A"/>
<path d="M564.141 231.831C562.524 231.831 561.195 229.749 561.195 227.18C561.195 224.611 562.524 222.529 564.141 222.529C565.78 222.529 567.086 224.611 567.086 227.18C567.108 229.749 565.78 231.831 564.141 231.831Z" fill="#FD5E5A"/>
<path d="M563.3 213.493C564.673 213.493 565.847 211.987 566.157 209.972C564.607 210.06 562.768 210.326 560.62 210.813C561.085 212.386 562.104 213.493 563.3 213.493Z" fill="#FD5E5A"/>
<path d="M415.759 244.366L413.012 244.543C383.513 244.875 346.218 193.982 330.605 170.529C268.904 176.198 195.067 195.488 158.304 205.919C137.774 211.744 121.031 226.958 113.833 247.045C111.707 252.981 110.534 259.071 111.154 264.741L117.244 314.482L428.493 326.53L446.52 265.051L415.759 244.366Z" fill="#7FCDEE"/>
<path d="M123.6 277.231C122.958 271.562 124.154 265.472 126.28 259.536C133.478 239.427 150.199 224.235 170.751 218.41C207.514 207.979 271.319 188.047 330.627 170.573C268.927 176.243 195.09 195.533 158.326 205.964C137.796 211.788 121.054 227.003 113.856 247.09C111.73 253.025 110.556 259.116 111.176 264.785L117.266 314.526L128.229 314.947L123.6 277.231Z" fill="#CCEBF8"/>
<path d="M117.244 314.527L428.493 326.596L446.52 265.117L423.421 318.646L117.244 314.527Z" fill="#056B96"/>
<path d="M506.892 248.241C506.892 248.241 500.513 235.463 484.856 240.8C469.198 246.137 437.019 249.481 427.717 248.241C418.416 247.001 385.262 213.759 385.24 213.626C384.93 211.566 382.45 203.682 380.479 198.544C378.508 193.428 380.368 188.977 379.039 187.847C377.954 186.917 375.828 189.686 376.847 192.919C377.843 196.086 379.416 201.401 375.939 201.246C372.506 201.091 367.766 182.156 367.722 181.956C367.279 180.096 366.017 176.863 364.976 178.457C364.599 179.432 365.818 185.544 366.991 189.132C369.051 195.377 369.627 197.37 369.117 198.146C368.32 198.256 366.903 194.27 363.514 185.522C359.794 175.933 353.349 170.927 362.274 189.929C364.732 195.156 366.105 199.585 365.53 199.674C363.736 199.939 362.363 196.418 360.724 193.251C359.151 190.173 355.32 183.507 354.633 187.028C354.656 187.825 357.114 191.856 358.886 194.801C362.761 201.18 363.736 203.04 363.315 204.037C360.237 204.48 356.892 196.994 354.456 193.65C354.08 193.14 353.305 193.517 353.46 194.115C354.168 196.617 356.294 201.246 360.104 206.163C364.046 211.279 371.686 218.565 376.448 222.728C376.669 223.814 402.581 256.281 417.397 262.482C432.213 268.66 509.815 272.536 506.892 248.241Z" fill="#FF9494"/>
<path d="M91.5316 247.799C91.5316 247.799 88.719 244.72 85.7513 246.581C82.8058 248.463 86.4157 250.146 86.4157 250.146C86.4157 250.146 84.9762 249.947 84.5776 251.298C84.2011 252.649 86.15 253.18 86.15 253.18C86.15 253.18 84.489 253.712 85.6849 254.908C86.8808 256.104 88.0325 256.082 88.0325 256.082C88.0325 256.082 86.15 256.945 87.1687 257.964C88.1875 258.961 90.4021 258.518 90.4021 258.518C90.4021 258.518 89.3613 258.872 90.2028 259.691C91.0444 260.533 93.2148 260.223 93.2148 259.093C93.2148 257.942 91.8638 258.23 91.8638 258.23C91.8638 258.23 92.7275 256.281 91.1994 255.882C91.1994 255.882 91.7309 253.402 89.9149 253.092C89.9149 253.092 91.3323 250.899 89.7156 250.567C89.7156 250.545 92.7054 248.95 91.5316 247.799Z" fill="#E56565"/>
<path d="M400.588 472.588C400.588 477.925 396.27 482.244 390.932 482.244C385.595 482.244 381.276 477.925 381.276 472.588C381.276 467.25 385.595 462.932 390.932 462.932C396.27 462.954 400.588 467.272 400.588 472.588Z" fill="#334851"/>
<path d="M398.152 472.588C398.152 476.574 394.919 479.785 390.954 479.785C386.968 479.785 383.757 476.552 383.757 472.588C383.757 468.601 386.99 465.39 390.954 465.39C394.941 465.39 398.152 468.601 398.152 472.588Z" fill="#CCEBF8"/>
<path d="M390.999 475.134C388.297 475.134 386.104 472.942 386.104 470.24V456.199H395.871V470.24C395.893 472.942 393.701 475.134 390.999 475.134Z" fill="#1F272B"/>
<path d="M392.239 471.569C392.239 472.255 391.685 472.831 390.976 472.831C390.29 472.831 389.714 472.277 389.714 471.569C389.714 470.882 390.268 470.306 390.976 470.306C391.663 470.306 392.239 470.86 392.239 471.569Z" fill="#CCEBF8"/>
<path d="M491.058 472.588C491.058 477.925 486.739 482.244 481.402 482.244C476.065 482.244 471.746 477.925 471.746 472.588C471.746 467.25 476.065 462.932 481.402 462.932C486.739 462.954 491.058 467.272 491.058 472.588Z" fill="#334851"/>
<path d="M488.599 472.588C488.599 476.574 485.366 479.785 481.402 479.785C477.415 479.785 474.204 476.552 474.204 472.588C474.204 468.601 477.438 465.39 481.402 465.39C485.388 465.39 488.599 468.601 488.599 472.588Z" fill="#CCEBF8"/>
<path d="M481.469 475.134C478.767 475.134 476.574 472.942 476.574 470.24V456.199H486.341V470.24C486.363 472.942 484.171 475.134 481.469 475.134Z" fill="#1F272B"/>
<path d="M482.687 471.569C482.687 472.255 482.133 472.831 481.424 472.831C480.738 472.831 480.162 472.277 480.162 471.569C480.162 470.882 480.716 470.306 481.424 470.306C482.133 470.306 482.687 470.86 482.687 471.569Z" fill="#CCEBF8"/>
<path d="M536.326 472.588C536.326 477.925 532.007 482.244 526.67 482.244C521.332 482.244 517.014 477.925 517.014 472.588C517.014 467.25 521.332 462.932 526.67 462.932C532.007 462.954 536.326 467.272 536.326 472.588Z" fill="#334851"/>
<path d="M533.867 472.588C533.867 476.574 530.634 479.785 526.669 479.785C522.683 479.785 519.472 476.552 519.472 472.588C519.472 468.601 522.705 465.39 526.669 465.39C530.656 465.39 533.867 468.601 533.867 472.588Z" fill="#CCEBF8"/>
<path d="M526.736 475.134C524.034 475.134 521.842 472.942 521.842 470.24V456.199H531.608V470.24C531.608 472.942 529.438 475.134 526.736 475.134Z" fill="#1F272B"/>
<path d="M527.954 471.569C527.954 472.255 527.401 472.831 526.692 472.831C526.006 472.831 525.43 472.277 525.43 471.569C525.43 470.882 525.983 470.306 526.692 470.306C527.379 470.306 527.954 470.86 527.954 471.569Z" fill="#CCEBF8"/>
<path d="M390.844 281.395C383.447 280.753 376.294 278.671 373.813 274.242C372.817 272.448 372.639 270.544 373.304 268.639C369.406 267.687 365.84 266.003 363.316 263.479C358.776 258.939 362.518 253.225 367.391 249.017C362.253 248.308 357.026 246.625 353.372 243.968C348.677 240.557 351.777 235.33 355.941 231.3C351.511 229.129 348.898 222.729 355.764 216.572C354.944 216.019 354.169 215.376 353.438 214.668C349.385 210.615 353.327 204.945 357.801 201.291C352.752 195.799 362.651 182.732 367.59 177.24L369.184 178.679C365.287 182.976 355.343 195.932 359.528 199.962C361.898 198.301 364.356 197.083 366.261 196.552C368.21 196.02 369.627 196.197 370.491 197.061C371.953 198.523 372.041 200.604 370.69 202.199C368.742 204.547 364.268 205.388 359.573 202.598C356.184 205.255 351.932 210.083 354.966 213.117C355.741 213.892 356.627 214.579 357.535 215.133C363.825 210.548 373.769 208.09 373.769 213.449C373.769 219.717 364.423 221.002 357.735 217.702C351.666 222.751 353.239 228.177 357.712 229.705C362.74 225.453 369.251 222.087 372.064 222.685C373.127 222.906 373.769 223.681 373.769 224.744C373.769 229.55 364.489 233.404 358.2 232.053C354.966 234.954 351.113 239.649 354.634 242.218C358.465 244.986 364.312 246.625 369.782 247.112C375.341 243.06 382.074 240.313 384.576 241.354C387.721 242.661 386.038 250.368 370.425 249.305C368.719 250.589 367.147 252.007 365.862 253.557C363.028 256.968 362.673 259.78 364.822 261.929C367.213 264.32 370.602 265.826 374.256 266.624C378.331 260.268 390.711 255.417 395.915 257.344C399.57 258.695 399.968 264.387 392.505 267.487C387.81 269.436 381.365 270.034 375.408 269.038C374.854 270.477 374.92 271.85 375.651 273.157C377.467 276.412 383.336 278.627 391.154 279.247C394.764 269.104 427.076 261.862 422.226 272.758C418.926 280.199 401.762 281.927 392.97 281.484C393.812 290.896 447.849 307.218 442.999 254.93L445.147 254.731C450.308 309.942 391.287 294.174 390.844 281.395ZM393.479 279.424C402.936 279.779 417.774 277.63 420.299 271.939C420.83 270.765 420.387 270.411 420.188 270.256C416.534 267.288 396.89 272.736 393.479 279.424ZM376.604 267.044C385.041 268.174 396.292 265.738 396.292 260.865C396.292 256.635 381.808 260.378 376.604 267.044ZM373.437 247.267C376.559 247.245 383.668 246.426 383.713 243.325C383.602 243.259 375.408 246.071 373.437 247.267ZM360.481 230.17C365.597 230.347 371.554 227.335 371.576 224.766C370.38 224.368 365.132 226.671 360.481 230.17ZM359.706 216.24C364.644 218.211 371.598 217.502 371.598 213.449C371.598 211.501 365.132 212.652 359.706 216.24ZM361.455 201.225C366.881 203.971 370.89 200.56 368.919 198.589C368.764 198.434 368.144 198.257 366.77 198.633C365.287 199.032 363.36 199.962 361.455 201.225Z" fill="#2B374D"/>
<path d="M490.349 124.265L479.054 194.824L474.802 194.359L479.143 123.025L490.349 124.265Z" fill="#20293A"/>
<path d="M450.529 326.619L449.488 323.939C476.042 317.871 486.606 289.966 491.08 268.971C496.173 245.053 494.955 222.242 494.933 222.02L498.565 221.887C498.587 222.109 499.828 245.164 494.667 269.37C489.928 291.716 478.722 320.174 450.529 326.619Z" fill="#2B374D"/>
<path d="M468.734 327.217L466.165 325.246C480.605 314.128 485.809 240.845 486.562 225.187L490.194 225.298C489.397 242.063 484.325 315.213 468.734 327.217Z" fill="#2B374D"/>
<path d="M490.061 213.45H463.795V195.334C463.795 188.07 469.686 182.201 476.928 182.201C484.192 182.201 490.061 188.092 490.061 195.334V213.45Z" fill="#2B374D"/>
<path d="M481.424 315.568H392.239V448.248H481.424V315.568Z" fill="#4C5A73"/>
<path d="M509.306 315.568H481.401V448.248H509.306V315.568Z" fill="#D7EFF6"/>
<path d="M488.688 448.248H373.127V459.1H488.688V448.248Z" fill="#5D767D"/>
<path d="M539.337 448.248H488.688V459.1H539.337V448.248Z" fill="#96B1B9"/>
<path d="M450.02 209.441H430.907V315.568H450.02V209.441Z" fill="#2B374D"/>
<path d="M456.376 315.568H424.972C424.972 307.794 431.283 301.483 439.057 301.483H442.29C450.086 301.483 456.376 307.794 456.376 315.568Z" fill="#2B374D"/>
<path d="M460.517 245.318H343.738V255.749H460.517V245.318Z" fill="#5D767D"/>
<path d="M460.517 245.319H343.738L405.239 206.983H506.25L460.517 245.319Z" fill="#8493AE"/>
<path d="M506.25 229.506V206.983L460.518 245.319V255.75L506.25 229.506Z" fill="#65789A"/>
<path d="M407.521 211.545L369.694 236.105L398.419 234.732C398.419 234.732 408.894 223.814 419.347 226.139C427.121 227.867 424.994 236.083 424.994 236.083H455.07L486.806 211.523H407.521V211.545Z" fill="#4C5A73"/>
<path d="M534.177 24.4944H410.422V130.577H534.177V24.4944Z" fill="#20293A"/>
<path d="M530.095 126.478V28.5901L414.534 28.5901V126.478L530.095 126.478Z" fill="#4C5A73"/>
<path d="M539.027 25.8896L534.177 24.4944V130.577L536.613 128.761L539.027 25.8896Z" fill="#65789A"/>
<path d="M499.606 33.0208H422.558V117.842H499.606V33.0208Z" fill="#191E27"/>
<path d="M496.771 58.0907C481.313 58.8216 454.803 61.3242 454.161 76.8268C454.161 76.8711 454.094 78.5099 454.094 78.4213C454.072 82.7178 452.899 87.1028 448.89 88.7417C444.527 90.602 437.13 89.0074 435.203 99.062C433.852 106.038 436.82 114.83 440.474 116.336C435.358 114.742 430.752 100.657 436.444 92.6174C441.914 84.8882 452.323 92.1744 452.278 78.3992C452.278 78.3549 452.345 76.6718 452.345 76.7603C453.142 59.8846 479.917 57.3156 496.771 58.0907Z" fill="#667287"/>
<path d="M486.672 71.2903C486.672 71.2903 476.485 72.6855 476.485 82.4743C476.485 92.2631 474.071 93.2598 465.832 95.8731C457.594 98.4864 458.502 112.86 471.679 115.141C477.371 116.137 481.313 110.999 485.188 106.57C495.132 95.2308 498.831 74.8116 486.672 71.2903Z" fill="#667287"/>
<path d="M472.3 98.9292L455.313 96.9138L451.814 109.803C451.814 109.803 448.138 102.428 446.388 104.2C444.638 105.95 447.717 116.336 451.659 116.336C455.601 116.336 461.47 104.51 461.47 104.51L469.265 106.636L472.3 98.9292Z" fill="#667287"/>
<path d="M460.053 88.1882L452.014 94.6329C452.014 94.6329 454.14 91.8203 450.508 91.4216C449.024 91.2445 448.382 92.5068 448.138 94.0571C447.695 96.7811 448.581 99.5716 450.419 101.653L450.663 101.941L460.54 95.6959L471.148 101.941L473.695 96.1832L460.053 88.1882Z" fill="#667287"/>
<path d="M475.002 59.6188C475.002 59.6188 468.823 62.8744 470.528 71.8659C472.256 80.8575 478.9 82.1641 485.411 76.0073C491.9 69.8063 484.968 57.0055 475.002 59.6188Z" fill="#667287"/>
<path d="M454.538 72.3312C454.184 73.5714 453.985 74.9223 454.007 76.2068C454.095 81.4999 457.284 82.0314 461.404 83.4045C467.605 85.4862 473.407 87.7452 473.673 94.3228H470.949C471.082 89.229 465.811 87.0144 460.828 84.999C456.775 83.3602 452.811 82.4079 453.099 76.2068C453.187 74.8116 453.453 73.4606 453.94 72.1318L454.538 72.3312Z" fill="#667287"/>
<path d="M479.142 85.0875C479.142 85.0875 470.505 84.2017 469.73 81.7655C468.977 79.3294 471.103 73.8592 471.103 73.8592L470.992 71.4895C470.992 71.4895 466.253 76.9154 466.253 81.7655C466.253 86.6157 475.687 90.4027 475.687 90.4027L479.142 85.0875Z" fill="#667287"/>
<path d="M527.666 34.2834H509.307V67.7913H527.666V34.2834Z" fill="#AEC2E7"/>
<path d="M527.666 70.8252H509.307V104.2H527.666V70.8252Z" fill="#AEC2E7"/>
<path d="M410.422 320.994H473.673L470.484 435.935L466.231 328.236L410.422 320.994Z" fill="#5D767D"/>
<path d="M194.425 323.961C187.936 323.961 183.396 322.078 180.938 318.336C175.047 309.388 182.577 292.734 190.527 275.083C195.2 264.719 200.028 254 200.87 246.802C203.439 224.323 200.936 213.648 200.914 213.538L205.432 212.43C205.543 212.895 208.156 223.88 205.476 247.334C204.568 255.262 199.807 265.826 194.757 277.01C188.003 292.003 180.318 308.99 184.814 315.789C186.408 318.225 189.841 319.399 194.979 319.31C228.908 318.69 247.932 319.31 248.131 319.31L247.976 323.961C247.799 323.961 228.863 323.341 195.068 323.961C194.846 323.961 194.647 323.961 194.425 323.961Z" fill="#0A2126"/>
<path d="M227.844 238.431C219.916 240.291 211.987 235.374 210.149 227.446L196.175 167.783C194.314 159.854 199.231 151.926 207.159 150.088C215.088 148.227 223.016 153.144 224.877 161.072L238.851 220.735C240.689 228.642 235.773 236.57 227.844 238.431Z" fill="#2B374D"/>
<path d="M227.844 238.431C219.916 240.291 211.987 235.374 210.149 227.446L196.175 167.783C194.314 159.854 199.231 151.926 207.159 150.088C215.088 148.227 223.016 153.144 224.877 161.072L238.851 220.735C240.689 228.642 235.773 236.57 227.844 238.431Z" fill="#2B374D"/>
<path d="M227.844 238.431C219.916 240.291 211.987 235.374 210.149 227.446L196.175 167.783C194.314 159.854 199.231 151.926 207.159 150.088C215.088 148.227 223.016 153.144 224.877 161.072L238.851 220.735C240.689 228.642 235.773 236.57 227.844 238.431Z" fill="#2B374D"/>
<path d="M238.829 220.713L224.854 161.05C222.994 153.122 215.066 148.205 207.137 150.065C206.451 150.22 205.808 150.442 205.166 150.686C212.364 150.021 219.141 154.738 220.824 161.98L234.798 221.643C236.504 228.885 232.517 236.105 225.785 238.718C226.471 238.652 227.135 238.563 227.822 238.408C235.773 236.57 240.689 228.642 238.829 220.713Z" fill="#2B374D"/>
<path d="M208.754 221.532L202.021 219.03L192.587 178.767L197.481 173.452L208.754 221.532Z" fill="#2B374D"/>
<path d="M338.534 332.399H245.739L240.845 320.772H343.982L338.534 332.399Z" fill="#0A2126"/>
<path d="M304.117 326.596H281.705V371.31H304.117V326.596Z" fill="#0A2126"/>
<path d="M298.514 370.956H287.286V444.704H298.514V370.956Z" fill="#9DA6A8"/>
<path d="M290.852 370.956H287.286V444.704H290.852V370.956Z" fill="#B2BEBF"/>
<path d="M301.129 462.643H284.585V448.514V437.13H301.129V462.643Z" fill="#0A2126"/>
<path d="M223.593 479.541L284.585 448.514V462.643L240.845 479.541V482.642H223.593V479.541Z" fill="#0A2126"/>
<path d="M362.12 479.519V482.642H344.868V479.519L301.15 462.643V448.514L362.12 479.519Z" fill="#0A2126"/>
<path d="M301.15 482.642V485.033H283.189V482.642H287.309V448.514H298.537L297.363 482.642H301.15Z" fill="#0A2126"/>
<path d="M344.292 320.772H237.412C231.521 320.772 226.737 315.988 226.737 310.097C226.737 304.206 231.521 299.422 237.412 299.422H344.292C350.183 299.422 354.966 304.206 354.966 310.097C354.966 315.988 350.183 320.772 344.292 320.772Z" fill="#288397"/>
<path d="M344.292 299.422H237.412C234.334 299.422 231.588 300.729 229.639 302.811C229.683 302.811 229.727 302.789 229.772 302.789H336.651C342.542 302.789 347.326 307.572 347.326 313.463C347.326 316.276 346.219 318.823 344.425 320.75C350.249 320.683 354.966 315.944 354.966 310.075C354.966 304.206 350.183 299.422 344.292 299.422Z" fill="#44C3D8"/>
<path d="M368.631 163.243C364.334 164.062 350.16 175.734 354.966 179.986C359.772 184.238 400.854 183.751 399.237 175.424C397.643 167.074 387.433 159.655 368.631 163.243Z" fill="#7CAD98"/>
<path d="M399.259 175.401C398.706 172.522 397.111 169.754 394.498 167.495C396.093 169.377 397.111 171.481 397.532 173.674C399.06 181.602 361.876 182.422 354.169 178.812C354.324 179.233 354.59 179.631 354.966 179.963C359.772 184.238 400.876 183.728 399.259 175.401Z" fill="#536460"/>
<path d="M393.745 164.97L383.69 159.744C383.69 159.744 369.339 157.152 362.031 161.449C362.031 161.449 330.716 187.25 310.407 183.883C303.32 182.71 292.247 174.316 280.221 164.306C272.182 172.323 263.789 180.141 255.705 187.737C275.194 199.652 298.603 209.95 312.511 207.514C336.474 203.306 367.125 171.038 367.125 171.038C367.125 171.038 378.752 165.125 384.023 168.824C389.294 172.522 392.35 175.445 392.593 174.67C392.837 173.895 386.392 166.941 386.392 166.941C386.392 166.941 394.476 174.604 395.495 174.072C396.513 173.541 390.6 167.34 390.6 167.34L384.975 163.442L392.904 166.543C392.904 166.543 395.074 171.215 395.982 170.75C396.89 170.285 393.745 164.97 393.745 164.97Z" fill="#EA5959"/>
<path d="M286.112 122.67C270.277 124.73 267.376 136.623 271.03 154.916C272.558 162.601 278.914 189.664 287.485 203.86C298.16 200.848 317.671 186.829 323.208 181.292C311.957 154.473 297.23 121.231 286.112 122.67Z" fill="#5D8272"/>
<path d="M310.185 278.981C310.185 278.981 386.126 320.772 386.126 323.895C386.126 327.017 333.417 449.776 333.417 449.776L335.388 472.166C335.388 472.166 347.835 482.044 344.225 482.044C340.615 482.044 330.472 482.044 330.472 482.044C330.472 482.044 325.887 471.502 322.942 468.556C319.996 465.589 313.131 458.347 313.131 458.347L322.942 446.831L318.025 446.498L348.145 335.92L304.272 312.799L288.969 280.974L310.185 278.981Z" fill="#3E574C"/>
<path d="M236.548 307.285L235.419 315.745L284.673 333.772L289.9 450.108H294.484L290.232 475.112C290.232 475.112 286.268 487.16 287.375 488.267C288.482 489.374 306.598 488.267 306.598 488.267L304.317 450.086L306.598 449.754C306.598 449.754 316.409 324.36 316.409 316.143C316.409 307.905 287.353 280.93 287.353 280.93L236.548 307.285Z" fill="#5D8272"/>
<path d="M298.05 291.45C302.568 296.809 315.28 311.094 315.125 316.719C315.125 316.763 314.926 319.731 314.926 319.554C312.799 346.506 310.164 380.368 309.854 407.852C316.742 359.462 317.716 314.084 317.694 316.276C317.694 316.099 302.856 295.746 298.05 291.45Z" fill="#CBDED6"/>
<path d="M274.397 117.997C274.397 117.997 273.821 117.953 272.78 117.953C264.94 117.842 231.078 118.994 222.773 146.079C213.361 176.774 202.73 285.647 233.802 316.896C233.802 316.896 293.908 278.649 321.835 286.157C321.835 286.157 282.68 252.117 291.627 222.485C297.85 201.844 303.054 149.711 298.824 133.389C294.594 117.067 274.397 117.997 274.397 117.997Z" fill="#7CAD98"/>
<path d="M290.541 227.601C289.988 227.269 289.456 226.915 288.925 226.538C283.476 222.441 218.565 143.444 222.219 161.737C223.968 170.529 230.192 195.511 240.645 211.633C246.093 221.843 269.325 250.324 280.066 253.712C284.827 255.218 290.475 255.174 296.432 254.177C292.18 245.806 289.412 236.593 290.541 227.601Z" fill="#5D8272"/>
<path d="M291.627 222.485C295.702 202.73 301.659 152.369 298.825 133.389C304.649 154.03 299.135 201.534 291.627 222.485Z" fill="#CBDED6"/>
<path d="M255.927 81.6545C255.927 81.6545 253.358 105.728 255.218 121.541C255.683 125.483 257.942 128.982 261.33 131.019C268.152 135.117 280.044 141.163 284.518 136.6L278.826 98.9289L255.927 81.6545Z" fill="#FC7575"/>
<path d="M255.927 81.6545L278.804 98.9289L281.706 118.041C272.736 119.215 262.017 107.167 258.23 91.2883C257.566 88.5643 256.702 86.106 255.728 83.8471C255.838 82.474 255.927 81.6545 255.927 81.6545Z" fill="#FD5E5A"/>
<path d="M286.135 47.3496C286.489 47.6153 286.888 48.1026 287.331 48.8334C289.324 52.0889 291.871 59.8181 291.228 69.319C290.453 80.8796 289.789 105.13 281.329 106.614C272.869 108.12 259.492 98.5526 256.148 84.9103C252.782 71.2901 245.739 65.4212 248.884 53.9493C252.051 42.4773 286.135 47.3496 286.135 47.3496Z" fill="#FC7575"/>
<path d="M286.135 47.3496C286.135 47.3496 252.051 42.4773 248.884 53.9493C245.717 65.4212 252.782 71.2901 256.148 84.9103C259.182 84.0908 263.966 83.6922 261.331 67.2151C263.922 58.3786 269.015 59.2645 269.924 55.3888C277.83 57.1162 278.76 61.2577 279.269 61.7006C282.857 67.5694 286.578 72.3531 290.919 74.5235C291.029 72.6189 291.14 70.8472 291.251 69.2969C291.915 59.3752 288.726 49.3206 286.135 47.3496Z" fill="#FD5E5A"/>
<path d="M256.148 84.9103C255.572 83.5594 256.503 86.372 256.148 84.9103V84.9103Z" fill="#FD5E5A"/>
<path d="M260.799 67.8572C260.799 67.8572 262.637 60.9253 265.051 57.2047C267.465 53.484 266.07 50.9372 266.07 50.9372C266.07 50.9372 277.099 51.0257 281.617 58.3341C286.135 65.6647 291.871 76.583 302.723 69.3189C313.574 62.0769 308.591 45.932 305.845 46.4192C303.099 46.9065 300.154 44.8911 300.154 44.8911C300.154 44.8911 287.663 31.6031 282.392 32.5555C277.121 33.4856 280.797 27.506 271.607 27.6168C262.416 27.7275 256.857 37.5827 256.857 37.5827C256.857 37.5827 252.14 33.5963 246.116 39.4873C240.092 45.3784 246.47 63.0292 250.036 69.0088C253.579 74.9884 255.595 85.4195 255.595 85.4195C255.595 85.4195 263.966 85.8181 260.799 67.8572Z" fill="#1B2B80"/>
<path d="M255.506 65.6424C255.905 62.1654 259.869 61.058 262.017 63.7821C263.789 66.041 265.118 68.9865 263.368 71.7106C259.847 77.1587 255.041 72.685 255.417 66.7719C255.439 66.3732 255.462 65.9967 255.506 65.6424Z" fill="#FC7575"/>
<path d="M263.678 68.2117C263.324 66.8829 261.264 63.1844 259.493 64.8897C257.721 66.595 256.99 71.7552 260.445 72.1538C263.922 72.5524 264.01 69.5183 263.678 68.2117Z" fill="#FD5E5A"/>
<path d="M282.459 88.9851L287.264 88.1435L285.028 75.4978C284.983 75.232 284.74 75.0327 284.474 75.077C284.23 75.1213 284.053 75.387 284.097 75.6528L286.157 87.3019L282.259 87.9885C282.016 88.0328 281.838 88.2985 281.883 88.5643C281.971 88.83 282.215 89.0294 282.459 88.9851Z" fill="#18287D"/>
<path d="M276.589 75.3428C276.833 76.7602 277.918 77.7789 279.026 77.5796C280.133 77.3803 280.797 76.0737 280.532 74.6563C280.288 73.2389 279.181 72.2201 278.095 72.4195C277.01 72.5966 276.324 73.9033 276.589 75.3428Z" fill="#18287D"/>
<path d="M286.91 75.077C287.154 76.3836 288.084 77.3138 289.014 77.1588C289.944 77.0037 290.498 75.7857 290.276 74.479C290.033 73.1724 289.103 72.2422 288.172 72.3972C287.242 72.5523 286.689 73.7482 286.91 75.077Z" fill="#18287D"/>
<path d="M280.864 98.9509C281.839 98.7738 282.414 98.4859 282.437 98.4637C282.658 98.353 282.725 98.0651 282.614 97.8436C282.503 97.6 282.237 97.5336 282.016 97.6221C281.839 97.7329 277.919 99.6818 273.556 95.4075C273.379 95.2303 273.113 95.2524 272.936 95.4296C272.781 95.6289 272.803 95.9169 272.98 96.094C276.103 99.1503 279.115 99.261 280.864 98.9509Z" fill="#18287D"/>
<path d="M280.975 67.9903C280.975 67.9903 278.295 65.9306 275.549 66.4178C272.803 66.9051 271.297 70.7364 271.297 70.7364C271.297 70.7364 272.869 67.5916 275.305 67.6581C277.742 67.7245 281.285 69.6513 281.285 69.6513L280.975 67.9903Z" fill="#18287D"/>
<path d="M373.879 238.785L367.368 229.528C367.368 229.528 355.83 220.603 347.348 221.068C347.348 221.068 307.661 229.528 291.206 217.17C285.581 212.94 279.756 200.826 273.821 186.807C263.988 191.436 254.509 196.817 244.676 201.468C255.993 218.92 270.1 235.308 282.17 239.095C305.38 246.404 347.458 231.897 347.458 231.897C347.458 231.897 360.503 232.008 363.47 237.722C366.438 243.436 367.811 247.444 368.387 246.869C368.963 246.293 366.438 237.146 366.438 237.146C366.438 237.146 370.07 247.666 371.222 247.666C372.373 247.666 369.981 239.427 369.981 239.427L366.77 233.359L372.373 239.759C372.373 239.759 372.152 244.898 373.171 244.898C374.234 244.942 373.879 238.785 373.879 238.785Z" fill="#FC7575"/>
<path d="M254.731 215.598L275.748 191.258C275.106 189.797 274.485 188.313 273.843 186.807C264.01 191.436 254.531 196.817 244.698 201.468C247.843 206.362 251.231 211.146 254.731 215.598Z" fill="#FD5E5A"/>
<path d="M278.98 236.15C278.98 236.15 279.291 231.942 281.439 231.41C283.587 230.879 290.297 236.504 288.725 238.076C287.13 239.649 278.98 238.984 278.98 236.15Z" fill="#FD5E5A"/>
<path d="M239.516 127.299C223.681 129.358 218.587 143.444 222.242 161.737C223.991 170.529 230.214 195.51 240.668 211.633C250.501 206.982 269.613 190.97 275.814 187.316C264.431 160.342 250.744 125.837 239.516 127.299Z" fill="#96BDAD"/>
<path d="M275.815 187.294C265.915 168.359 255.196 140.144 246.116 130.842C243.37 128.007 242.107 127.985 241.62 127.675C241.199 127.609 240.668 127.343 239.406 127.387L238.254 127.476C238.586 127.897 249.394 118.573 269.525 169.997C271.784 175.711 273.888 181.469 275.815 187.294Z" fill="#CBDED6"/>
<path d="M198.345 142.934C198.035 142.934 197.792 142.669 197.814 142.381C198.279 125.727 206.872 115.783 214.003 110.379C221.71 104.532 229.196 102.65 229.506 102.583C229.794 102.517 230.082 102.694 230.148 102.982C230.214 103.27 230.037 103.558 229.749 103.624C229.683 103.646 222.131 105.551 214.601 111.265C207.669 116.536 199.32 126.192 198.855 142.403C198.877 142.691 198.633 142.934 198.345 142.934Z" fill="#1B2B80"/>
<path d="M407.277 162.844C407.144 162.844 406.989 162.778 406.878 162.689C389.117 144.108 351.335 141.628 350.958 141.605C350.67 141.583 350.427 141.34 350.449 141.03C350.471 140.742 350.737 140.52 351.024 140.52C351.401 140.542 389.582 143.045 407.653 161.936C407.853 162.158 407.853 162.49 407.631 162.689C407.543 162.8 407.41 162.844 407.277 162.844Z" fill="#1B2B80"/>
<defs>
<linearGradient id="paint0_linear_1_911" x1="330.639" y1="596.091" x2="218.912" y2="-78.5723" gradientUnits="userSpaceOnUse">
<stop stop-color="white"/>
<stop offset="1"/>
</linearGradient>
<linearGradient id="paint1_linear_1_911" x1="330.669" y1="596.139" x2="218.948" y2="-78.5311" gradientUnits="userSpaceOnUse">
<stop stop-color="#FFDACD"/>
<stop offset="1" stop-color="#FDB39A"/>
</linearGradient>
</defs>
</svg>
