<svg width="60" height="60" viewBox="0 0 60 60" fill="none" xmlns="http://www.w3.org/2000/svg">
<rect width="60" height="60" rx="30" fill="#FF6533" fill-opacity="0.2"/>
<g clip-path="url(#clip0_1_3864)">
<path d="M32.6816 27.1005L34.8334 24.0386C33.0777 21.4496 30.1113 19.7454 26.7547 19.7454C21.376 19.7454 17 24.1213 17 29.5C17 34.8786 21.376 39.2546 26.7546 39.2546C30.077 39.2546 33.0165 37.5851 34.7785 35.0411L35.1976 28.2569H33.2824C32.6877 28.2569 32.3404 27.5858 32.6816 27.1005ZM27.8258 34.0811C27.8258 34.0811 27.837 34.0806 27.489 34.0806V35.2126C27.489 35.618 27.1604 35.9469 26.7546 35.9469C26.3492 35.9469 26.0202 35.6179 26.0202 35.2126V34.0806H25.5639C24.6552 34.0742 23.7925 33.6601 23.1962 32.9443C22.9367 32.6329 22.9788 32.1697 23.2907 31.9103C23.5899 31.661 24.029 31.69 24.2929 31.9685C24.3037 31.9798 24.3145 31.992 24.3248 32.0042C24.643 32.3866 25.0978 32.6079 25.5727 32.6118H27.8112C27.8161 32.6123 27.821 32.6123 27.8259 32.6123C28.4823 32.6123 29.0146 32.0807 29.0146 31.4231C29.0146 30.7676 28.4809 30.2344 27.8254 30.2344C27.3434 30.2344 26.1969 30.2344 25.6839 30.2344C24.2186 30.2344 23.0264 29.0422 23.0264 27.5769C23.0264 26.101 24.2234 24.9112 25.7006 24.9194H26.0203V23.7875C26.0203 23.3821 26.3493 23.0531 26.7547 23.0531C27.1605 23.0531 27.4891 23.3821 27.4891 23.7875V24.9194H27.7588C28.8095 24.9267 29.7808 25.4687 30.3566 26.3691L30.3679 26.3867C30.5862 26.7284 30.4859 27.1823 30.1442 27.4007C29.8151 27.6106 29.3557 27.5365 29.119 27.1598C28.8174 26.6888 28.293 26.3926 27.7501 26.3882H25.6982C25.6933 26.3882 25.6884 26.3877 25.684 26.3877C25.027 26.3877 24.4953 26.9193 24.4953 27.5769C24.4953 28.2324 25.0284 28.7656 25.684 28.7656H27.8255C29.2908 28.7656 30.4835 29.9578 30.4835 31.4231C30.4833 32.887 29.2989 34.0811 27.8258 34.0811Z" fill="#FF6533"/>
<path d="M40.7168 26.7882C40.2954 26.7882 39.9583 27.1443 39.9839 27.5681L40.5771 37.1717C40.6033 37.5943 40.2675 37.9514 39.8441 37.9514H36.852C36.4284 37.9514 36.0927 37.594 36.1187 37.1712C36.3884 32.7994 36.0283 38.6405 36.712 27.5681C36.7377 27.144 36.4008 26.7881 35.979 26.7881H34.6963C34.9778 26.3876 37.4247 22.9056 38.1478 21.8768C38.2454 21.7379 38.4511 21.7381 38.5487 21.877L42.0001 26.7882H40.7168Z" fill="#FF6533"/>
</g>
<defs>
<clipPath id="clip0_1_3864">
<rect width="25" height="25" fill="white" transform="translate(17 17)"/>
</clipPath>
</defs>
</svg>
