<svg width="40" height="40" viewBox="0 0 40 40" fill="none" xmlns="http://www.w3.org/2000/svg">
<rect width="40" height="40" rx="10" fill="#FF6533" fill-opacity="0.2"/>
<g clip-path="url(#clip0_1_4896)">
<path d="M15.6853 17.9225L17.9225 15.6854L16.4308 14.1937L15.6851 14.9394L11.7457 11L11 11.7457L14.9394 15.6851L14.1937 16.4308L15.6853 17.9225Z" fill="#FF6533"/>
<path d="M28.2546 24.7436L27.6178 25.3804L26.1262 23.8887L23.8887 26.126L25.3805 27.6178L24.744 28.2543L25.4897 29L29.0003 25.4893L28.2546 24.7436Z" fill="#FF6533"/>
<path d="M26.6882 20.3597L25.3884 21.6593L19.4146 15.6851L15.6855 19.4142L17.1772 20.9057L19.0417 19.0413L19.7873 19.7869L17.9229 21.6514L18.6686 22.3971L20.533 20.5326L21.2787 21.2783L19.4143 23.1428L20.1603 23.8887L22.0244 22.0245L22.7701 22.7702L20.906 24.6344L21.6596 25.3881L20.3601 26.6878L21.1057 27.4334L27.4338 21.1052L26.6882 20.3597Z" fill="#FF6533"/>
</g>
<defs>
<clipPath id="clip0_1_4896">
<rect width="18" height="18" fill="white" transform="translate(11 11)"/>
</clipPath>
</defs>
</svg>
