<svg width="40" height="40" viewBox="0 0 40 40" fill="none" xmlns="http://www.w3.org/2000/svg">
<rect width="40" height="40" rx="10" fill="#FF55BF" fill-opacity="0.2"/>
<g clip-path="url(#clip0_1_9637)">
<path d="M15.5259 18.875C15.6283 19.6909 16.025 20.4414 16.6416 20.9855C17.2582 21.5296 18.0523 21.8299 18.8746 21.8299C19.697 21.8299 20.491 21.5296 21.1077 20.9855C21.7243 20.4414 22.121 19.6909 22.2234 18.875C22.5218 18.8785 22.8093 18.7633 23.0227 18.5547C23.2362 18.3462 23.358 18.0615 23.3615 17.7631C23.365 17.4647 23.2498 17.1772 23.0413 16.9638C22.8328 16.7503 22.548 16.6285 22.2496 16.625C21.4409 16.6275 20.6559 16.3521 20.0259 15.845C18.6534 16.865 16.3321 16.625 15.4996 16.625C15.3519 16.6267 15.206 16.6575 15.0701 16.7156C14.9343 16.7738 14.8112 16.8581 14.708 16.9638C14.6047 17.0694 14.5233 17.1944 14.4684 17.3316C14.4134 17.4687 14.386 17.6154 14.3878 17.7631C14.3895 17.9108 14.4203 18.0568 14.4784 18.1926C14.5366 18.3284 14.6209 18.4515 14.7266 18.5547C14.94 18.7633 15.2275 18.8785 15.5259 18.875ZM19.9996 17C20.0991 17 20.1945 17.0395 20.2648 17.1098C20.3351 17.1801 20.3746 17.2755 20.3746 17.375C20.3746 17.4744 20.4142 17.5698 20.4845 17.6401C20.5548 17.7105 20.6502 17.75 20.7496 17.75C20.8491 17.75 20.9445 17.7895 21.0148 17.8598C21.0851 17.9301 21.1246 18.0255 21.1246 18.125C21.1246 18.2244 21.0851 18.3198 21.0148 18.3901C20.9445 18.4605 20.8491 18.5 20.7496 18.5C19.6246 18.5 19.2796 17 19.9996 17ZM20.2059 20.0637C20.2787 20.1223 20.3269 20.206 20.3412 20.2983C20.3555 20.3907 20.3349 20.485 20.2833 20.5629C20.2316 20.6408 20.1528 20.6966 20.0622 20.7194C19.9716 20.7422 19.8757 20.7304 19.7934 20.6862C19.5172 20.516 19.1991 20.4259 18.8746 20.4259C18.5502 20.4259 18.2321 20.516 17.9559 20.6862C17.8736 20.7304 17.7777 20.7422 17.6871 20.7194C17.5965 20.6966 17.5177 20.6408 17.466 20.5629C17.4144 20.485 17.3938 20.3907 17.4081 20.2983C17.4224 20.206 17.4706 20.1223 17.5434 20.0637C17.9406 19.8087 18.4026 19.6731 18.8746 19.6731C19.3467 19.6731 19.8087 19.8087 20.2059 20.0637ZM16.9996 17.75C17.0991 17.75 17.1945 17.7105 17.2648 17.6401C17.3351 17.5698 17.3746 17.4744 17.3746 17.375C17.3746 17.2755 17.4142 17.1801 17.4845 17.1098C17.5548 17.0395 17.6502 17 17.7496 17C18.4621 17 18.1246 18.5 16.9996 18.5C16.9002 18.5 16.8048 18.4605 16.7345 18.3901C16.6642 18.3198 16.6246 18.2244 16.6246 18.125C16.6246 18.0255 16.6642 17.9301 16.7345 17.8598C16.8048 17.7895 16.9002 17.75 16.9996 17.75Z" fill="#FF55BF"/>
<path d="M20.42 24.2563C20.1175 24.5471 19.7397 24.7475 19.3292 24.8349C18.9188 24.9223 18.4921 24.8931 18.0973 24.7507C17.7026 24.6084 17.3555 24.3584 17.0953 24.0292C16.8352 23.6999 16.6722 23.3045 16.625 22.8875L14.15 23.7725C13.5349 23.9982 12.9896 24.3811 12.5685 24.8831C12.1474 25.3851 11.8652 25.9887 11.75 26.6338L11.375 28.625H22.3925C21.6855 28.1567 21.1251 27.4981 20.7761 26.7251C20.4272 25.9522 20.3037 25.0963 20.42 24.2563Z" fill="#FF55BF"/>
<path d="M17.3749 22.34C17.3422 22.5829 17.3647 22.8301 17.4406 23.0632C17.5166 23.2962 17.6441 23.5092 17.8137 23.6862C18.0235 23.8962 18.2909 24.0393 18.582 24.0973C18.8731 24.1552 19.1749 24.1255 19.4491 24.0119C19.7234 23.8983 19.9577 23.7058 20.1225 23.4589C20.2873 23.212 20.3752 22.9218 20.375 22.625V22.34C19.4108 22.7187 18.3391 22.7187 17.3749 22.34Z" fill="#FF55BF"/>
<path d="M20 14.75C20.262 15.0993 20.6017 15.3828 20.9922 15.5781C21.3827 15.7733 21.8134 15.875 22.25 15.875H22.625C22.625 14.7275 22.6662 13.625 21.5262 12.4737C21.0018 11.9495 20.3337 11.5924 19.6064 11.4478C18.879 11.3032 18.1252 11.3774 17.44 11.6612C16.7549 11.945 16.1693 12.4255 15.7572 13.042C15.3452 13.6586 15.1252 14.3834 15.125 15.125V15.875C16.2763 15.875 19.295 16.16 20 14.75Z" fill="#FF55BF"/>
<path d="M24.875 21.125C24.1333 21.125 23.4083 21.3449 22.7916 21.757C22.1749 22.169 21.6943 22.7547 21.4105 23.4399C21.1266 24.1252 21.0524 24.8792 21.1971 25.6066C21.3418 26.334 21.6989 27.0022 22.2234 27.5267C22.7478 28.0511 23.416 28.4083 24.1434 28.5529C24.8708 28.6976 25.6248 28.6234 26.3101 28.3395C26.9953 28.0557 27.581 27.5751 27.993 26.9584C28.4051 26.3417 28.625 25.6167 28.625 24.875C28.625 23.8804 28.2299 22.9266 27.5267 22.2233C26.8234 21.5201 25.8696 21.125 24.875 21.125ZM26.75 25.625H25.625V26.75H24.125V25.625H23V24.125H24.125V23H25.625V24.125H26.75V25.625Z" fill="#FF55BF"/>
</g>
<defs>
<clipPath id="clip0_1_9637">
<rect width="18" height="18" fill="white" transform="translate(11 11)"/>
</clipPath>
</defs>
</svg>
