<svg width="501" height="423" viewBox="0 0 501 423" fill="none" xmlns="http://www.w3.org/2000/svg">
<path d="M272.97 31.9301C272.97 33.4529 272.343 34.8461 271.328 35.8613C270.324 36.8765 268.931 37.5029 267.408 37.5029H148.457C145.4 37.5029 142.895 34.9973 142.895 31.9409C142.895 30.4181 143.521 29.0249 144.536 28.0097C145.541 26.9945 146.934 26.3681 148.457 26.3681H154.083C156.308 21.2057 161.427 17.5985 167.4 17.5985C171.417 17.5985 175.046 19.2401 177.681 21.8753C181.181 15.9353 187.65 11.9393 195.048 11.9393C197.078 11.9393 199.044 12.2525 200.891 12.8033C204.757 5.5241 212.414 0.566895 221.227 0.566895C231.822 0.566895 240.721 7.71649 243.41 17.4473C245.365 16.4753 247.557 15.9137 249.901 15.9137C256.511 15.9137 262.073 20.3201 263.833 26.3573H267.419C270.475 26.3681 272.97 28.8737 272.97 31.9301Z" fill="#DFDEF7"/>
<path d="M413.683 55.582C413.683 56.7052 413.229 57.7312 412.484 58.4656C411.75 59.2108 410.724 59.6644 409.6 59.6644H322.12C319.874 59.6644 318.038 57.8284 318.038 55.5712C318.038 54.448 318.492 53.422 319.237 52.6876C319.971 51.9424 320.997 51.4888 322.12 51.4888H326.257C327.888 47.698 331.657 45.0412 336.052 45.0412C339.012 45.0412 341.679 46.24 343.612 48.184C346.194 43.81 350.946 40.8724 356.389 40.8724C357.89 40.8724 359.326 41.0992 360.687 41.5096C363.538 36.1528 369.154 32.5132 375.645 32.5132C383.432 32.5132 389.988 37.7728 391.964 44.9224C393.4 44.2096 395.02 43.7992 396.738 43.7992C401.598 43.7992 405.691 47.0392 406.976 51.478H409.611C411.836 51.4888 413.683 53.3356 413.683 55.582Z" fill="#DFDEF7"/>
<path d="M473.871 222.658C472.403 222.95 470.966 223.447 469.595 224.138L465.059 219.094L459.54 224.073L463.892 228.901C462.888 230.218 462.099 231.665 461.538 233.177L453.956 232.789L453.567 240.208L460.566 240.575C460.76 242.66 461.333 244.701 462.305 246.613L457.261 251.159L462.24 256.678L467.067 252.326C468.644 253.525 470.383 254.399 472.208 254.972L471.884 261.268L479.304 261.657L479.617 255.576C481.799 255.263 483.937 254.507 485.892 253.309L490.233 258.136L495.752 253.157L491.205 248.114C492.037 246.829 492.674 245.446 493.128 244.021L500.299 244.399L500.688 236.979L493.733 236.623C493.419 234.441 492.663 232.303 491.465 230.348L496.292 226.006L491.313 220.487L486.27 225.023C484.725 224.019 483.051 223.285 481.313 222.853L481.68 215.897L474.26 215.509L473.871 222.658ZM482.241 234.473C484.758 237.26 484.531 241.58 481.745 244.096C478.958 246.613 474.638 246.386 472.122 243.599C469.605 240.813 469.832 236.493 472.619 233.977C475.405 231.449 479.725 231.676 482.241 234.473Z" fill="#DFDEF7"/>
<path d="M52.0662 99.862C50.5974 100.154 49.161 100.65 47.7894 101.342L43.2534 96.2981L37.7346 101.277L42.087 106.104C41.0826 107.422 40.2942 108.869 39.7326 110.381L32.151 109.992L31.7622 117.412L38.7606 117.779C38.955 119.864 39.5274 121.905 40.4994 123.816L35.4558 128.363L40.4346 133.882L45.2622 129.53C46.839 130.728 48.5778 131.603 50.403 132.176L50.079 138.472L57.4986 138.861L57.8118 132.78C59.9934 132.467 62.1318 131.711 64.0866 130.512L68.4282 135.34L73.947 130.361L69.4002 125.318C70.2318 124.032 70.869 122.65 71.3226 121.224L78.4938 121.602L78.8826 114.183L71.9274 113.826C71.6142 111.645 70.8582 109.506 69.6594 107.552L74.487 103.21L69.5082 97.6913L64.4646 102.227C62.9202 101.223 61.2462 100.488 59.5074 100.046L59.8746 93.0905L52.455 92.7017L52.0662 99.862ZM60.4362 111.677C62.9526 114.464 62.7258 118.784 59.9394 121.3C57.153 123.816 52.833 123.59 50.3166 120.803C47.8002 118.017 48.027 113.697 50.8134 111.18C53.6106 108.653 57.9198 108.88 60.4362 111.677Z" fill="#DFDEF7"/>
<path d="M465.879 183.595C465.08 183.757 464.292 184.027 463.546 184.405L461.062 181.651L458.049 184.372L460.425 187.007C459.874 187.731 459.442 188.519 459.14 189.34L454.993 189.124L454.777 193.185L458.6 193.379C458.708 194.513 459.021 195.637 459.55 196.684L456.796 199.168L459.518 202.181L462.153 199.805C463.017 200.464 463.968 200.939 464.961 201.253L464.778 204.687L468.838 204.892L469.011 201.566C470.21 201.393 471.376 200.983 472.435 200.324L474.811 202.959L477.824 200.237L475.34 197.483C475.794 196.781 476.15 196.025 476.388 195.248L480.308 195.453L480.524 191.392L476.722 191.198C476.55 189.999 476.139 188.833 475.48 187.774L478.116 185.398L475.394 182.385L472.64 184.869C471.798 184.318 470.88 183.919 469.929 183.681L470.124 179.879L466.063 179.663L465.879 183.595ZM470.448 190.053C471.819 191.576 471.7 193.941 470.178 195.313C468.655 196.684 466.29 196.565 464.918 195.043C463.546 193.52 463.665 191.155 465.188 189.783C466.722 188.401 469.076 188.519 470.448 190.053Z" fill="#DFDEF7"/>
<path d="M23.8568 148.689C23.0576 148.851 22.2692 149.121 21.524 149.499L19.04 146.745L16.0268 149.467L18.4028 152.102C17.852 152.825 17.42 153.614 17.1176 154.435L12.9704 154.219L12.7544 158.279L16.5776 158.474C16.6856 159.608 16.9988 160.731 17.528 161.779L14.774 164.263L17.4956 167.276L20.1308 164.9C20.9948 165.559 21.9452 166.034 22.9388 166.347L22.7552 169.781L26.816 169.987L26.9888 166.66C28.1876 166.487 29.354 166.077 30.4124 165.418L32.7884 168.053L35.8016 165.332L33.3176 162.578C33.7712 161.876 34.1276 161.12 34.3652 160.342L38.2856 160.547L38.5016 156.487L34.7 156.292C34.5272 155.093 34.1168 153.927 33.458 152.869L36.0932 150.493L33.3716 147.479L30.6176 149.963C29.7752 149.413 28.8572 149.013 27.9068 148.775L28.1012 144.974L24.0404 144.758L23.8568 148.689ZM28.436 155.147C29.8076 156.67 29.6888 159.035 28.166 160.407C26.6432 161.779 24.278 161.66 22.9064 160.137C21.5348 158.614 21.6536 156.249 23.1764 154.877C24.6992 153.495 27.0536 153.614 28.436 155.147Z" fill="#DFDEF7"/>
<path d="M237.513 422.08C368.366 422.08 474.444 414.218 474.444 404.519C474.444 394.821 368.366 386.958 237.513 386.958C106.66 386.958 0.583008 394.821 0.583008 404.519C0.583008 414.218 106.66 422.08 237.513 422.08Z" fill="#DFDEF7"/>
<path d="M467.23 139.822C470.75 139.822 473.623 142.695 473.623 146.216C473.623 149.736 470.75 152.609 467.23 152.609C463.709 152.609 460.836 149.736 460.836 146.216C460.836 142.695 463.698 139.822 467.23 139.822ZM467.23 150.6C469.649 150.6 471.614 148.635 471.614 146.216C471.614 143.796 469.649 141.831 467.23 141.831C464.81 141.831 462.845 143.796 462.845 146.216C462.834 148.635 464.81 150.6 467.23 150.6Z" fill="#9491FF"/>
<path d="M439.063 121.149C442.584 121.149 445.457 124.021 445.457 127.542C445.457 131.063 442.584 133.936 439.063 133.936C435.542 133.936 432.669 131.063 432.669 127.542C432.669 124.021 435.531 121.149 439.063 121.149ZM439.063 131.938C441.482 131.938 443.448 129.972 443.448 127.553C443.448 125.134 441.482 123.168 439.063 123.168C436.644 123.168 434.678 125.134 434.678 127.553C434.678 129.961 436.644 131.938 439.063 131.938Z" fill="#605BFF"/>
<path d="M436.233 103.426C436.784 103.426 437.238 103.88 437.238 104.43V108.858C437.238 109.409 436.784 109.863 436.233 109.863C435.683 109.863 435.229 109.409 435.229 108.858V104.43C435.24 103.869 435.683 103.426 436.233 103.426Z" fill="#9491FF"/>
<path d="M436.233 95.6824C436.784 95.6824 437.238 96.136 437.238 96.6868V101.115C437.238 101.666 436.784 102.119 436.233 102.119C435.683 102.119 435.229 101.666 435.229 101.115V96.6868C435.24 96.1252 435.683 95.6824 436.233 95.6824Z" fill="#9491FF"/>
<path d="M430.034 101.763H434.009C434.559 101.763 435.013 102.216 435.013 102.767C435.013 103.318 434.559 103.771 434.009 103.771H430.034C429.483 103.771 429.03 103.318 429.03 102.767C429.03 102.216 429.473 101.763 430.034 101.763Z" fill="#9491FF"/>
<path d="M438.469 101.763H442.444C442.994 101.763 443.448 102.216 443.448 102.767C443.448 103.318 442.994 103.771 442.444 103.771H438.469C437.918 103.771 437.465 103.318 437.465 102.767C437.476 102.216 437.918 101.763 438.469 101.763Z" fill="#9491FF"/>
<path d="M470.869 120.112C471.42 120.112 471.874 120.566 471.874 121.116V125.544C471.874 126.095 471.42 126.549 470.869 126.549C470.318 126.549 469.865 126.095 469.865 125.544V121.116C469.865 120.566 470.318 120.112 470.869 120.112Z" fill="#9491FF"/>
<path d="M470.869 112.379C471.42 112.379 471.874 112.833 471.874 113.384V117.801C471.874 118.352 471.42 118.805 470.869 118.805C470.318 118.805 469.865 118.352 469.865 117.801V113.384C469.865 112.822 470.318 112.379 470.869 112.379Z" fill="#9491FF"/>
<path d="M464.659 118.459H468.634C469.184 118.459 469.638 118.913 469.638 119.464C469.638 120.015 469.184 120.468 468.634 120.468H464.659C464.108 120.468 463.655 120.015 463.655 119.464C463.666 118.902 464.108 118.459 464.659 118.459Z" fill="#9491FF"/>
<path d="M473.105 118.459H477.079C477.63 118.459 478.084 118.913 478.084 119.464C478.084 120.015 477.63 120.468 477.079 120.468H473.105C472.554 120.468 472.101 120.015 472.101 119.464C472.101 118.902 472.554 118.459 473.105 118.459Z" fill="#9491FF"/>
<path d="M87.0264 51.8885C83.5056 51.8885 80.6328 49.0157 80.6328 45.4949C80.6328 41.9741 83.5056 39.1013 87.0264 39.1013C90.5472 39.1013 93.42 41.9741 93.42 45.4949C93.42 49.0265 90.558 51.8885 87.0264 51.8885ZM87.0264 49.8797C89.4456 49.8797 91.4112 47.9141 91.4112 45.4949C91.4112 43.0757 89.4456 41.1101 87.0264 41.1101C84.6072 41.1101 82.6416 43.0757 82.6416 45.4949C82.6416 47.9141 84.6072 49.8797 87.0264 49.8797Z" fill="#9491FF"/>
<path d="M106.758 70.7884C103.237 70.7884 100.364 67.9156 100.364 64.3948C100.364 60.874 103.237 58.0012 106.758 58.0012C110.279 58.0012 113.151 60.874 113.151 64.3948C113.151 67.9264 110.279 70.7884 106.758 70.7884ZM106.758 68.7904C109.177 68.7904 111.143 66.8248 111.143 64.4056C111.143 61.9864 109.177 60.0208 106.758 60.0208C104.339 60.0208 102.373 61.9864 102.373 64.4056C102.362 66.814 104.339 68.7904 106.758 68.7904Z" fill="#605BFF"/>
<path d="M126.857 46.0996C126.857 45.5488 126.403 45.0952 125.852 45.0952H121.424C120.874 45.0952 120.42 45.5488 120.42 46.0996C120.42 46.6504 120.874 47.104 121.424 47.104H125.852C126.414 47.104 126.857 46.6504 126.857 46.0996Z" fill="#9491FF"/>
<path d="M134.6 46.0996C134.6 45.5488 134.147 45.0952 133.596 45.0952H129.179C128.628 45.0952 128.174 45.5488 128.174 46.0996C128.174 46.6504 128.628 47.104 129.179 47.104H133.596C134.147 47.104 134.6 46.6504 134.6 46.0996Z" fill="#9491FF"/>
<path d="M128.52 52.3096V48.3352C128.52 47.7844 128.066 47.3308 127.516 47.3308C126.965 47.3308 126.511 47.7844 126.511 48.3352V52.3096C126.511 52.8604 126.965 53.314 127.516 53.314C128.066 53.314 128.52 52.8604 128.52 52.3096Z" fill="#9491FF"/>
<path d="M128.52 43.864V39.8897C128.52 39.3389 128.066 38.8853 127.516 38.8853C126.965 38.8853 126.511 39.3389 126.511 39.8897V43.864C126.511 44.4148 126.965 44.8684 127.516 44.8684C128.066 44.8684 128.52 44.4148 128.52 43.864Z" fill="#9491FF"/>
<path d="M72.1438 69.3303C72.1438 68.7795 71.6902 68.3259 71.1394 68.3259H66.7222C66.1714 68.3259 65.7178 68.7795 65.7178 69.3303C65.7178 69.8811 66.1714 70.3347 66.7222 70.3347H71.1394C71.6902 70.3347 72.1438 69.8811 72.1438 69.3303Z" fill="#9491FF"/>
<path d="M79.8874 69.3303C79.8874 68.7795 79.4338 68.3259 78.883 68.3259H74.4658C73.915 68.3259 73.4614 68.7795 73.4614 69.3303C73.4614 69.8811 73.915 70.3347 74.4658 70.3347H78.883C79.4338 70.3347 79.8874 69.8811 79.8874 69.3303Z" fill="#9491FF"/>
<path d="M73.8071 75.5403V71.5659C73.8071 71.0151 73.3535 70.5615 72.8027 70.5615C72.2519 70.5615 71.7983 71.0151 71.7983 71.5659V75.5403C71.7983 76.0911 72.2519 76.5447 72.8027 76.5447C73.3535 76.5447 73.8071 76.0911 73.8071 75.5403Z" fill="#9491FF"/>
<path d="M73.8071 67.0948V63.1204C73.8071 62.5696 73.3535 62.116 72.8027 62.116C72.2519 62.116 71.7983 62.5696 71.7983 63.1204V67.0948C71.7983 67.6456 72.2519 68.0992 72.8027 68.0992C73.3535 68.0992 73.8071 67.6564 73.8071 67.0948Z" fill="#9491FF"/>
<path d="M274.968 381.667C293.198 367.562 311.407 351.74 322.239 339.849C336.387 324.308 343.904 310.873 344.595 299.911C344.638 299.187 344.088 298.561 343.364 298.507C342.64 298.463 342.014 299.014 341.971 299.738C340.761 318.897 316.634 346.804 272.17 380.511L274.968 381.667Z" fill="#C9C8FA"/>
<path d="M333.688 324.945C333.688 324.945 341.01 333.174 354.985 319.728C354.985 319.728 340.2 310.311 333.688 324.945Z" fill="#DFDEF7"/>
<path d="M326.84 332.246C326.84 332.246 335.469 325.388 322.823 310.689C322.823 310.7 312.595 324.934 326.84 332.246Z" fill="#DFDEF7"/>
<path d="M341.582 307.913C341.582 307.913 352.004 304.328 344.973 286.249C344.973 286.249 330.588 296.271 341.582 307.913Z" fill="#DFDEF7"/>
<path d="M313.535 347.366C313.535 347.366 317.649 357.593 335.34 349.666C335.329 349.666 324.605 335.799 313.535 347.366Z" fill="#DFDEF7"/>
<path d="M305.435 353.748C305.435 353.748 315.122 348.489 305.197 331.824C305.197 331.835 292.658 344.082 305.435 353.748Z" fill="#DFDEF7"/>
<path d="M295.218 363.598C295.218 363.598 299.138 373.901 316.969 366.309C316.969 366.309 306.504 352.237 295.218 363.598Z" fill="#DFDEF7"/>
<path d="M96.0654 261.052C82.9542 242.098 70.3722 221.513 63.6438 206.901C54.8526 187.817 51.7422 172.73 54.399 162.081C54.5718 161.379 55.2954 160.947 55.9974 161.12C56.6994 161.293 57.1314 162.016 56.9586 162.718C52.3146 181.348 66.8838 215.239 99.0894 260.804L96.0654 261.052Z" fill="#C9C8FA"/>
<path d="M57.2287 189.243C57.2287 189.243 47.7571 194.881 38.5015 177.838C38.5015 177.838 55.4467 173.324 57.2287 189.243Z" fill="#DFDEF7"/>
<path d="M61.5487 198.272C61.5487 198.272 55.3927 189.124 71.8951 178.94C71.8951 178.94 77.3383 195.604 61.5487 198.272Z" fill="#DFDEF7"/>
<path d="M54.8528 170.624C54.8528 170.624 46.0076 164.057 58.1576 148.948C58.1576 148.948 68.8496 162.837 54.8528 170.624Z" fill="#DFDEF7"/>
<path d="M69.6702 216.707C69.6702 216.707 62.661 225.218 48.189 212.312C48.189 212.312 62.607 202.332 69.6702 216.707Z" fill="#DFDEF7"/>
<path d="M75.4592 225.239C75.4592 225.239 67.8236 217.301 82.3063 204.406C82.3063 204.417 90.5575 219.883 75.4592 225.239Z" fill="#DFDEF7"/>
<path d="M82.2306 237.713C82.2306 237.713 75.3834 246.353 60.6738 233.728C60.6738 233.728 74.8974 223.479 82.2306 237.713Z" fill="#DFDEF7"/>
<path d="M345.308 70.8209C328.482 70.4321 324.01 85.9193 311.655 81.5777C299.3 77.2253 287.312 82.0097 286.113 93.5117C284.925 105.014 284.698 113.546 270.712 114.464C256.726 115.371 245.484 129.033 253.27 138.386C255.204 140.719 257.31 143.235 259.372 145.697C259.934 146.367 260.496 147.047 261.046 147.706C261.176 147.857 261.306 148.019 261.424 148.171C269.73 158.096 284.234 160.385 294.969 153.16C299.311 150.233 302.562 146.108 302.713 140.297C303.188 122.078 317.995 133.472 328.266 125.847C340.102 117.067 334.033 104.29 343.504 98.7065C356.691 90.9413 362.134 71.2097 345.308 70.8209Z" fill="#C9C8FA"/>
<path d="M332.261 88.5329L259.361 145.697C259.923 146.367 260.485 147.047 261.035 147.706L333.871 90.5849C334.443 90.1421 334.54 89.3213 334.097 88.7489C333.655 88.1873 332.834 88.0901 332.261 88.5329Z" fill="#9F9CFF"/>
<path d="M289.763 38.4425C275.021 46.5533 278.931 62.1917 266.057 64.6433C253.184 67.0841 245.213 77.2361 249.965 87.7877C254.717 98.3393 258.8 105.835 247.168 113.643C235.537 121.451 232.664 138.915 244.09 143.095C246.931 144.142 250.019 145.265 253.043 146.356C253.864 146.659 254.696 146.95 255.506 147.253C255.689 147.317 255.884 147.393 256.067 147.458C268.228 151.875 281.923 146.561 287.593 134.93C289.882 130.221 290.617 125.026 287.83 119.918C279.093 103.923 297.615 106.342 302.68 94.5917C308.512 81.0485 296.848 73.0457 302.237 63.4661C309.711 50.1173 304.516 30.3317 289.763 38.4425Z" fill="#DFDEF7"/>
<path d="M287.377 60.3017L253.043 146.345C253.864 146.648 254.696 146.939 255.506 147.242L289.807 61.2737C290.077 60.6041 289.753 59.8373 289.083 59.5781C288.413 59.3081 287.647 59.6321 287.377 60.3017Z" fill="#C9C8FA"/>
<path d="M70.0049 263.072C85.4921 269.66 83.1809 285.611 96.2381 286.745C109.285 287.879 118.238 297.178 114.587 308.14C110.926 319.113 107.621 326.986 119.987 333.574C132.353 340.162 136.976 357.248 126.014 362.561C123.292 363.89 120.333 365.315 117.439 366.709C116.65 367.087 115.862 367.475 115.084 367.842C114.901 367.929 114.728 368.015 114.544 368.102C102.891 373.718 88.7321 369.83 81.9173 358.824C79.1633 354.375 77.9105 349.277 80.1677 343.91C87.2417 327.116 69.0653 331.393 62.8445 320.204C55.6733 307.319 66.4733 298.182 60.1445 289.197C51.3425 276.701 54.5177 256.484 70.0049 263.072Z" fill="#C9C8FA"/>
<path d="M74.5946 284.585L117.438 366.719C116.65 367.097 115.861 367.486 115.084 367.853L72.2726 285.795C71.9378 285.158 72.1862 284.369 72.8234 284.034C73.4714 283.7 74.2598 283.937 74.5946 284.585Z" fill="#9F9CFF"/>
<path d="M31.7516 300.774C48.5672 301.379 52.1204 317.115 64.7132 313.497C77.306 309.89 88.9915 315.365 89.4991 326.921C90.0068 338.477 89.726 347.009 103.636 348.748C117.536 350.487 127.969 364.786 119.631 373.664C117.558 375.878 115.311 378.264 113.108 380.608C112.503 381.245 111.909 381.882 111.315 382.509C111.175 382.66 111.045 382.8 110.905 382.941C102.027 392.358 87.4147 393.784 77.1224 385.943C72.9536 382.768 69.962 378.459 70.1564 372.638C70.7612 354.418 55.3064 364.926 45.5 356.697C34.2032 347.225 41.018 334.838 31.892 328.703C19.1912 320.182 14.936 300.17 31.7516 300.774Z" fill="#DFDEF7"/>
<path d="M43.729 319.221L113.119 380.608C112.514 381.245 111.92 381.882 111.326 382.509L42.001 321.176C41.461 320.7 41.407 319.869 41.8822 319.329C42.3574 318.8 43.189 318.746 43.729 319.221Z" fill="#C9C8FA"/>
<path d="M434.7 402.435C437.346 390.35 450.435 399.162 459.788 392.218C471.625 383.438 465.555 370.661 475.027 365.078C488.203 357.312 493.646 337.581 476.82 337.192C459.993 336.803 455.522 352.29 443.167 347.949C430.812 343.596 418.824 348.381 417.625 359.883C416.437 371.385 416.21 379.917 402.224 380.835C389.361 381.666 378.81 393.298 383.27 402.435H434.7Z" fill="#C9C8FA"/>
<path d="M407.419 402.435L465.404 356.967C465.976 356.524 466.073 355.703 465.631 355.131C465.188 354.558 464.367 354.461 463.795 354.904L403.185 402.435H407.419Z" fill="#9F9CFF"/>
<path d="M418.51 402.435C418.716 402.057 418.921 401.679 419.104 401.29C421.394 396.581 422.128 391.386 419.342 386.278C410.605 370.283 429.127 372.702 434.192 360.952C440.024 347.409 428.36 339.406 433.749 329.826C441.244 316.499 436.049 296.703 421.297 304.814C406.555 312.924 410.464 328.563 397.591 331.014C384.717 333.455 376.747 343.607 381.499 354.159C386.251 364.71 390.333 372.206 378.701 380.014C370.666 385.403 366.811 395.393 368.96 402.446H418.51V402.435Z" fill="#DFDEF7"/>
<path d="M391.478 402.435L421.318 327.645C421.588 326.975 421.264 326.208 420.595 325.949C419.925 325.679 419.158 326.003 418.899 326.673L388.67 402.435H391.478Z" fill="#C9C8FA"/>
<path d="M286.384 404.271H98.3988C94.5324 404.271 91.4004 401.139 91.4004 397.273V122.909C91.4004 119.043 94.5324 115.911 98.3988 115.911H286.384C290.25 115.911 293.382 119.043 293.382 122.909V397.262C293.382 401.128 290.25 404.271 286.384 404.271Z" fill="#18184B"/>
<path d="M271.933 387.542H112.849C108.983 387.542 105.851 384.41 105.851 380.543V98.1341C105.851 94.2677 108.983 91.1357 112.849 91.1357H271.933C275.8 91.1357 278.932 94.2677 278.932 98.1341V380.543C278.932 384.41 275.8 387.542 271.933 387.542Z" fill="#304E7E"/>
<path d="M128.196 91.1249H256.575C256.575 88.7705 254.664 86.8589 252.309 86.8589H132.473C130.107 86.8589 128.196 88.7705 128.196 91.1249Z" fill="#18184B"/>
<path d="M250.495 375.705H134.277C133.553 375.705 132.959 375.111 132.959 374.387V372.864C132.959 372.141 133.553 371.547 134.277 371.547H250.495C251.219 371.547 251.813 372.141 251.813 372.864V374.387C251.813 375.122 251.23 375.705 250.495 375.705Z" fill="#18184B"/>
<path d="M261.274 121.602V195.074C261.274 198.293 258.66 200.906 255.442 200.906H129.341C128.704 200.906 128.088 200.809 127.516 200.615C125.183 199.848 123.509 197.655 123.509 195.074V121.602C123.509 118.383 126.122 115.781 129.341 115.781H255.442C258.66 115.77 261.274 118.383 261.274 121.602Z" fill="#DFDEF7"/>
<path opacity="0.4" d="M249.394 115.771L164.268 200.896H129.33C128.693 200.896 128.077 200.799 127.505 200.604L212.339 115.771H249.394Z" fill="white"/>
<path opacity="0.4" d="M176.947 115.771L123.509 169.209V157.016L164.754 115.771H176.947Z" fill="white"/>
<path opacity="0.4" d="M261.274 147.566V159.748L220.126 200.896H207.933L261.274 147.566Z" fill="white"/>
<path d="M156.373 221.092H128.552C125.615 221.092 123.228 218.705 123.228 215.768C123.228 212.83 125.615 210.443 128.552 210.443H156.373C159.311 210.443 161.698 212.83 161.698 215.768C161.698 218.705 159.311 221.092 156.373 221.092Z" fill="#DFDEF7"/>
<path d="M206.301 221.092H178.481C175.543 221.092 173.156 218.705 173.156 215.768C173.156 212.83 175.543 210.443 178.481 210.443H206.301C209.239 210.443 211.626 212.83 211.626 215.768C211.615 218.705 209.239 221.092 206.301 221.092Z" fill="#DFDEF7"/>
<path d="M256.219 221.092H228.398C225.461 221.092 223.074 218.705 223.074 215.768C223.074 212.83 225.461 210.443 228.398 210.443H256.219C259.157 210.443 261.543 212.83 261.543 215.768C261.543 218.705 259.157 221.092 256.219 221.092Z" fill="#DFDEF7"/>
<path d="M158.382 254.831H124.956C123.304 254.831 121.975 253.352 121.975 251.527V235.456C121.975 233.631 123.314 232.151 124.956 232.151H158.382C160.034 232.151 161.363 233.631 161.363 235.456V251.527C161.363 253.352 160.024 254.831 158.382 254.831Z" fill="#DFDEF7"/>
<path d="M209.099 254.831H175.673C174.02 254.831 172.692 253.352 172.692 251.527V235.456C172.692 233.631 174.031 232.151 175.673 232.151H209.099C210.751 232.151 212.079 233.631 212.079 235.456V251.527C212.09 253.352 210.751 254.831 209.099 254.831Z" fill="#DFDEF7"/>
<path d="M259.826 254.831H226.4C224.748 254.831 223.419 253.352 223.419 251.527V235.456C223.419 233.631 224.759 232.151 226.4 232.151H259.826C261.479 232.151 262.807 233.631 262.807 235.456V251.527C262.818 253.352 261.479 254.831 259.826 254.831Z" fill="#DFDEF7"/>
<path d="M158.382 290.471H124.956C123.304 290.471 121.975 288.992 121.975 287.166V271.096C121.975 269.271 123.314 267.791 124.956 267.791H158.382C160.034 267.791 161.363 269.271 161.363 271.096V287.166C161.363 288.992 160.024 290.471 158.382 290.471Z" fill="#DFDEF7"/>
<path d="M209.099 290.471H175.673C174.02 290.471 172.692 288.992 172.692 287.166V271.096C172.692 269.271 174.031 267.791 175.673 267.791H209.099C210.751 267.791 212.079 269.271 212.079 271.096V287.166C212.09 288.992 210.751 290.471 209.099 290.471Z" fill="#DFDEF7"/>
<path d="M259.826 290.471H226.4C224.748 290.471 223.419 288.992 223.419 287.166V271.096C223.419 269.271 224.759 267.791 226.4 267.791H259.826C261.479 267.791 262.807 269.271 262.807 271.096V287.166C262.818 288.992 261.479 290.471 259.826 290.471Z" fill="#DFDEF7"/>
<path d="M158.382 326.101H124.956C123.304 326.101 121.975 324.621 121.975 322.796V306.725C121.975 304.9 123.314 303.421 124.956 303.421H158.382C160.034 303.421 161.363 304.9 161.363 306.725V322.796C161.363 324.621 160.024 326.101 158.382 326.101Z" fill="#DFDEF7"/>
<path d="M209.099 326.101H175.673C174.02 326.101 172.692 324.621 172.692 322.796V306.725C172.692 304.9 174.031 303.421 175.673 303.421H209.099C210.751 303.421 212.079 304.9 212.079 306.725V322.796C212.09 324.621 210.751 326.101 209.099 326.101Z" fill="#DFDEF7"/>
<path d="M259.826 326.101H226.4C224.748 326.101 223.419 324.621 223.419 322.796V306.725C223.419 304.9 224.759 303.421 226.4 303.421H259.826C261.479 303.421 262.807 304.9 262.807 306.725V322.796C262.818 324.621 261.479 326.101 259.826 326.101Z" fill="#DFDEF7"/>
<path d="M158.382 361.039H124.956C123.304 361.039 121.975 359.559 121.975 357.734V341.663C121.975 339.838 123.314 338.359 124.956 338.359H158.382C160.034 338.359 161.363 339.838 161.363 341.663V357.734C161.363 359.559 160.024 361.039 158.382 361.039Z" fill="#605BFF"/>
<path d="M209.099 361.039H175.673C174.02 361.039 172.692 359.559 172.692 357.734V341.663C172.692 339.838 174.031 338.359 175.673 338.359H209.099C210.751 338.359 212.079 339.838 212.079 341.663V357.734C212.09 359.559 210.751 361.039 209.099 361.039Z" fill="#9491FF"/>
<path d="M259.826 361.039H226.4C224.748 361.039 223.419 359.559 223.419 357.734V341.663C223.419 339.838 224.759 338.359 226.4 338.359H259.826C261.479 338.359 262.807 339.838 262.807 341.663V357.734C262.818 359.559 261.479 361.039 259.826 361.039Z" fill="#605BFF"/>
<path d="M432.388 367.367L439.527 376.99C439.527 376.99 438.09 381.191 432.561 384.323L424.018 373.243L432.388 367.367Z" fill="#FDA893"/>
<path d="M433.846 381.429C433.846 381.429 430.423 380.641 429.213 381.753C428.014 382.865 424.699 398.363 421.858 401.701C419.018 405.038 421.761 406.917 423.446 407.641C425.131 408.364 450.046 385.511 450.046 385.511C450.046 385.511 444.203 377.368 441.331 375.748C438.469 374.128 436.978 379.852 433.846 381.429Z" fill="#605BFF"/>
<path d="M433.08 390.026C433.231 389.972 433.36 389.853 433.414 389.691C433.533 389.389 433.382 389.043 433.069 388.924C432.961 388.881 430.455 387.952 428.479 388.363C425.854 388.903 425.25 391.052 425.228 391.138C425.142 391.451 425.336 391.775 425.671 391.862C425.995 391.948 426.33 391.754 426.416 391.441C426.438 391.387 426.87 389.907 428.738 389.518C430.347 389.183 432.594 390.015 432.615 390.026C432.777 390.091 432.939 390.08 433.08 390.026Z" fill="white"/>
<path d="M433.425 387.628C433.576 387.574 433.695 387.455 433.76 387.293C433.879 386.991 433.728 386.645 433.414 386.527C433.306 386.483 430.801 385.555 428.824 385.965C426.189 386.505 425.595 388.654 425.574 388.741C425.487 389.054 425.682 389.378 426.016 389.464C426.34 389.551 426.675 389.356 426.762 389.043C426.783 388.989 427.215 387.509 429.084 387.121C430.704 386.786 432.939 387.617 432.961 387.628C433.112 387.682 433.274 387.682 433.425 387.628Z" fill="white"/>
<path d="M432.043 392.575C432.194 392.521 432.324 392.402 432.378 392.24C432.496 391.937 432.345 391.592 432.032 391.473C431.924 391.43 429.418 390.501 427.442 390.911C424.807 391.451 424.213 393.601 424.191 393.687C424.105 394 424.31 394.324 424.634 394.411C424.958 394.497 425.293 394.303 425.379 393.989C425.401 393.935 425.833 392.456 427.701 392.067C429.321 391.732 431.557 392.564 431.578 392.575C431.73 392.639 431.892 392.629 432.043 392.575Z" fill="white"/>
<path d="M388.854 237.865L394.048 301.077C394.048 301.077 402.516 311.65 408.607 323.368C413.715 333.207 435.618 368.447 435.618 368.447L424.558 377.077L369.37 312.201L358.57 236.525L388.854 237.865Z" fill="#16162F"/>
<path d="M374.544 383.448L373.68 395.706C373.68 395.706 369.792 398.158 363.452 397.164L364.197 382.844L374.544 383.448Z" fill="#FDA893"/>
<path d="M365.645 395.393C365.645 395.393 363.431 392.456 361.692 392.596C359.953 392.736 346.572 403.504 341.971 404.411C337.37 405.318 338.288 408.71 339.141 410.438C339.995 412.166 375.721 410.438 375.721 410.438C375.721 410.438 376.801 398.871 375.613 395.609C374.414 392.348 369.252 396.138 365.645 395.393Z" fill="#605BFF"/>
<path d="M358.819 401.819C358.97 401.873 359.143 401.862 359.305 401.787C359.607 401.636 359.726 401.258 359.575 400.955C359.521 400.858 358.279 398.471 356.519 397.489C354.175 396.171 352.242 397.456 352.166 397.51C351.885 397.705 351.81 398.083 352.004 398.363C352.199 398.644 352.577 398.72 352.857 398.525C352.911 398.493 354.251 397.629 355.925 398.569C357.361 399.368 358.473 401.506 358.484 401.528C358.549 401.668 358.679 401.765 358.819 401.819Z" fill="white"/>
<path d="M360.72 400.167C360.871 400.221 361.044 400.21 361.206 400.134C361.508 399.983 361.627 399.605 361.476 399.303C361.422 399.206 360.18 396.819 358.419 395.836C356.076 394.518 354.143 395.804 354.067 395.858C353.786 396.052 353.711 396.43 353.905 396.711C354.099 396.992 354.477 397.067 354.758 396.873C354.812 396.84 356.151 395.976 357.825 396.905C359.273 397.715 360.374 399.843 360.385 399.864C360.45 400.016 360.579 400.113 360.72 400.167Z" fill="white"/>
<path d="M356.281 403.115C356.432 403.169 356.605 403.158 356.767 403.083C357.069 402.932 357.188 402.554 357.037 402.251C356.983 402.154 355.741 399.767 353.981 398.784C351.637 397.467 349.704 398.752 349.628 398.806C349.347 399 349.272 399.378 349.466 399.659C349.661 399.94 350.039 400.016 350.319 399.821C350.373 399.789 351.712 398.925 353.387 399.854C354.834 400.664 355.935 402.791 355.946 402.813C356.011 402.964 356.13 403.061 356.281 403.115Z" fill="white"/>
<path d="M423.306 240.478C423.306 240.478 408.974 287.285 391.165 312.309C391.165 312.309 388.022 336.976 383.335 350.044C381.272 355.757 375.602 389.972 375.602 389.972L373.486 389.615L372.233 389.399L362.858 387.822L368.96 306.228L391.144 242.195L417.928 240.748L419.353 240.683L423.306 240.478Z" fill="#2A3554"/>
<path d="M419.353 240.694L388.39 312.276C388.379 312.363 383.562 331.879 380.786 345.616C378.302 357.831 374.598 379.128 373.496 389.615L372.244 389.399C373.367 378.815 376.996 357.874 379.534 345.368C382.32 331.619 387.148 312.082 387.191 311.877L417.928 240.77L419.353 240.694Z" fill="#16162F"/>
<path d="M352.533 133.493L338.202 161.8L353.365 160.483C353.354 160.493 354.801 143.354 352.533 133.493Z" fill="#605BFF"/>
<path d="M424.666 242.098C417.117 244.863 409.503 246.893 401.824 248.189C401.468 248.243 401.122 248.308 400.777 248.362C400.593 248.395 400.399 248.416 400.215 248.449C399.805 248.513 399.383 248.578 398.984 248.632C398.519 248.697 398.066 248.762 397.601 248.827C392.363 249.529 387.093 249.885 381.79 249.917C380.71 249.917 379.652 249.907 378.572 249.885H378.367C378.097 249.874 377.827 249.874 377.546 249.863C377.384 249.853 377.222 249.853 377.06 249.842C370.871 249.647 364.64 248.978 358.376 247.865C358.236 246.483 358.052 244.431 357.825 241.85C357.782 241.364 357.739 240.867 357.706 240.349C357.382 236.655 357.004 232.043 356.594 226.838C356.561 226.395 356.529 225.941 356.486 225.488C356.216 222.021 355.924 218.317 355.644 214.439C355.611 213.986 355.568 213.543 355.536 213.089C355.244 209.115 354.942 204.989 354.65 200.799C354.466 198.239 354.294 195.658 354.121 193.077C353.948 190.453 353.775 187.828 353.613 185.225C353.581 184.653 353.538 184.091 353.505 183.519C351.972 158.863 351.043 136.161 352.533 133.493C353.57 131.647 356.119 129.357 359.143 127.013C359.521 126.722 359.888 126.441 360.277 126.149C361.573 125.177 372.384 120.425 373.734 119.464L385.441 117.617C385.516 117.661 397.105 120.479 397.191 120.512C397.699 120.749 398.206 120.976 398.714 121.225C403.099 123.266 407.429 125.437 410 127.424C410.367 127.705 410.702 127.985 410.993 128.266C411.231 128.493 411.436 128.709 411.609 128.925C411.76 129.119 411.933 129.454 412.106 129.929C413.985 134.984 416.501 155.266 418.802 177.385C418.856 177.914 418.899 178.443 418.964 178.972C419.018 179.501 419.072 180.031 419.126 180.56C419.18 181.1 419.234 181.629 419.288 182.158C419.353 182.86 419.428 183.562 419.504 184.275C419.547 184.75 419.601 185.247 419.644 185.722C419.666 185.971 419.687 186.208 419.72 186.446C419.741 186.619 419.752 186.802 419.774 186.975C419.871 188.001 419.968 189.027 420.065 190.053C420.163 190.939 420.249 191.813 420.335 192.699C421.167 201.393 421.945 209.893 422.603 217.399C422.798 219.526 422.981 221.567 423.143 223.511C423.176 223.954 423.219 224.408 423.251 224.84C423.932 232.843 424.439 239.053 424.666 242.098Z" fill="#9491FF"/>
<path d="M422.604 217.399C412.808 231.547 400.507 241.699 400.507 241.699L397.667 221.373C401.63 213.37 410.821 196.015 418.964 178.972C419.018 179.501 419.072 180.031 419.126 180.56C419.18 181.1 419.234 181.629 419.288 182.158C419.353 182.86 419.429 183.562 419.504 184.275C419.547 184.75 419.601 185.247 419.645 185.722C419.666 185.971 419.688 186.208 419.72 186.446C419.742 186.619 419.753 186.802 419.774 186.975C419.871 188.001 419.969 189.027 420.066 190.053C420.163 190.939 420.249 191.813 420.336 192.699C421.167 201.393 421.945 209.893 422.604 217.399Z" fill="#605BFF"/>
<path d="M372.027 154.24L358.462 154.629C358.462 154.629 359.38 171.056 366.519 169.922C373.658 168.788 372.027 154.24 372.027 154.24Z" fill="#605BFF"/>
<path d="M408.888 224.03C396.155 225.077 384.793 220.239 377.503 215.984C369.619 211.383 364.651 206.469 364.608 206.415C364.37 206.177 364.37 205.789 364.608 205.551C364.845 205.313 365.234 205.313 365.472 205.551C365.515 205.594 370.397 210.422 378.151 214.947C385.279 219.105 396.392 223.835 408.78 222.809C409.115 222.777 409.417 223.036 409.439 223.371C409.471 223.706 409.223 223.997 408.888 224.03Z" fill="#605BFF"/>
<path d="M396.003 229.505C384.965 230.466 373.409 225.131 372.88 224.883C372.578 224.743 372.437 224.375 372.589 224.062C372.729 223.76 373.096 223.619 373.409 223.771C373.55 223.835 387.147 230.11 398.53 227.918C398.865 227.853 399.189 228.069 399.254 228.404C399.319 228.738 399.103 229.062 398.768 229.127C397.839 229.3 396.921 229.419 396.003 229.505Z" fill="#605BFF"/>
<path d="M376.315 211.037L383.67 228.425L390.366 211.707L382.352 141.939L382.05 139.304L378.875 139.142L378.745 142.727L376.315 211.037Z" fill="white"/>
<path d="M378.745 142.727L380.419 144.477L382.352 141.939L382.05 139.304L378.875 139.142L378.745 142.727Z" fill="#EDEDED"/>
<path d="M385.765 135.243L380.117 141.809L375.483 134.703L378.885 127.553L385.765 135.243Z" fill="white"/>
<path d="M387.136 116.807L389.016 117.92C389.534 118.222 390.042 118.546 390.528 118.903C391.986 119.983 392.536 120.76 392.364 122.899C392.342 123.223 392.288 123.514 392.234 123.741L390.268 140.265L378.885 127.543C378.885 127.553 386.056 124.27 387.136 116.807Z" fill="#605BFF"/>
<path d="M373.734 118.633C373.734 118.633 369.435 123.471 371.271 128.633L374.187 137.425L378.885 127.543C378.885 127.553 374.727 125.501 373.734 118.633Z" fill="#605BFF"/>
<path d="M395.053 86.4054C395.938 96.633 390.258 104.236 380.03 105.122C369.802 106.007 362.016 99.0522 361.13 88.8246C360.244 78.5969 365.623 70.3242 375.85 69.4278C388.119 68.3586 394.167 76.1778 395.053 86.4054Z" fill="#1D3062"/>
<path d="M394.426 92.6261C394.426 92.6261 396.435 89.7425 395.55 82.8629C394.664 75.9833 392.158 74.2229 392.158 74.2229C392.158 74.2229 394.632 69.0281 391.824 67.8077C389.005 66.5873 386.812 68.2397 386.812 68.2397C386.812 68.2397 388.508 65.0213 386.51 64.7513C384.512 64.4813 381.844 66.5441 381.844 66.5441C381.844 66.5441 367.426 62.5265 363.333 65.9609C359.24 69.3953 362.934 78.2297 364.176 79.1477L394.426 92.6261Z" fill="#1D3062"/>
<path d="M393.141 91.0168C393.141 91.0168 395.657 86.9776 398.044 89.926C400.431 92.8744 398.249 102.389 392.871 100.586L393.141 91.0168Z" fill="#FB876B"/>
<path d="M393.746 97.6265C393.94 97.6049 394.102 97.4645 394.134 97.2701C394.685 94.3433 397.547 92.9285 397.58 92.9177C397.796 92.8097 397.893 92.5505 397.785 92.3345C397.677 92.1185 397.418 92.0213 397.202 92.1293C397.072 92.1941 393.918 93.7385 393.281 97.1189C393.238 97.3565 393.389 97.5833 393.627 97.6265C393.67 97.6265 393.713 97.6265 393.746 97.6265Z" fill="#D45C48"/>
<path d="M396.608 95.92C396.694 95.9092 396.77 95.8876 396.835 95.8336C397.029 95.6824 397.061 95.4124 396.91 95.218C396.889 95.1856 396.295 94.4296 395.15 94.0408C394.923 93.9652 394.675 94.084 394.588 94.3108C394.513 94.5376 394.631 94.786 394.858 94.8724C395.744 95.1748 396.208 95.758 396.208 95.758C396.316 95.8768 396.467 95.9416 396.608 95.92Z" fill="#D45C48"/>
<path d="M363.852 93.5549C363.852 93.5549 360.676 90.0125 358.84 93.3282C357.004 96.6438 360.795 105.64 365.774 102.929L363.852 93.5549Z" fill="#FB876B"/>
<path d="M364.391 100.175C364.197 100.197 364.013 100.078 363.938 99.8944C362.89 97.108 359.823 96.2008 359.801 96.2008C359.564 96.136 359.434 95.8876 359.499 95.6608C359.564 95.4232 359.812 95.2936 360.039 95.3584C360.179 95.4016 363.549 96.3844 364.759 99.592C364.845 99.8188 364.726 100.067 364.499 100.154C364.467 100.164 364.424 100.175 364.391 100.175Z" fill="#D45C48"/>
<path d="M361.27 98.9981C361.184 99.0089 361.108 98.9873 361.033 98.9441C360.817 98.8361 360.741 98.5661 360.849 98.3501C360.871 98.3177 361.324 97.4753 362.372 96.8813C362.577 96.7625 362.847 96.8381 362.966 97.0541C363.085 97.2701 363.009 97.5293 362.793 97.6481C361.983 98.1017 361.616 98.7497 361.616 98.7605C361.551 98.9009 361.422 98.9873 361.27 98.9981Z" fill="#D45C48"/>
<path d="M372.999 110.219L373.798 119.421C373.798 119.421 373.312 128.147 380.311 127.478C384.026 127.121 387.341 119.216 387.341 119.216L386.51 109.69L372.999 110.219Z" fill="#FBA691"/>
<path d="M372.999 110.219L373.355 114.302C376.088 116.851 380.57 117.153 387.028 115.619L386.51 109.69L372.999 110.219Z" fill="#FB876B"/>
<path d="M361.249 87.4205C361.735 90.9845 362.458 95.4233 363.452 98.9441C363.7 99.8189 363.97 100.64 364.24 101.374C366.768 107.984 372.621 119.194 385.765 113.179C391.564 110.522 393.768 103.61 394.416 96.7085C394.858 92.0321 394.578 87.3557 394.221 84.0401C393.865 80.6489 391.737 77.7005 388.638 76.2857C380.235 72.4409 371.941 74.8709 366.562 77.4953C362.836 79.3097 360.687 83.3165 361.249 87.4205Z" fill="#FBA691"/>
<path d="M383.529 92.3885C383.615 93.3713 384.188 94.1273 384.814 94.0733C385.441 94.0193 385.873 93.1769 385.786 92.1941C385.7 91.2113 385.128 90.4553 384.501 90.5093C383.886 90.5741 383.453 91.4057 383.529 92.3885Z" fill="#1D3062"/>
<path d="M370.418 93.5333C370.505 94.5161 371.077 95.2721 371.703 95.2181C372.33 95.1641 372.762 94.3217 372.675 93.3389C372.589 92.3561 372.017 91.6001 371.39 91.6541C370.764 91.7081 370.332 92.5505 370.418 93.5333Z" fill="#1D3062"/>
<path d="M367.945 87.5933C367.945 87.5933 371.39 85.8761 374.241 86.8265L374.101 88.3817C374.101 88.3817 370.04 88.3925 368.074 89.3861C367.837 88.8137 367.761 88.2197 367.945 87.5933Z" fill="#1D3062"/>
<path d="M388.735 85.7896C388.735 85.7896 385.041 84.688 382.395 86.1136L382.805 87.6148C382.805 87.6148 386.812 86.9236 388.907 87.5716C389.037 86.9668 389.015 86.3728 388.735 85.7896Z" fill="#1D3062"/>
<path d="M378.766 100.575C379.5 100.596 380.246 100.337 380.364 100.294C380.591 100.208 380.71 99.9593 380.624 99.7325C380.537 99.5057 380.289 99.3869 380.062 99.4733C379.662 99.6245 378.701 99.8405 378.302 99.5813C378.226 99.5273 378.118 99.4301 378.096 99.1601C377.988 97.6265 378.593 92.5073 378.593 92.4533C378.626 92.2157 378.453 91.9997 378.204 91.9673C377.967 91.9349 377.751 92.1077 377.718 92.3561C377.697 92.5721 377.103 97.6049 377.211 99.2249C377.254 99.8297 377.556 100.154 377.816 100.316C378.096 100.499 378.431 100.564 378.766 100.575Z" fill="#FB876B"/>
<path d="M384.976 102.681C384.771 104.506 383.875 107.919 379.879 108.264C375.872 108.61 374.479 105.683 373.917 103.642L384.976 102.681Z" fill="white"/>
<path d="M380.441 110.954C379.307 111.051 378.302 110.565 378.259 110.543C378.043 110.435 377.957 110.176 378.065 109.96C378.173 109.744 378.432 109.658 378.648 109.766C378.659 109.766 379.49 110.165 380.365 110.09C381.175 110.014 381.909 109.485 381.92 109.485C382.115 109.345 382.385 109.377 382.536 109.571C382.676 109.766 382.644 110.036 382.449 110.187C382.406 110.198 381.51 110.857 380.441 110.954Z" fill="#FB876B"/>
<path d="M362.264 93.7709L364.24 93.5981C363.851 91.6325 364.359 89.1593 364.823 87.5069C365.86 83.7593 362.836 82.4093 365.018 80.3789C367.189 78.3485 373.064 78.6293 377.081 78.1541C381.131 77.6681 387.654 77.1605 389.274 77.3873C390.894 77.6141 390.257 80.3249 389.847 82.4201C389.436 84.5045 392.169 86.5457 392.774 88.6193C392.946 89.2133 393 90.1205 392.99 91.1033L394.642 90.9629C394.61 88.3709 394.437 85.9841 394.232 84.0401C393.875 80.6489 391.748 77.7005 388.648 76.2857C380.246 72.4409 371.951 74.8709 366.573 77.4953C362.836 79.3097 360.698 83.3165 361.259 87.4205C361.508 89.3753 361.853 91.5893 362.264 93.7709Z" fill="#1D3062"/>
<path d="M371.973 99.7C369.165 99.9484 366.692 97.864 366.443 95.056C366.195 92.248 368.279 89.7748 371.087 89.5264C373.895 89.278 376.369 91.3624 376.617 94.1704C376.855 96.9784 374.77 99.4516 371.973 99.7ZM371.152 90.3256C368.787 90.5308 367.027 92.626 367.232 94.9912C367.437 97.3564 369.532 99.1168 371.897 98.9116C374.263 98.7064 376.023 96.6112 375.818 94.246C375.613 91.87 373.517 90.1204 371.152 90.3256Z" fill="white"/>
<path d="M385.873 98.4905C383.065 98.7389 380.592 96.6545 380.343 93.8465C380.095 91.0386 382.179 88.5654 384.987 88.317C387.795 88.0686 390.268 90.1529 390.517 92.9609C390.754 95.7689 388.67 98.2529 385.873 98.4905ZM385.052 89.1162C382.687 89.3214 380.927 91.4166 381.132 93.7818C381.337 96.1469 383.432 97.9073 385.797 97.7021C388.162 97.4969 389.923 95.4017 389.718 93.0366C389.512 90.6714 387.417 88.911 385.052 89.1162Z" fill="white"/>
<path d="M367.156 93.3388C367.059 93.3496 366.951 93.3172 366.865 93.2524C366.843 93.2308 364.338 91.1896 361.368 92.1616C361.162 92.2264 360.936 92.1184 360.871 91.9024C360.806 91.6972 360.914 91.4704 361.13 91.4056C364.521 90.2932 367.264 92.5504 367.383 92.6368C367.556 92.7772 367.578 93.0256 367.437 93.1984C367.362 93.2848 367.264 93.3388 367.156 93.3388Z" fill="white"/>
<path d="M389.599 91.3949C389.469 91.4057 389.34 91.3517 389.253 91.2437C389.113 91.0709 389.145 90.8225 389.318 90.6821C389.459 90.5741 392.861 87.9389 395.96 88.1765C396.176 88.1981 396.338 88.3817 396.327 88.6085C396.306 88.8245 396.122 88.9865 395.895 88.9757C393.098 88.7597 389.837 91.2869 389.804 91.3193C389.75 91.3625 389.675 91.3841 389.599 91.3949Z" fill="white"/>
<path d="M380.527 92.6801C380.516 92.6693 379.468 91.4813 378.226 91.5893C377.006 91.6973 376.261 93.0365 376.25 93.0581L375.548 92.6801C375.591 92.6045 376.498 90.9412 378.151 90.8008C379.803 90.6604 381.067 92.1077 381.121 92.1725L380.527 92.6801Z" fill="white"/>
<path d="M411.534 158.355L405.799 236.73C405.54 240.251 402.473 242.908 398.952 242.649L265.842 232.907C264.254 232.788 262.839 232.097 261.792 231.06C260.517 229.786 259.783 227.993 259.923 226.06L265.658 147.684C265.917 144.164 268.985 141.507 272.505 141.766L405.615 151.508C409.147 151.767 411.793 154.823 411.534 158.355Z" fill="#605BFF"/>
<path d="M264.963 157.431L263.691 174.804L409.561 185.481L410.833 168.108L264.963 157.431Z" fill="#1D3062"/>
<path d="M395.658 230.564L361.346 228.058L362.232 216.038L396.543 218.543L395.658 230.564Z" fill="#9491FF"/>
<path d="M281.016 196.77L271.404 196.068C270.982 196.036 270.658 195.669 270.691 195.248L271.058 190.226C271.09 189.804 271.457 189.48 271.879 189.513L281.491 190.215C281.912 190.247 282.236 190.614 282.204 191.036L281.836 196.058C281.815 196.49 281.448 196.803 281.016 196.77Z" fill="#9491FF"/>
<path d="M300.65 198.207L291.038 197.505C290.617 197.472 290.304 197.105 290.325 196.684L290.692 191.662C290.725 191.241 291.092 190.917 291.513 190.949L301.125 191.651C301.546 191.683 301.86 192.051 301.838 192.472L301.471 197.494C301.438 197.926 301.071 198.239 300.65 198.207Z" fill="#9491FF"/>
<path d="M320.284 199.643L310.672 198.941C310.251 198.909 309.927 198.542 309.959 198.12L310.326 193.098C310.359 192.677 310.726 192.353 311.147 192.386L320.759 193.088C321.18 193.12 321.494 193.487 321.472 193.908L321.105 198.93C321.072 199.362 320.705 199.676 320.284 199.643Z" fill="#9491FF"/>
<path d="M339.919 201.08L330.307 200.378C329.886 200.345 329.562 199.978 329.594 199.557L329.961 194.535C329.994 194.114 330.361 193.79 330.782 193.822L340.394 194.524C340.815 194.556 341.128 194.924 341.107 195.345L340.74 200.367C340.707 200.799 340.34 201.112 339.919 201.08Z" fill="#9491FF"/>
<path d="M359.553 202.516L349.941 201.814C349.52 201.782 349.196 201.414 349.228 200.993L349.596 195.971C349.628 195.55 349.995 195.226 350.416 195.258L360.028 195.96C360.45 195.993 360.763 196.36 360.741 196.781L360.374 201.803C360.341 202.235 359.974 202.548 359.553 202.516Z" fill="#9491FF"/>
<path d="M379.187 203.952L369.575 203.25C369.154 203.218 368.83 202.851 368.863 202.429L369.23 197.407C369.262 196.986 369.629 196.662 370.051 196.695L379.663 197.397C380.084 197.429 380.408 197.796 380.375 198.217L380.008 203.239C379.976 203.671 379.609 203.985 379.187 203.952Z" fill="#9491FF"/>
<path d="M398.811 205.389L389.199 204.687C388.778 204.654 388.454 204.287 388.486 203.866L388.853 198.844C388.886 198.423 389.253 198.099 389.674 198.131L399.286 198.833C399.707 198.866 400.021 199.233 399.999 199.654L399.632 204.676C399.61 205.108 399.243 205.421 398.811 205.389Z" fill="#9491FF"/>
<path d="M265.625 148.237L265.382 151.566L411.251 162.228L411.495 158.9L265.625 148.237Z" fill="#9491FF"/>
<path d="M285.811 224.257L271.155 223.187C269.784 223.09 268.747 221.891 268.844 220.52L269.913 205.864C270.011 204.493 271.209 203.456 272.581 203.553L287.237 204.622C288.608 204.719 289.645 205.918 289.548 207.29L288.479 221.945C288.381 223.317 287.183 224.354 285.811 224.257Z" fill="#9491FF"/>
<path d="M355.136 224.278L295.121 219.882C294.149 219.807 293.414 218.964 293.479 217.982L293.619 216.113C293.695 215.141 294.537 214.407 295.52 214.472L355.536 218.867C356.508 218.943 357.242 219.785 357.177 220.768L357.037 222.636C356.961 223.619 356.119 224.354 355.136 224.278Z" fill="#9491FF"/>
<path opacity="0.2" d="M357.955 148.019L261.802 231.071C260.528 229.797 259.794 228.004 259.934 226.071L261.943 198.574L323.395 145.503L357.955 148.019Z" fill="white"/>
<path opacity="0.2" d="M405.345 151.486L307.54 235.964L290.627 234.722L388.432 150.244L405.345 151.486Z" fill="white"/>
<path d="M315.23 233.393L313.502 235.402C313.502 235.402 308.556 235.046 308.08 232.972C307.908 232.216 308.091 231.384 308.707 231.039L315.23 233.393Z" fill="#FB876B"/>
<path d="M317.001 244.517C314.571 244.83 312.141 243.642 311.04 241.45C310.456 240.284 310.197 238.804 310.759 236.946C312.433 231.395 315.543 227.486 317.682 228.641C318.492 229.073 318.33 232.356 317.228 234.732C317.228 234.732 318.805 232.162 319.572 229.192C320.338 226.222 324.01 227.658 323.082 231.406C322.142 235.154 321.742 235.694 321.742 235.694C321.742 235.694 323.449 232.853 323.686 231.006C323.924 229.16 326.829 229.667 326.192 233.274C325.9 234.948 325.544 236.86 325.544 236.86C325.544 236.86 326.386 234.484 326.829 233.242C327.272 232.011 328.978 231.244 329.227 233.944C329.421 236.072 329.551 241.86 326.689 242.811C324.734 243.47 319.896 244.15 317.001 244.517Z" fill="#FBA691"/>
<path d="M366.573 240.813C366.444 238.88 370.645 238.999 372.708 237.854C374.77 236.709 379.566 232.897 378.658 231.914C377.751 230.931 376.369 230.207 375.44 229.592C374.522 228.976 373.831 227.183 374.835 226.978C375.85 226.773 379.09 228.22 380.408 229.235C380.872 229.603 381.747 230.801 382.32 231.428C383.216 232.421 384.307 233.059 385.516 233.188C386.629 232.043 387.828 230.737 388.605 230.121C390.322 230.229 396.176 234.311 394.826 237.703C393.325 239.765 391.057 242.12 391.057 242.12C382.946 249.496 378.183 249.129 376.218 249.086C374.252 249.043 373.874 246.947 373.874 246.947C372.07 246.515 372.06 244.787 372.06 244.787C369.273 244.085 369.662 242.206 369.662 242.206C369.662 242.206 366.703 242.757 366.573 240.813Z" fill="#FBA691"/>
<path d="M426.47 203.661C426.47 203.661 419.364 225.239 396.047 237.973L387.979 230.845C387.979 230.845 404.33 217.949 411.825 198.758C411.879 198.617 411.944 198.466 411.998 198.315L411.901 197.656L403.628 143.883C403.628 143.883 404.373 137.705 411.696 128.979C411.696 128.979 429.721 157.75 426.47 203.661Z" fill="#9491FF"/>
<path d="M418.554 200.939C418.456 201.112 418.273 201.199 418.089 201.199C417.992 201.199 417.906 201.177 417.819 201.134C416.21 200.205 413.586 199.309 411.825 198.758C411.879 198.617 411.944 198.466 411.998 198.315L411.901 197.656C413.704 198.196 416.577 199.157 418.359 200.194C418.618 200.345 418.705 200.68 418.554 200.939Z" fill="#605BFF"/>
</svg>
