<svg width="60" height="60" viewBox="0 0 60 60" fill="none" xmlns="http://www.w3.org/2000/svg">
<rect width="60" height="60" rx="30" fill="#FF55BF" fill-opacity="0.2"/>
<g clip-path="url(#clip0_1_3887)">
<path d="M21.124 28.4583C20.8573 28.4583 20.5906 28.3562 20.3875 28.153C19.9802 27.7458 19.9802 27.0874 20.3875 26.6801L27.5812 19.4864C27.9885 19.0791 28.6469 19.0791 29.0542 19.4864C29.4615 19.8937 29.4615 20.552 29.0542 20.9593L21.8604 28.153C21.6573 28.3562 21.3906 28.4583 21.124 28.4583Z" fill="#FF55BF"/>
<path d="M29.7182 23.2501C29.5151 23.2501 29.3151 23.1709 29.1661 23.0209L25.5203 19.3751C25.2963 19.1522 25.2296 18.8157 25.3505 18.524C25.4713 18.2324 25.7567 18.0417 26.0723 18.0417H29.7182C30.1494 18.0417 30.4994 18.3917 30.4994 18.823V22.4688C30.4994 22.7845 30.3088 23.0699 30.0171 23.1907C29.9203 23.2303 29.8192 23.2501 29.7182 23.2501Z" fill="#FF55BF"/>
<path d="M25.291 32.8853V38.8749H19.041V32.8853C19.041 32.1666 19.6243 31.5833 20.3431 31.5833H23.9889C24.7077 31.5833 25.291 32.1666 25.291 32.8853Z" fill="#FF55BF"/>
<path d="M33.625 28.7188V38.8751H27.375V28.7188C27.375 28.0001 27.9583 27.4167 28.6771 27.4167H32.3229C33.0417 27.4167 33.625 28.0001 33.625 28.7188Z" fill="#FF55BF"/>
<path d="M41.959 24.5521V38.875H35.709V24.5521C35.709 23.8333 36.2923 23.25 37.0111 23.25H40.6569C41.3757 23.25 41.959 23.8333 41.959 24.5521Z" fill="#FF55BF"/>
<path d="M42.2188 42H18.7812C18.35 42 18 41.65 18 41.2188C18 40.7875 18.35 40.4375 18.7812 40.4375H42.2188C42.65 40.4375 43 40.7875 43 41.2188C43 41.65 42.65 42 42.2188 42Z" fill="#FF55BF"/>
</g>
<defs>
<clipPath id="clip0_1_3887">
<rect width="25" height="25" fill="white" transform="translate(18 17)"/>
</clipPath>
</defs>
</svg>
