<svg width="18" height="18" viewBox="0 0 18 18" fill="none" xmlns="http://www.w3.org/2000/svg">
<path d="M12.8147 15.1125C13.1293 15.1125 13.3844 14.8377 13.3844 14.4987C13.3844 14.1598 13.1293 13.885 12.8147 13.885C12.5001 13.885 12.2451 14.1598 12.2451 14.4987C12.2451 14.8377 12.5001 15.1125 12.8147 15.1125Z" fill="#70708C"/>
<path d="M6.12949 12.2276C5.85754 11.9557 5.53046 11.783 5.185 11.783C4.82852 11.783 4.49777 11.9557 4.22949 12.2387C4.744 12.1284 5.39816 12.0696 6.12949 12.2276Z" fill="#70708C"/>
<path d="M17.9854 16.5276C17.5444 13.4846 15.7584 10.9121 13.2998 9.51192C13.4137 10.3682 13.5276 11.8272 13.2557 13.1135C13.7996 13.3119 14.2002 13.8558 14.2002 14.4989C14.2002 15.3148 13.5864 15.9542 12.8147 15.9542C12.0429 15.9542 11.4292 15.3001 11.4292 14.4989C11.4292 13.8007 11.8849 13.2274 12.5023 13.0694C12.8735 11.5552 12.5721 9.59645 12.4876 9.09664C12.3884 9.05254 12.2892 9.01212 12.1863 8.96802C11.3594 9.8243 10.2422 10.3535 9 10.3535C7.78724 10.3535 6.67004 9.839 5.85785 9.01212C5.72923 9.29877 5.48668 9.99703 5.53078 11.0407C6.74354 11.2833 7.67332 12.768 7.67332 14.5541C7.67332 15.2119 7.54469 15.8697 7.30214 16.4247C7.16984 16.8436 6.61491 17.0127 6.35766 17.0127C5.97178 17.0127 5.6594 16.6856 5.6594 16.2703C5.6594 15.855 5.97546 15.5279 6.35766 15.5279C6.47158 15.5279 6.62961 15.5573 6.80234 15.6272C7.09634 14.7782 6.87216 13.628 6.73251 13.2421C5.36173 12.6136 4.10487 13.0436 3.64549 13.2421C3.51686 13.628 3.27063 14.679 3.57566 15.6272C3.74839 15.5573 3.90274 15.5279 4.02034 15.5279C4.40622 15.5279 4.7186 15.855 4.7186 16.2703C4.7186 16.6856 4.40254 17.0127 4.02034 17.0127C3.77779 17.0127 3.23388 16.8546 3.09056 16.4688C2.83331 15.8991 2.70468 15.2413 2.70468 14.5541C2.70468 12.7827 3.61976 11.3127 4.80312 11.0407C4.77372 10.3535 4.86192 9.78387 4.96115 9.3686C2.35555 10.7431 0.470262 13.3854 0.0145581 16.5276C-0.0993678 17.2993 0.470262 17.9976 1.20159 17.9976H16.7874C17.5297 17.9976 18.0994 17.2993 17.9854 16.5276Z" fill="#70708C"/>
<path d="M8.99978 9.71403C11.1423 9.71403 12.8843 7.87284 12.8843 5.59799C12.8843 5.28194 12.8549 4.98426 12.7851 4.68291C12.7851 4.68291 10.9586 4.11328 8.99978 4.11328C7.04467 4.11328 5.2292 4.68291 5.2292 4.68291C5.1704 4.98426 5.12998 5.28194 5.12998 5.59799C5.11528 7.88386 6.85724 9.71403 8.99978 9.71403Z" fill="#70708C"/>
<path d="M12.4727 3.80083C12.7447 2.72772 13.0019 1.64359 13.2592 0.570478C10.4698 -0.186578 7.52981 -0.186578 4.74414 0.570478C5.00139 1.64359 5.27334 2.72772 5.5306 3.80083C7.79809 3.18342 10.2016 3.18342 12.4727 3.80083ZM7.95611 1.32753H8.68377V0.555777H9.3122V1.32753H10.0399V1.98536H9.3122V2.75712H8.68377V1.98536H7.95611V1.32753Z" fill="#70708C"/>
</svg>
