<svg width="60" height="48" viewBox="0 0 60 48" fill="none" xmlns="http://www.w3.org/2000/svg">
<path d="M47.5742 16.5514C47.4489 7.40366 39.9685 0 30.7914 0C26.7092 0 22.7763 1.485 19.7175 4.18148C16.9875 6.58792 15.12 9.80377 14.3804 13.3345C14.3264 13.3339 14.2728 13.3334 14.2194 13.3334C6.37897 13.3334 0 19.7123 0 27.5528C0 35.3934 6.37897 41.7722 14.2195 41.7722H24.1503C24.8568 41.7722 25.4299 41.1994 25.4299 40.4927C25.4299 39.7859 24.8568 39.2131 24.1503 39.2131H14.2195C7.78991 39.2131 2.55914 33.9823 2.55914 27.5528C2.55914 21.1234 7.78991 15.8926 14.2195 15.8926C14.562 15.8926 14.9242 15.911 15.3267 15.9488C16.009 16.0127 16.6215 15.5274 16.7144 14.8477C17.1752 11.4704 18.8427 8.36412 21.4098 6.10112C24.0009 3.81691 27.3326 2.55902 30.7913 2.55902C38.6352 2.55902 45.0166 8.94045 45.0166 16.7843C45.0166 17.0667 44.9956 17.3578 44.9734 17.666L44.9639 17.797C44.9373 18.1734 45.0782 18.5424 45.3491 18.8053C45.6197 19.0681 45.9923 19.198 46.3683 19.1604C46.7086 19.126 47.052 19.1088 47.3888 19.1088C52.9314 19.1088 57.4409 23.6182 57.4409 29.1609C57.4409 34.7035 52.9315 39.2128 47.3888 39.2128H36.9461C36.2396 39.2128 35.6665 39.7857 35.6665 40.4924C35.6665 41.1992 36.2396 41.772 36.9461 41.772H47.3888C54.3426 41.772 60 36.1148 60 29.1609C59.9999 22.2694 54.4429 16.6509 47.5742 16.5514Z" fill="#AEAECC"/>
<path d="M30.7913 6.01392C25.4408 6.01392 20.8607 10.0125 20.1374 15.3147C20.0419 16.0149 20.5322 16.66 21.2323 16.7555C21.291 16.7635 21.3492 16.7675 21.4068 16.7675C22.0366 16.7675 22.5855 16.3023 22.6728 15.6608C23.224 11.6202 26.7142 8.57305 30.7912 8.57305C31.498 8.57305 32.0708 8.00024 32.0708 7.29348C32.0709 6.58684 31.498 6.01392 30.7913 6.01392Z" fill="#AEAECC"/>
<path d="M36.6108 31.1927L31.9563 27.0349C31.1539 26.3177 29.9434 26.3179 29.1407 27.0348L24.4862 31.1929C23.9591 31.6636 23.9137 32.4725 24.3844 32.9996C24.8551 33.5265 25.664 33.5723 26.1912 33.1015L29.269 30.352V46.0939C29.269 46.8007 29.8418 47.3735 30.5486 47.3735C31.2552 47.3735 31.8281 46.8007 31.8281 46.0939V30.3518L34.906 33.1014C35.15 33.3194 35.4546 33.4267 35.758 33.4267C36.1098 33.4267 36.4599 33.2826 36.7128 32.9995C37.1833 32.4724 37.1378 31.6636 36.6108 31.1927Z" fill="#AEAECC"/>
</svg>
