<svg width="30" height="30" viewBox="0 0 30 30" fill="none" xmlns="http://www.w3.org/2000/svg">
<circle cx="15" cy="15" r="15" fill="#2E2EA7"/>
<g clip-path="url(#clip0_1_1171)">
<path d="M22.5872 11.1631L21.2366 12.5137C21.0989 12.6514 20.8763 12.6514 20.7386 12.5137L17.4866 9.26172C17.3489 9.12402 17.3489 8.90137 17.4866 8.76367L18.8372 7.41309C19.385 6.86523 20.2757 6.86523 20.8265 7.41309L22.5872 9.17383C23.138 9.72168 23.138 10.6123 22.5872 11.1631ZM16.3265 9.92383L8.63309 17.6172L8.012 21.1768C7.92704 21.6572 8.34599 22.0732 8.82645 21.9912L12.386 21.3672L20.0794 13.6738C20.2171 13.5361 20.2171 13.3135 20.0794 13.1758L16.8274 9.92383C16.6868 9.78613 16.4642 9.78613 16.3265 9.92383ZM11.636 16.958C11.4749 16.7969 11.4749 16.5391 11.636 16.3779L16.1477 11.8662C16.3089 11.7051 16.5667 11.7051 16.7278 11.8662C16.889 12.0273 16.889 12.2852 16.7278 12.4463L12.2161 16.958C12.055 17.1191 11.7972 17.1191 11.636 16.958ZM10.5784 19.4219H11.9847V20.4854L10.095 20.8164L9.18388 19.9053L9.51493 18.0156H10.5784V19.4219Z" fill="white"/>
</g>
<defs>
<clipPath id="clip0_1_1171">
<rect width="15" height="15" fill="white" transform="translate(8 7)"/>
</clipPath>
</defs>
</svg>
