<svg width="16" height="18" viewBox="0 0 16 18" fill="none" xmlns="http://www.w3.org/2000/svg">
<path d="M12.3971 15.2083V11.9283C12.3971 9.50015 10.4286 7.53174 8.00044 7.53174C5.57225 7.53174 3.60378 9.50015 3.60378 11.9283V15.2083C2.8329 15.2083 2.20801 15.8332 2.20801 16.6041C2.20801 17.375 2.8329 17.9999 3.60378 17.9999H12.3971C13.1679 17.9999 13.7928 17.375 13.7928 16.6041C13.7928 15.8332 13.1679 15.2083 12.3971 15.2083ZM4.74227 11.9844C4.74227 11.1658 5.04714 10.3831 5.60067 9.78062C5.83556 9.52486 6.23329 9.50801 6.48899 9.74302C6.74469 9.97792 6.76154 10.3757 6.52659 10.6313C6.18689 11.0012 5.99972 11.4816 5.99972 11.9844V13.8C5.99972 14.1472 5.71818 14.4287 5.37099 14.4287C5.02381 14.4287 4.74227 14.1472 4.74227 13.8V11.9844Z" fill="#70708C"/>
<path d="M8.00071 5.46663C8.52155 5.46663 8.9438 5.04438 8.9438 4.52355V0.943087C8.9438 0.422251 8.52155 0 8.00071 0C7.47987 0 7.05762 0.422251 7.05762 0.943087V4.52355C7.05762 5.04438 7.47987 5.46663 8.00071 5.46663Z" fill="#70708C"/>
<path d="M3.77467 7.45404C4.01604 7.45404 4.2574 7.36193 4.44149 7.17777C4.8098 6.80953 4.8098 6.21237 4.44149 5.84406L1.90975 3.31232C1.5415 2.94407 0.944341 2.94407 0.576035 3.31232C0.207728 3.68062 0.207728 4.27778 0.576035 4.64603L3.10784 7.17784C3.29193 7.36193 3.5333 7.45404 3.77467 7.45404Z" fill="#70708C"/>
<path d="M15.4249 3.31236C15.0566 2.94399 14.4594 2.94412 14.0912 3.31236L11.5594 5.84424C11.1911 6.21254 11.1912 6.80964 11.5594 7.17795C11.7436 7.36217 11.9849 7.45421 12.2263 7.45421C12.4677 7.45421 12.709 7.3621 12.8931 7.17795L15.4249 4.64608C15.7932 4.27771 15.7931 3.68061 15.4249 3.31236Z" fill="#70708C"/>
</svg>
