<svg width="622" height="500" viewBox="0 0 622 500" fill="none" xmlns="http://www.w3.org/2000/svg">
<path d="M478.103 324.591C529.312 294.923 561.563 251.747 561.563 203.643C561.563 114.187 449.904 41.6516 312.179 41.6516C174.453 41.6516 62.7939 114.187 62.7939 203.643C62.7939 277.482 138.837 339.757 242.818 359.283C226.941 371.487 217.842 385.634 217.842 400.729C217.842 446.511 301.373 483.596 404.406 483.596C507.44 483.596 590.971 446.487 590.971 400.729C590.971 366.605 544.502 337.292 478.103 324.591Z" fill="url(#paint0_linear_1_750)"/>
<path d="M478.103 324.591C529.312 294.923 561.563 251.747 561.563 203.643C561.563 114.187 449.904 41.6516 312.179 41.6516C174.453 41.6516 62.7939 114.187 62.7939 203.643C62.7939 277.482 138.837 339.757 242.818 359.283C226.941 371.487 217.842 385.634 217.842 400.729C217.842 446.511 301.373 483.596 404.406 483.596C507.44 483.596 590.971 446.487 590.971 400.729C590.971 366.605 544.502 337.292 478.103 324.591Z" fill="url(#paint1_linear_1_750)"/>
<path d="M547.062 128.595C547.062 128.595 569.739 164.33 571.801 200.752C573.863 237.174 643.626 212.885 614.763 154.922C585.901 96.9838 542.607 109.709 547.062 128.595Z" fill="url(#paint2_linear_1_750)"/>
<path d="M547.062 128.595C547.062 128.595 569.739 164.33 571.801 200.752C573.863 237.174 643.626 212.885 614.763 154.922C585.901 96.9838 542.607 109.709 547.062 128.595Z" fill="url(#paint3_linear_1_750)"/>
<path d="M540.9 486.392C540.852 494.568 440.828 500.634 317.511 499.947C194.193 499.26 94.2397 492.08 94.2871 483.904C94.3345 475.729 194.359 469.662 317.676 470.35C440.994 471.037 540.947 478.217 540.9 486.392Z" fill="#D9643D"/>
<path d="M117.486 322.838C117.486 322.838 107.463 282.672 83.2682 271.771C59.0738 260.87 58.4814 291.297 74.4056 314.141C90.3298 337.008 131.941 362.956 131.941 362.956L117.486 322.838Z" fill="#8E4F22"/>
<path d="M131.965 364.733C132.297 364.733 132.652 364.639 132.937 364.425C133.742 363.88 133.979 362.79 133.434 361.961L85.33 289.97C84.785 289.164 83.6949 288.927 82.8655 289.472C82.0598 290.017 81.8229 291.107 82.3679 291.937L130.472 363.928C130.828 364.449 131.396 364.733 131.965 364.733Z" fill="#6B2D18"/>
<path d="M219.051 373.027C219.051 373.027 228.34 388.525 213.743 403.122C199.145 417.719 152.652 407.103 152.652 407.103C152.652 407.103 157.7 384.259 177.439 375.231C197.179 366.202 213.292 359.307 219.051 373.027Z" fill="#8E4F22"/>
<path d="M183.339 279.496C186.372 265.088 183.079 252.032 173.055 244.851C185.069 221.155 181.609 195.254 160.756 191.984C139.666 188.666 113.292 201.557 119.879 235.017C120.614 238.738 121.467 242.103 122.439 245.159C108.149 252.553 98.7181 266.7 103.766 288.548C103.884 289.022 103.979 289.472 104.097 289.946C95.6849 300.515 91.7276 315.326 95.9456 334.781C106.775 384.994 135.78 393.809 135.78 393.809C135.78 393.809 162.06 386.629 182.652 350.776C198.245 323.667 198.932 294.33 183.339 279.496Z" fill="url(#paint4_linear_1_750)"/>
<path d="M131.444 415.729C131.444 415.729 125.306 369.259 120.378 364.33C115.259 359.188 113.742 366.51 113.742 366.51C113.742 366.51 109.595 330.728 99.9035 325.847C90.2115 320.965 84.9508 331.866 84.9508 331.866C84.9508 331.866 88.4106 293.24 58.8607 290.254C44.6664 288.809 41.4673 305.657 41.4673 305.657C41.4673 305.657 22.6521 282.008 5.02168 302.292C-9.7414 319.259 12.7468 335.16 12.7468 335.16C12.7468 335.16 -4.50442 346.226 8.12595 361.961C20.7563 377.672 42.0834 373.335 42.0834 373.335C42.0834 373.335 29.9744 385.515 41.1592 391.155C52.3441 396.795 79.5717 391.392 79.5717 391.392C79.5717 391.392 65.2351 397.932 76.1357 403.406C86.9888 408.928 131.444 415.729 131.444 415.729Z" fill="url(#paint5_linear_1_750)"/>
<path d="M149.24 238.903C148.268 238.832 147.415 239.567 147.344 240.539L132.297 438.833C132.226 439.805 132.96 440.658 133.932 440.729C133.979 440.729 134.027 440.729 134.074 440.729C134.998 440.729 135.756 440.018 135.828 439.094L150.875 240.799C150.946 239.828 150.211 238.998 149.24 238.903Z" fill="#6B2D18"/>
<path d="M189.288 399.236L179.952 396.06C183.672 394.71 187.013 393.572 189.264 392.861C190.189 392.553 190.71 391.558 190.402 390.634C190.094 389.71 189.098 389.188 188.174 389.496C186.942 389.899 158.032 399.212 151.397 405.871C144.525 412.743 145.094 432.885 145.117 433.738C145.141 434.686 145.923 435.444 146.895 435.444C146.918 435.444 146.942 435.444 146.966 435.444C147.937 435.421 148.719 434.591 148.672 433.62C148.506 428.241 149.098 413.193 153.909 408.383C156.918 405.373 166.089 401.345 174.715 398.051L188.151 402.624C188.34 402.696 188.53 402.719 188.719 402.719C189.454 402.719 190.141 402.245 190.402 401.511C190.71 400.539 190.212 399.544 189.288 399.236Z" fill="#6B2D18"/>
<path d="M132.961 414.805C121.989 396.463 93.9323 371.226 70.6858 352.079L71.2071 318.904C71.2308 317.932 70.4488 317.127 69.4536 317.103C68.5294 317.055 67.6763 317.861 67.6526 318.856L67.1787 349.212C50.2829 335.444 36.681 325.397 35.3539 324.425C34.5719 323.856 33.4582 324.022 32.8895 324.804C32.3208 325.586 32.4866 326.7 33.2686 327.269C33.5293 327.458 43.008 334.449 56.0412 344.828H28.4345C27.4629 344.828 26.6572 345.61 26.6572 346.605C26.6572 347.577 27.4392 348.383 28.4345 348.383H60.4725C69.501 355.657 79.7854 364.236 89.7854 373.193L68.5768 377.056C67.6052 377.222 66.9654 378.146 67.155 379.117C67.3209 379.97 68.0555 380.563 68.8848 380.563C68.9796 380.563 69.0981 380.563 69.1929 380.539L93.0792 376.203C108.624 390.326 122.937 405.042 129.904 416.653C130.236 417.198 130.828 417.506 131.421 417.506C131.729 417.506 132.037 417.435 132.321 417.245C133.198 416.724 133.459 415.658 132.961 414.805Z" fill="#6B2D18"/>
<path d="M144.477 397.079C144.477 397.079 135.78 347.577 142.771 347.577C149.761 347.577 151.467 353.406 151.467 353.406C151.467 353.406 147.344 325.089 154.998 317.411C162.676 309.733 167.984 311.51 167.984 311.51C167.984 311.51 152.628 282.292 179.785 270.207C192.818 264.401 201.112 273.003 201.112 273.003C201.112 273.003 211.586 244.638 234.667 258.406C254.003 269.922 237.629 292.055 237.629 292.055C237.629 292.055 250.615 302.671 243.529 321.558C236.444 340.444 221.705 337.482 221.705 337.482C221.705 337.482 230.567 349.283 221.705 358.146C212.842 367.008 193.505 362.861 193.505 362.861C193.505 362.861 202.131 365.444 193.505 374.07C184.88 382.672 144.477 397.079 144.477 397.079Z" fill="url(#paint6_linear_1_750)"/>
<path d="M216.444 320.444L193.932 327.624C207.155 311.676 218.032 299.425 218.316 299.117C218.956 298.382 218.909 297.269 218.174 296.629C217.44 295.989 216.326 296.036 215.662 296.771C214.312 298.288 198.459 316.131 181.871 336.771L183.932 313.454C184.027 312.482 183.293 311.629 182.321 311.534C181.35 311.439 180.496 312.174 180.402 313.146L177.866 341.795C161.018 363.075 144.525 386.132 142.747 396.819C139.146 418.43 136.183 442.103 136.16 442.34C136.041 443.312 136.728 444.189 137.7 444.307C137.771 444.307 137.842 444.331 137.913 444.331C138.79 444.331 139.548 443.667 139.667 442.79C139.691 442.554 142.653 418.975 146.231 397.411C148.198 385.563 170.496 356.25 189.762 332.695L217.511 323.856C218.435 323.548 218.956 322.553 218.672 321.629C218.364 320.657 217.369 320.136 216.444 320.444Z" fill="#6B2D18"/>
<path d="M166.633 424.805H108.908V478.644H166.633V424.805Z" fill="#952A68"/>
<path d="M182.155 414.189H97.7705V418.596H182.155V414.189Z" fill="#1A768B"/>
<path d="M176.965 418.596H102.937V428.169H176.965V418.596Z" fill="#259ABC"/>
<path d="M463.625 324.496C463.625 324.496 453.767 284.283 429.62 273.287C405.473 262.292 404.762 292.695 420.592 315.61C436.421 338.525 477.914 364.686 477.914 364.686L463.625 324.496Z" fill="#8E4F22"/>
<path d="M477.914 366.463C478.246 366.463 478.602 366.368 478.91 366.179C479.715 365.634 479.952 364.544 479.407 363.714L431.611 291.51C431.066 290.705 429.976 290.468 429.17 291.013C428.364 291.558 428.128 292.648 428.673 293.477L476.469 365.681C476.777 366.179 477.346 366.463 477.914 366.463Z" fill="#11404E"/>
<path d="M564.976 375.136C564.976 375.136 574.194 390.657 559.526 405.207C544.857 419.757 498.436 408.928 498.436 408.928C498.436 408.928 503.578 386.108 523.365 377.174C543.128 368.217 559.265 361.392 564.976 375.136Z" fill="#8E4F22"/>
<path d="M529.668 281.439C532.772 267.031 529.526 253.975 519.526 246.747C531.635 223.121 528.294 197.173 507.464 193.832C486.398 190.42 459.976 203.192 466.421 236.7C467.132 240.42 467.985 243.785 468.933 246.866C454.597 254.212 445.118 268.311 450.094 290.183C450.213 290.657 450.307 291.107 450.426 291.581C441.966 302.103 437.961 316.913 442.085 336.392C452.701 386.653 481.658 395.61 481.658 395.61C481.658 395.61 507.962 388.548 528.72 352.766C544.384 325.681 545.189 296.344 529.668 281.439Z" fill="url(#paint7_linear_1_750)"/>
<path d="M477.179 417.459C477.179 417.459 471.255 370.966 466.326 366.013C461.208 360.871 459.668 368.169 459.668 368.169C459.668 368.169 455.663 332.387 445.995 327.458C436.326 322.529 431.018 333.43 431.018 333.43C431.018 333.43 434.644 294.828 405.094 291.7C390.9 290.207 387.629 307.032 387.629 307.032C387.629 307.032 368.909 283.311 351.184 303.501C336.35 320.42 358.767 336.416 358.767 336.416C358.767 336.416 341.468 347.411 354.027 363.193C366.587 378.975 387.937 374.71 387.937 374.71C387.937 374.71 375.781 386.842 386.942 392.53C398.103 398.217 425.355 392.933 425.355 392.933C425.355 392.933 410.994 399.402 421.871 404.947C432.772 410.468 477.179 417.459 477.179 417.459Z" fill="url(#paint8_linear_1_750)"/>
<path d="M495.735 240.728C494.763 240.633 493.91 241.368 493.839 242.363L477.938 440.586C477.867 441.558 478.578 442.411 479.55 442.482C479.597 442.482 479.645 442.482 479.692 442.482C480.616 442.482 481.398 441.771 481.469 440.847L497.37 242.624C497.441 241.652 496.73 240.799 495.735 240.728Z" fill="#11404E"/>
<path d="M535.095 401.203L525.782 397.98C529.526 396.653 532.844 395.539 535.095 394.805C536.019 394.52 536.54 393.525 536.256 392.577C535.971 391.653 534.976 391.132 534.028 391.416C532.796 391.795 503.862 401.013 497.18 407.624C490.26 414.473 490.758 434.615 490.782 435.468C490.805 436.416 491.587 437.174 492.535 437.198C492.559 437.198 492.583 437.198 492.606 437.198C493.578 437.174 494.36 436.345 494.313 435.373C494.17 429.994 494.834 414.947 499.668 410.16C502.678 407.174 511.872 403.193 520.521 399.899L533.934 404.52C534.123 404.591 534.313 404.615 534.502 404.615C535.237 404.615 535.924 404.165 536.185 403.43C536.517 402.53 536.019 401.534 535.095 401.203Z" fill="#6B2D18"/>
<path d="M478.696 416.558C467.796 398.169 439.857 372.814 416.705 353.548L417.369 320.373C417.393 319.401 416.611 318.596 415.639 318.572C414.715 318.524 413.862 319.33 413.838 320.302L413.222 350.657C396.397 336.818 382.819 326.7 381.516 325.728C380.734 325.136 379.62 325.302 379.028 326.084C378.435 326.866 378.601 327.979 379.383 328.572C379.644 328.761 389.099 335.799 402.084 346.226L374.454 346.107C373.482 346.107 372.677 346.889 372.677 347.861C372.677 348.833 373.459 349.638 374.43 349.638L406.468 349.78C415.473 357.103 425.734 365.728 435.686 374.709L414.478 378.477C413.506 378.643 412.866 379.567 413.032 380.539C413.175 381.392 413.933 382.008 414.762 382.008C414.857 382.008 414.975 382.008 415.07 381.984L438.98 377.743C454.454 391.937 468.72 406.724 475.616 418.359C475.947 418.904 476.54 419.212 477.132 419.236C477.44 419.236 477.748 419.165 478.033 418.999C478.933 418.477 479.194 417.387 478.696 416.558Z" fill="#6B2D18"/>
<path d="M490.308 398.857C490.308 398.857 481.824 349.307 488.815 349.33C495.805 349.354 497.488 355.207 497.488 355.207C497.488 355.207 493.483 326.866 501.185 319.212C508.886 311.581 514.194 313.359 514.194 313.359C514.194 313.359 498.981 284.07 526.185 272.103C539.242 266.344 547.488 274.994 547.488 274.994C547.488 274.994 558.08 246.676 581.114 260.539C600.403 272.126 583.91 294.188 583.91 294.188C583.91 294.188 596.848 304.875 589.692 323.714C582.536 342.577 567.796 339.544 567.796 339.544C567.796 339.544 576.588 351.392 567.701 360.207C558.815 369.022 539.502 364.804 539.502 364.804C539.502 364.804 548.128 367.435 539.455 376.013C530.782 384.639 490.308 398.857 490.308 398.857Z" fill="url(#paint9_linear_1_750)"/>
<path d="M562.583 322.529L540.047 329.615C553.341 313.714 564.265 301.51 564.55 301.202C565.213 300.468 565.142 299.354 564.407 298.69C563.673 298.051 562.559 298.098 561.895 298.833C560.545 300.349 544.621 318.122 527.938 338.691L530.094 315.373C530.189 314.401 529.478 313.548 528.507 313.454C527.535 313.359 526.682 314.07 526.587 315.041L523.933 343.667C506.99 364.875 490.402 387.861 488.578 398.549C484.881 420.16 481.824 443.786 481.8 444.023C481.682 444.994 482.369 445.871 483.341 446.013C483.412 446.013 483.483 446.037 483.554 446.037C484.431 446.037 485.189 445.397 485.308 444.497C485.331 444.26 488.388 420.681 492.085 399.141C494.099 387.293 516.516 358.098 535.9 334.615L563.696 325.894C564.621 325.61 565.142 324.615 564.858 323.667C564.526 322.766 563.507 322.245 562.583 322.529Z" fill="#6B2D18"/>
<path d="M512.343 426.687L454.618 426.439L454.394 478.715L512.12 478.962L512.343 426.687Z" fill="#952A68"/>
<path d="M527.905 416.15L443.521 415.79L443.502 420.198L527.886 420.558L527.905 416.15Z" fill="#1A768B"/>
<path d="M522.703 420.512L448.674 420.196L448.633 429.77L522.662 430.086L522.703 420.512Z" fill="#259ABC"/>
<path d="M383.744 417.506H336.753C316.326 417.506 299.62 400.8 299.62 380.373V354.591C299.62 334.164 316.326 317.458 336.753 317.458H383.744C404.17 317.458 420.876 334.164 420.876 354.591V380.373C420.876 400.8 404.17 417.506 383.744 417.506Z" fill="#403E6B"/>
<path d="M317.63 331.345C317.985 330.61 346.516 273.335 344.644 276.984C347.654 270.989 349.857 264.638 355.734 262.174C357.796 261.297 360.237 261.226 362.322 262.008C366.611 263.548 369.004 267.387 370.853 271.273L370.805 271.202L402.654 329.733L401.042 330.61C372.44 293.833 364.194 266.984 358.388 268.785C355.213 270.017 353.436 275.112 350.734 280.017L344.952 290.776C327.867 321.416 319.383 332.032 319.526 331.866C319.383 332.055 319.099 332.435 318.886 332.672L317.63 331.345Z" fill="#403E6B"/>
<path d="M355.71 249.685C354.809 252.553 352.084 261.486 350.496 266.652C349.857 268.714 350.544 270.965 352.203 272.339C352.274 272.411 352.345 272.458 352.416 272.529C353.127 273.24 354.667 275.562 355.378 275.562C356.089 275.562 357.866 277.079 358.861 277.079C359.857 277.079 360.473 277.268 362.013 277.837C363.553 278.406 366.278 276.439 366.278 275.562C366.278 274.685 366.989 269.093 367.819 264.354C368.648 259.614 368.601 249.093 368.601 249.093C369.098 248.595 369.809 247.79 370.686 246.747C366.918 244.756 363.127 242.766 359.075 241.581C357.203 245.918 355.947 248.88 355.71 249.685Z" fill="#FC7575"/>
<path d="M419.763 137.671L404.478 97.908C404.478 97.908 384.549 171.723 384.549 177.766C384.549 182.624 366.658 223.69 359.052 241.605C363.104 242.79 368.767 246.653 372.535 248.667C381.564 237.908 407.109 198.785 407.109 198.785L419.763 137.671Z" fill="#3A3799"/>
<path d="M452.772 473.051C438.175 473.051 436.327 454.26 436.327 454.26L448.957 361.155L455.189 246.036L458.744 216.937L398.815 222.766L389.075 251.842L375.236 359.046L397.772 452.151C397.772 452.151 395.924 470.942 381.327 470.942C366.729 470.942 367.085 476.724 367.085 476.724H409.81C409.81 476.724 407.322 455.895 407.322 453.952C407.322 452.032 404.644 351.487 404.644 351.487L420.853 259.828L427.18 356.037C427.18 356.037 426.753 454.141 426.753 456.061C426.753 457.98 424.265 478.833 424.265 478.833C424.265 478.833 434.952 478.833 442.061 478.833C449.17 478.833 466.99 478.833 466.99 478.833C466.99 478.833 467.369 473.051 452.772 473.051Z" fill="#101641"/>
<path d="M461.327 90.7513C453.175 79.5191 420.853 69.5901 405.663 87.9314C392.464 103.879 389.62 150.301 388.743 190.728C387.961 227.174 382.203 258.738 382.203 258.738L459.786 259.828L461.327 154.804C461.327 154.827 469.478 101.984 461.327 90.7513Z" fill="#6764CE"/>
<path d="M417.44 61.9359C417.44 61.9359 417.226 78.5236 415.591 86.9834C414.952 90.2535 416.516 93.5948 419.383 94.8033C421.516 95.6801 424.312 96.2014 427.843 95.5616C436.99 93.8791 437.298 83.9739 437.298 83.9739L434.217 53.7131L417.44 61.9359Z" fill="#FC7575"/>
<path d="M434.194 53.6895L417.44 61.9122C417.44 61.9122 417.369 68.026 416.942 74.7322C421.326 74.9454 426.824 72.5521 432.653 65.3246C433.53 64.2582 434.336 63.1918 435.094 62.1255L434.194 53.6895Z" fill="#FD5E5A"/>
<path d="M443.483 29.8267C441.469 24.2817 423.175 16.5566 418.53 19.4002C418.53 19.4002 412.796 24.1158 410.308 32.0068C407.82 39.8979 405.663 45.6325 405.663 45.6325L408.293 47.3149C408.293 47.3149 407.891 49.4951 407.559 52.2439C410.308 52.5993 414.573 52.8837 417.701 51.7936C417.701 51.7936 414.052 54.8031 407.322 54.7557C407.109 57.5756 407.132 60.514 407.82 62.1254C410.308 67.8363 420.758 72.4572 432.63 59.6136C444.478 46.7225 445.497 35.3718 443.483 29.8267Z" fill="#FC7575"/>
<path d="M436.35 31.8411C436.35 31.8411 431.09 27.1255 423.483 29.1397C415.876 31.1539 413.317 28.0497 414.81 26.462C414.81 26.462 408.151 26.6278 405.663 20.751C403.175 14.8743 403.791 -2.94572 415.592 0.419222C427.369 3.78416 425 11.8411 425 11.8411C425 11.8411 428.767 7.97849 432.346 9.99271C435.924 12.0069 435.45 14.8743 435.45 14.8743C435.45 14.8743 438.696 21.4383 443.199 22.2676C447.701 23.1207 447.227 32.8601 447.227 32.8601C447.227 32.8601 449.857 34.8743 448.009 41.9359C446.161 48.9976 435.213 59.9218 435.213 63.2867C435.213 63.2867 432.511 58.9265 434.691 52.0308C436.872 45.135 436.872 41.1066 434.526 41.1066C432.156 41.0829 436.35 31.8411 436.35 31.8411Z" fill="#0B1742"/>
<path d="M432.985 45.6326C432.985 45.6326 433.743 39.8269 435.425 39.8269C437.108 39.8269 438.672 40.4667 438.269 43.7369C437.866 47.007 436.113 50.68 433.909 49.1634C431.705 47.6468 432.985 45.6326 432.985 45.6326Z" fill="#FC7575"/>
<path d="M448.791 20.7985C448.601 20.206 448.127 19.5662 447.535 19.2819C445.615 18.4051 443.032 20.3008 441.35 21.6278L441.065 21.2487C442.203 19.9691 443.411 18.6895 445.118 17.8838C447.606 16.7463 449.833 17.9075 450.781 20.0639L448.791 20.7985Z" fill="#0B1742"/>
<path d="M447.251 30.1351C447.44 29.1162 447.44 27.9076 447.18 26.8413C445.947 21.5332 439.976 21.9834 439.691 21.8176V21.4858C439.857 21.5569 448.341 19.7796 449.549 28.3579C449.668 29.0925 449.715 29.7323 449.644 30.6327L447.251 30.1351Z" fill="#0B1742"/>
<path d="M415.877 39.6137C416.596 39.6137 417.18 38.4572 417.18 37.0307C417.18 35.6042 416.596 34.4478 415.877 34.4478C415.157 34.4478 414.573 35.6042 414.573 37.0307C414.573 38.4572 415.157 39.6137 415.877 39.6137Z" fill="#2846A6"/>
<path d="M420.402 32.8601C418.033 31.2961 414.692 31.8648 414.644 31.8648L414.502 30.8695C414.644 30.8458 418.222 30.2297 420.876 31.9833L420.402 32.8601Z" fill="#2846A6"/>
<path d="M434.123 43.3104C434.123 43.3104 435.118 41.3436 435.995 41.628C436.871 41.9123 437.085 45.846 435.521 47.5285C433.933 49.1635 432.606 46.4384 434.123 43.3104Z" fill="#FD5E5A"/>
<path d="M250.734 136.723C250.734 136.723 286.255 147.979 288.388 168.192L278.909 171.249L246.137 150.846L250.734 136.723Z" fill="#6F6E8F"/>
<path d="M211.705 274.614C211.705 274.614 232.203 450.61 237.321 469.402V481.274H276.611C276.611 481.274 274.241 477.316 269.786 477.316C265.355 477.316 254.122 473.027 251.042 470.065C247.961 467.103 252.985 223.856 252.985 223.856H204.193L211.705 274.614Z" fill="#0D0C31"/>
<path d="M205.922 74.519L204.975 89.2347L239.833 85.2774L231.681 75.2773L205.922 74.519Z" fill="#6D7280"/>
<path d="M234.525 239.117L228.861 267.6C228.861 267.6 183.506 421.819 185.496 475.705C185.496 475.705 189.312 482.103 202.795 485.871C203.53 486.084 204.217 488.573 204.217 488.573H169.051L171.041 477.719C171.041 477.719 172.179 294.354 172.179 272.979C172.179 251.629 177.842 223.832 177.842 223.832H236.8L234.525 239.117Z" fill="#1C1A63"/>
<path d="M258.08 187.363C258.08 137.481 243.506 87.8366 232.606 81.5332C232.606 81.5332 219.928 80.6564 213.411 80.4432C203.695 80.1114 188.719 85.0403 180.639 112.552C175.544 129.898 177.961 171.77 178.506 208.263C178.743 224.448 176.278 239.567 176.634 251.012C204.098 251.012 224.193 250.088 250.852 250.088C251.279 241.392 258.08 203.026 258.08 187.363Z" fill="#514CE4"/>
<path d="M219.382 140.586C219.454 141.32 203.174 81.8889 203.174 81.8889C203.174 81.8889 197.724 83.7373 190.449 88.5477C183.198 93.3344 173.174 126.486 173.174 126.486C173.174 126.486 175.638 204.851 175.638 210.823C175.638 214.022 170.425 262.032 165.591 305.705L225.022 311.345C224.146 250.397 219.382 140.586 219.382 140.586Z" fill="#B6B3FF"/>
<path d="M232.605 81.5095C232.605 81.5095 253.577 89.6612 258.079 144.519C262.582 199.354 262.582 311.321 262.582 311.321H242.037C242.037 311.321 239.809 151.368 239.809 140.396C239.833 129.448 232.605 81.5095 232.605 81.5095Z" fill="#9D9BEA"/>
<path d="M231.682 75.2773L239.81 139.022L242.677 107.149L239.833 103.69V85.2774L231.682 75.2773Z" fill="#DDDCFF"/>
<path d="M193.269 279.662H201.279C207.653 279.662 212.819 274.496 212.819 268.122V243.027H181.705V268.122C181.705 274.496 186.871 279.662 193.269 279.662Z" fill="#DDDCFF"/>
<path d="M173.613 216.714H181.718V198.918H173.613V216.714Z" fill="#DCE4FF"/>
<path d="M196.136 144.33C196.113 144.306 196.113 144.306 196.089 144.282C196.468 144.259 196.444 144.282 196.136 144.33Z" fill="#FC7575"/>
<path d="M280.733 176.747L332.511 139.756L278.743 134.875L238.079 177.766L280.733 176.747Z" fill="#1E3340"/>
<path d="M258.529 159.875C258.529 159.875 252.202 161.297 249.856 163.785C246.87 166.984 239.785 172.173 236.799 172.173C233.813 172.173 221.136 173.406 221.136 173.406L219.003 187.363C219.003 187.363 266.325 176.534 268.553 174.14C270.78 171.747 257.463 175.917 257.463 174.851C257.463 173.785 273.505 172.6 272.7 169.922C271.87 167.244 257.889 173.524 256.633 172.197C255.401 170.87 273.506 168.643 273.506 165.823C273.506 162.979 255.472 169.922 255.472 169.922C255.472 169.922 255.141 168.477 260.022 166.178C264.904 163.88 269.643 162.007 268.553 160.87C267.463 159.709 254.998 167.055 253.34 165.301L258.529 159.875Z" fill="#FC7575"/>
<path d="M195.354 93.8318C195.354 93.8318 201.349 104.803 200.164 120.609C198.979 136.415 196.918 160.633 200.283 168.524C203.648 176.415 228.221 168.524 228.221 168.524V187.221C228.221 187.221 192.558 201.699 182.226 196.96C171.894 192.221 172.889 151.415 172.889 131.391C172.889 111.391 188.766 79.4716 195.354 93.8318Z" fill="#D2D0FF"/>
<path d="M215.71 23.6895C215.686 16.225 223.151 11.9122 230.236 12.1966C237.179 12.4809 243.957 12.552 246.35 17.0544C252.132 27.8838 243.198 48.1446 243.198 48.1446C243.198 48.1446 238.459 57.5759 228.98 57.5759C222.511 57.5759 215.781 37.6706 215.71 23.6895Z" fill="#F98A8A"/>
<path d="M208.98 44.5901C208.98 44.5901 206.421 78.9504 207.345 86.1779C208.269 93.4054 227.155 95.2064 230.828 89.6613C234.525 84.1163 230.828 60.3721 230.828 60.3721L208.98 44.5901Z" fill="#EA7373"/>
<path d="M232.321 74.7324C231.918 67.4101 230.828 60.3484 230.828 60.3484L208.98 44.5901C208.98 44.5901 208.174 54.2584 207.7 64.756C208.127 64.5191 208.695 64.2584 208.98 63.9267C211.492 61.0356 214.383 51.0119 214.383 51.0119C214.383 51.0119 215.71 61.2015 215.71 66.8177C215.71 70.3959 221.847 72.7656 227.866 74.0215C228.838 72.6471 229.572 70.8935 230.023 69.4243C229.857 71.0357 229.525 72.7181 228.956 74.2347C230.117 74.4243 231.255 74.6139 232.321 74.7324Z" fill="#D86666"/>
<path d="M240.757 61.8648C241.326 63.2156 242.369 65.0639 243.625 66.2487C245.781 63.5473 247.037 59.8506 247.037 56.8648C247.037 51.462 243.838 48.5236 243.838 46.5093C243.838 46.5093 242.724 51.1065 236.658 52.0781C230.615 53.0497 225.734 48.1918 223.435 45.7747C221.137 43.3577 218.174 41.0117 218.174 37.0306C218.174 33.0496 217.748 17.5045 217.748 17.5045C217.748 17.5045 217.108 14.8268 210.544 18.3102C203.956 21.7699 204.762 24.424 203.696 29.6846C202.653 34.969 204.099 38.8553 199.999 40.2297C195.923 41.6278 191.445 48.0022 194.596 54.8032C197.748 61.6042 206.445 62.4336 208.933 59.8032C211.445 57.1729 214.336 49.116 214.336 49.116C214.336 49.116 215.663 57.2914 215.663 62.4336C215.663 65.7037 221.8 67.8601 227.819 68.9976C228.791 67.7416 229.525 66.1539 229.975 64.8032C229.81 66.2724 229.478 67.8127 228.909 69.1871C231.966 69.7085 234.881 69.9691 236.848 69.9691C238.696 69.9691 240.378 69.2582 241.8 68.0971C240.994 66.2488 240.71 64.0449 240.757 61.8648Z" fill="#E4E3FF"/>
<path d="M209.927 18.0259C203.885 20.8932 203.837 24.116 202.961 28.7842C201.515 35.5378 203.245 38.0023 199.311 39.3293C190.401 43.2393 190.093 57.6706 200.875 61.0355C203.577 61.7464 206.894 61.9123 208.979 59.7796C206.657 61.4384 203.624 60.9644 201.207 59.9929C192.368 56.4384 192.676 44.353 200.069 41.3909C205.188 39.9928 203.648 35.0165 204.738 29.1397C205.543 24.7795 204.738 22.315 210.401 18.9975C212.392 17.7652 216.491 15.4667 217.771 17.5046C216.752 15.1112 212.202 16.9832 209.927 18.0259Z" fill="#C5C6FE"/>
<path d="M221.089 32.315C221.089 32.315 219.146 29.5425 215.71 30.3719C212.274 31.2013 214.904 40.5141 217.937 40.5141C220.947 40.4904 221.089 32.315 221.089 32.315Z" fill="#F98A8A"/>
<path d="M240.71 30.2061C240.663 41.0355 240.189 39.898 239.62 45.1824C238.506 44.9454 237.369 44.7559 236.231 44.59C240.023 46.154 239.573 45.8933 240.189 46.1303C240.331 44.2108 242.748 39.0449 240.71 30.2061Z" fill="#18287D"/>
<path d="M230.496 28.5001C230.496 28.5001 232.084 27.8129 234.762 28.5001C237.463 29.1873 238.316 29.6138 238.316 29.6138C238.316 29.6138 238.648 26.6991 236.942 26.6991C235.235 26.6991 234.714 28.0261 233.458 26.6991C232.202 25.3721 230.496 28.5001 230.496 28.5001Z" fill="#E3E4FF"/>
<path d="M248.815 28.192C248.815 28.192 247.63 27.5522 245.639 28.3105C243.672 29.0688 243.056 29.5191 243.056 29.5191C243.056 29.5191 242.724 26.6044 243.98 26.5807C245.236 26.5333 245.687 27.8366 246.563 26.4859C247.44 25.1352 248.815 28.192 248.815 28.192Z" fill="#E3E4FF"/>
<path d="M235.047 31.1302C235.047 32.007 234.478 32.7416 233.767 32.7416C233.056 32.7416 232.487 32.0307 232.487 31.1302C232.487 30.2297 233.056 29.5188 233.767 29.5188C234.478 29.5188 235.047 30.2297 235.047 31.1302Z" fill="#18287D"/>
<path d="M246.633 31.8174C246.633 32.6942 246.065 33.4288 245.354 33.4288C244.643 33.4288 244.074 32.7179 244.074 31.8174C244.074 30.9169 244.643 30.2061 245.354 30.2061C246.041 30.2061 246.633 30.9406 246.633 31.8174Z" fill="#18287D"/>
<path d="M218.268 32.9551C218.268 32.9551 216.159 31.0594 215.709 32.7419C215.259 34.4243 216.349 37.9552 217.818 38.1684C219.311 38.3817 218.268 32.9551 218.268 32.9551Z" fill="#D86666"/>
<path d="M239.383 49.59C237.227 51.7701 233.08 51.5094 229.478 47.5521C229.027 47.0544 229.667 46.3198 230.189 46.7227C231.065 47.0544 233.672 51.1539 239.383 49.59Z" fill="#18287D"/>
<path d="M219.383 140.586L205.923 74.519L191.989 85.3485L204.169 107.955L203.269 115.04L219.383 140.586Z" fill="#DDDCFF"/>
<path d="M275.804 176.463C275.804 176.463 276.658 177.316 279.24 178.927C281.752 180.467 284.264 178.05 284.786 177.576C285.804 176.676 287.155 174.993 287.842 173.903C288.53 172.813 288.861 172.102 289.122 170.965C289.477 169.306 283.245 164.188 282.653 164.591C282.25 164.875 281.966 165.254 282.084 165.681C282.226 166.131 285.662 171.131 285.662 171.131C285.662 171.131 280.757 166.249 279.312 166.415C277.866 166.581 278.056 167.458 278.435 167.861C278.814 168.264 283.435 174.14 283.435 174.14C283.435 174.14 277.582 169.638 276.634 169.733C275.686 169.828 275.046 171.06 277.416 173.05C278.743 174.164 280.899 176.866 280.899 176.866C280.899 176.866 276.492 174.117 275.07 174.259C273.672 174.401 275.804 176.463 275.804 176.463Z" fill="#FC7575"/>
<path d="M452.464 83.595C452.464 83.595 441.065 90.1827 441.065 109.377C441.065 128.595 510.947 204.828 510.947 204.828V173.619C510.923 173.619 474.051 93.9031 452.464 83.595Z" fill="#3A3799"/>
<path d="M442.511 480.231C442.511 480.231 445.591 477.103 451.444 475.16C457.321 473.217 465.354 472.246 465.71 468.288C468.862 433.028 453.743 346.724 453.743 346.724L466.8 277.364L493.696 299.307L476.563 351.534C476.563 351.534 487.582 369.97 485.117 382.696C482.677 395.421 474.383 469.521 474.383 469.521C474.383 469.521 478.625 476.013 476.113 479.094L442.511 480.231Z" fill="#FD5E5A"/>
<path d="M451.445 475.16C452.701 474.757 454.051 474.378 455.402 474.023C459.146 474.733 462.037 475.444 462.037 475.444C465.331 473.264 470.686 471.771 475.141 470.823C476.232 472.885 477.938 476.89 476.137 479.117L442.487 480.231C442.511 480.231 445.592 477.079 451.445 475.16Z" fill="#2B374D"/>
<path d="M456.824 483.549C456.824 483.549 459.905 480.421 465.758 478.478C471.635 476.535 479.668 475.563 480.023 471.606C483.175 436.345 468.056 350.041 468.056 350.041L481.113 280.681L508.009 302.624L490.9 354.875C490.9 354.875 501.919 373.312 499.455 386.037C497.014 398.762 488.72 472.862 488.72 472.862C488.72 472.862 492.962 479.355 490.45 482.435L456.824 483.549Z" fill="#FC7575"/>
<path d="M465.758 478.478C467.014 478.075 468.365 477.696 469.715 477.34C473.46 478.051 476.351 478.762 476.351 478.762C479.644 476.582 485 475.089 489.455 474.141C490.545 476.203 492.251 480.208 490.45 482.435L456.801 483.549C456.824 483.549 459.905 480.421 465.758 478.478Z" fill="#18287D"/>
<path d="M504.241 68.2868C504.241 68.2868 515.734 68.7607 512.251 78.5238C508.767 88.2869 506.587 88.7134 506.587 88.7134C506.587 88.7134 516.421 87.4575 516.421 95.7987C516.421 104.14 511.682 108.713 511.682 108.713C511.682 108.713 503.767 121.77 512.274 125.562C520.758 129.353 525.71 122.268 525.71 122.268C525.71 122.268 527.061 125.704 524.052 128.737C521.066 131.77 515.118 128.737 515.118 128.737C515.118 128.737 520.545 136.462 524.881 135.301L522.914 140.823C522.914 140.823 517.132 141.96 513.435 137.173C512.227 135.609 511.374 132.695 511.374 132.695L515.189 141.557L507.653 139.377C505.805 136.77 508.27 125.799 506.824 120.68C505.379 115.562 507.653 110.609 507.653 108.619C507.653 106.628 490.734 104.543 490.118 95.1826C489.502 85.7987 491.966 63.4053 504.241 68.2868Z" fill="#18287D"/>
<path d="M499.194 90.4195C499.194 90.4195 512.819 97.4574 509.549 126.865C506.279 156.273 506.469 188.453 510.142 197.837C525.9 237.861 511.374 407.411 511.374 407.411C491.184 409.686 430.07 408.975 430.07 408.975C430.07 408.975 446.682 125.704 467.274 105.111C485.236 87.173 499.194 90.4195 499.194 90.4195Z" fill="#25A1D7"/>
<path d="M481.705 94.2351C484.478 82.6237 482.156 62.0549 482.156 62.0549L496.397 57.0549C496.397 57.0549 500.473 91.4626 499.928 91.4626C495.118 99.093 481.042 99.8987 481.705 94.2351Z" fill="#FC7575"/>
<path d="M496.374 57.0549L482.132 62.055C482.132 62.055 482.701 67.2208 482.938 73.8322C486.871 72.8844 490.923 70.5384 493.909 67.837C495.213 66.6521 496.326 65.6095 497.25 64.6379C496.753 60.2066 496.374 57.0549 496.374 57.0549Z" fill="#FD5E5A"/>
<path d="M465.213 33.429C465.213 33.429 476.019 47.1021 480.45 48.7845C484.881 50.467 494.81 53.0973 494.81 53.0973C494.81 53.0973 498.886 73.2159 498.72 77.5998C498.72 77.5998 516.516 74.2822 509.147 43.7134C506.35 32.0546 505.118 24.6612 493.365 19.6375C481.635 14.6138 469.075 22.1968 465.213 33.429Z" fill="#18287D"/>
<path d="M474.027 29.6375C474.027 29.6375 466.373 32.2442 465.639 38.1921C464.904 44.14 466.326 47.1021 465.97 49.9694C465.615 52.8367 465.947 58.1921 469.359 66.4149C472.771 74.6614 484.383 69.9931 491.042 64.0926C498.53 57.4575 499.217 55.4196 499.217 44.7087C499.17 33.974 486.279 25.1115 474.027 29.6375Z" fill="#FC7575"/>
<path d="M473.696 57.5287C473.839 56.6282 472.583 57.6946 470.474 54.7799C471.303 53.4765 471.753 51.8888 471.848 50.467C471.113 53.358 469.597 54.4955 469.407 54.7562C469.478 54.8272 471.09 57.5998 473.199 57.9315C473.436 57.9315 473.649 57.7656 473.696 57.5287Z" fill="#2846A6"/>
<path d="M478.577 50.8225C478.032 51.2491 477.227 51.1543 476.8 50.6093C476.373 50.0406 476.468 49.2586 477.013 48.8083C477.558 48.3818 478.364 48.4766 478.791 49.0216C479.217 49.5903 479.122 50.396 478.577 50.8225Z" fill="#2846A6"/>
<path d="M468.08 50.4671C467.535 50.8936 466.73 50.7988 466.303 50.2538C465.876 49.6851 465.971 48.9031 466.516 48.4529C467.061 48.0263 467.867 48.1211 468.293 48.6661C468.72 49.2348 468.625 50.0405 468.08 50.4671Z" fill="#2846A6"/>
<path d="M474.028 47.7182C475.474 47.5761 476.919 47.7182 478.317 48.1685C479.028 48.4054 479.668 48.7135 480.284 49.0452C480.924 49.377 481.54 49.7088 482.133 50.159C481.398 50.159 480.687 49.9694 480 49.7562C479.313 49.5666 478.649 49.2111 478.033 48.9742C476.753 48.4765 475.403 48.1448 474.028 47.7182Z" fill="#0F1D5B"/>
<path d="M464.502 47.5049C465.568 47.4575 466.635 47.6471 467.701 48.05C468.246 48.2632 468.72 48.5239 469.194 48.8083C469.668 49.0926 470.142 49.377 470.616 49.7324C470.071 49.685 469.526 49.5192 469.004 49.3296C468.483 49.14 467.985 48.8557 467.511 48.6424C466.587 48.2158 465.545 47.8841 464.502 47.5049Z" fill="#0F1D5B"/>
<path d="M474.052 43.8556L474.644 45.4196C474.644 45.4196 478.459 45.1826 480.142 46.7466C480.118 46.7466 477.251 42.9077 474.052 43.8556Z" fill="#0F1D5B"/>
<path d="M465.545 43.3107L465.806 44.7799C465.806 44.7799 469.621 44.543 471.303 46.107C471.28 46.107 468.744 42.3392 465.545 43.3107Z" fill="#0F1D5B"/>
<path d="M470.568 61.6755C470.568 61.6755 474.929 61.2253 478.578 59.8271C478.578 59.8271 475.237 65.23 473.199 64.9693C471.137 64.7324 470.568 61.6755 470.568 61.6755Z" fill="white"/>
<path d="M466.729 24.0925C466.729 24.0925 460.639 25.0878 461.397 30.9883C462.132 36.8888 476.706 44.0452 486.706 42.8604C490.45 42.4101 490.379 44.6376 491.8 46.1068C494.17 48.5476 496.208 51.5334 493.957 56.1543C490.331 63.5477 487.179 59.614 487.179 59.614C487.179 59.614 489.999 64.1164 498.791 61.7704C507.582 59.4007 509.052 46.4149 502.772 38.7845C496.492 31.1305 489.881 27.5049 484.502 25.6091C472.819 21.4622 466.729 24.0925 466.729 24.0925Z" fill="#2846A6"/>
<path d="M495.118 44.4243C494.099 44.4243 489.621 47.4101 490.711 50.6092C491.801 53.8082 492.938 54.0689 495.829 52.6234C498.696 51.2016 497.701 44.4243 495.118 44.4243Z" fill="#FC7575"/>
<path d="M492.061 48.5712C492.061 48.5712 494.289 45.8934 495.355 47.2679C496.398 48.6423 495.995 50.9409 494.455 51.6518C492.891 52.3864 490.569 50.1589 492.061 48.5712Z" fill="#FD5E5A"/>
<path d="M485.355 54.9695C485.355 56.415 483.507 57.5998 481.208 57.5998C478.934 57.5998 477.062 56.415 477.062 54.9695C477.062 53.524 478.91 52.3391 481.208 52.3391C483.507 52.3628 485.355 53.524 485.355 54.9695Z" fill="#FD5E5A"/>
<path d="M469.028 55.7514C469.028 54.5191 467.701 53.4765 465.876 53.2158C465.971 54.5902 466.184 56.2253 466.611 58.1447C468.056 57.7182 469.028 56.794 469.028 55.7514Z" fill="#FD5E5A"/>
<path opacity="0.73" d="M455.876 142.624C452.179 162.884 448.743 189.377 445.639 217.766C446.587 219.875 447.582 221.723 448.648 223.287C460.425 240.515 499.738 233.24 513.767 211.865C512.795 206.249 511.61 201.51 510.165 197.837C508.601 193.856 507.653 185.752 507.369 175.491C495.236 161.32 474.904 148.097 455.876 142.624Z" fill="#2187B3"/>
<path d="M509.051 208.406C509.051 208.406 510.663 207.979 514.383 205.989C517.985 204.046 516.8 199.354 516.587 198.382C516.208 196.557 515.118 193.738 514.288 192.174C513.459 190.61 512.819 189.685 511.634 188.619C509.881 187.031 499.407 190.989 499.501 191.984C499.572 192.648 499.809 193.264 500.426 193.406C501.065 193.548 509.454 192.884 509.454 192.884C509.454 192.884 500.212 195.42 499.383 197.268C498.577 199.117 499.762 199.496 500.52 199.33C501.279 199.164 511.539 197.671 511.539 197.671C511.539 197.671 502.084 201.605 501.539 202.79C501.018 203.998 502.037 205.61 506.065 204.14C508.34 203.335 511.776 202.79 511.776 202.79C511.776 202.79 506.681 205.965 505.9 207.766C505.094 209.567 509.051 208.406 509.051 208.406Z" fill="#FD5E5A"/>
<path d="M512.108 186.747C512.298 186.344 512.487 185.965 512.63 185.586C518.151 172.41 521.587 103.334 499.952 105.941C499.952 105.941 488.577 111.605 493.34 125.538C497.701 138.358 500.568 163.619 500.141 174.022C504.62 177.647 508.506 182.031 512.108 186.747Z" fill="#FF7370"/>
<path d="M499.194 152.173C493.862 145.135 491.019 142.813 484.952 136.415C477.583 128.642 467.18 120.633 465.189 109.495C464.478 105.514 461.801 102.244 458.341 100.301C456.658 99.3532 454.786 98.7134 452.867 98.4053C451.943 98.2631 450.876 98.0736 449.952 98.1921C449.17 98.2869 448.104 99.0689 447.369 98.903C446.564 98.7371 444.834 96.6044 444.36 95.9172C439.265 88.4527 428.317 88.2157 422.938 95.5143C411.492 93.974 403.909 106.818 410.402 116.059C410.047 116.794 409.739 117.529 409.478 118.287C408.554 120.088 408.033 122.126 408.033 124.282C408.033 130.254 412.014 135.278 417.464 136.889C415.379 144.164 419.857 151.628 427.156 153.311C428.744 157.837 430.521 162.15 434.075 166.225C441.374 174.543 447.322 174.188 456.706 179.97C469.739 188.003 488.815 193.429 499.123 186.723C509.407 180.041 508.72 164.78 499.194 152.173Z" fill="#7393EB"/>
<path d="M458.222 105.254C456.847 103.524 455.378 102.884 453.554 102.434C449.43 101.794 447.44 103.761 446.397 103.595C444.857 103.335 441.089 92.5051 431.871 93.5478C428.553 93.9032 426.113 96.107 424.217 98.8321C424.17 98.8321 420.26 98.5715 420.212 98.5715C418.34 98.761 416.942 99.1402 415.425 100.112C412.321 102.15 410.496 106.083 411.065 109.709C411.539 112.766 413.79 114.093 413.506 116.344C412.677 118.69 409.928 121.747 411.444 126.936C412.179 129.519 413.909 131.842 416.373 133.145C417.937 133.998 419.572 134.401 421.35 134.875C421.089 136.297 419.193 138.998 420.686 143.429C421.752 146.652 424.786 149.022 428.032 150.088C435.852 152.695 447.416 147.292 454.17 142.695C449.264 145.183 442.653 147.742 437.226 148.477C435.781 148.69 434.312 148.785 432.89 148.714C427.677 148.477 424.122 145.349 423.364 142.576C422.7 140.254 423.435 138.216 423.34 138.548C423.435 138.287 423.98 136.794 423.956 136.865C424.217 136.083 424.501 135.325 424.691 134.519C425.425 131.012 419.715 132.387 416.563 129.14C414.715 127.245 413.696 123.951 415.378 120.704C416.231 119.069 416.8 118.311 417.108 116.486C417.463 112.955 414.952 111.368 414.572 109.188C414.217 107.079 415.354 104.401 417.321 103.098C419.383 101.723 421.61 102.079 423.956 102.221C425.165 102.244 425.26 102.197 425.212 102.221C425.212 102.221 425.354 102.197 425.425 102.173C425.473 102.15 425.947 102.126 426.468 101.415C427.084 100.491 427.771 99.3298 429.027 98.1923C431.587 95.8937 435.686 95.7752 439.359 99.1165C444.264 103.595 443.862 107.387 448.885 104.97C451.516 103.69 454.217 103.619 456.634 105.372C458.364 106.889 459.217 108.429 460.212 110.799C460.805 112.173 461.326 113.619 461.918 114.993C460.71 110.633 460.497 108.595 458.222 105.254ZM424.596 98.9032C424.62 98.9032 424.62 98.9032 424.596 98.9032V98.9032Z" fill="#C2D5FF"/>
<path d="M436.705 108.429C433.151 107.86 426.255 110.112 425.402 117.363C424.549 124.614 431.184 134.353 440.734 133.334C450.26 132.315 462.535 112.505 436.705 108.429Z" fill="#FF7878"/>
<path d="M430.308 109.804C437.251 108.785 434.478 106.036 433.175 106.202C432.891 106.225 432.654 106.415 432.63 106.533C432.582 106.841 432.274 107.055 431.966 107.007C431.161 106.865 431.492 105.775 432.322 105.396C434.81 104.211 438.862 109.496 430.308 109.804Z" fill="#2846A6"/>
<path d="M428.507 111.107C429.929 114.851 433.981 111.534 431.398 108.761C430.829 108.429 430.758 108.334 429.858 108.311H429.834C429.526 108.311 429.265 108.05 429.289 107.742C429.289 107.197 429.929 107.173 429.881 107.197C433.175 107.316 433.815 111.486 431.706 112.789C430.829 113.287 429.786 113.216 429.099 112.339C428.815 111.96 428.625 111.534 428.507 111.107Z" fill="#2846A6"/>
<path d="M438.957 118.571C438.365 118.524 437.559 118.571 437.109 118.974C436.635 119.306 437.18 120.159 437.512 120.633C435.687 119.282 437.203 117.837 438.957 118.571Z" fill="#2846A6"/>
<path d="M450.094 116.557C450.094 119.116 448.033 121.178 445.473 121.178C442.914 121.178 440.853 119.116 440.853 116.557C440.853 113.998 442.914 111.936 445.473 111.936C448.009 111.936 450.094 113.998 450.094 116.557Z" fill="#FD5E5A"/>
<path d="M441.824 128.595C441.824 131.036 439.573 133.026 436.8 133.026C434.028 133.026 431.776 131.036 431.776 128.595C431.776 126.154 434.028 124.164 436.8 124.164C439.573 124.164 441.824 126.154 441.824 128.595Z" fill="#FD5E5A"/>
<path d="M432.345 123.382C432.321 123.382 432.298 123.382 432.274 123.382C432.203 123.382 432.155 123.335 432.179 123.263C432.179 123.192 432.25 123.145 432.298 123.169C432.321 123.169 433.719 123.216 434.454 122.387C434.833 121.96 434.952 121.391 434.857 120.68C434.857 120.633 434.88 120.562 434.952 120.562C435.023 120.562 435.07 120.586 435.07 120.657C435.189 121.439 435.023 122.079 434.62 122.553C433.885 123.335 432.629 123.382 432.345 123.382Z" fill="#2846A6"/>
<path d="M438.459 116.937C438.412 116.937 438.365 116.913 438.341 116.865C438.317 116.794 438.341 116.723 438.412 116.7C439.218 116.344 439.715 115.846 439.905 115.183C440.26 113.903 439.312 112.505 439.312 112.482C439.265 112.41 439.289 112.339 439.336 112.292C439.384 112.245 439.478 112.268 439.526 112.316C439.573 112.387 440.545 113.832 440.142 115.23C439.929 115.965 439.384 116.51 438.507 116.913C438.483 116.937 438.483 116.937 438.459 116.937Z" fill="#2846A6"/>
<path d="M444.905 124.045C444.905 125.609 444.218 126.889 443.364 126.889C442.511 126.889 441.824 125.609 441.824 124.045C441.824 122.481 442.511 121.202 443.364 121.202C444.218 121.178 444.905 122.458 444.905 124.045Z" fill="#22346D"/>
<path d="M461.896 126.889C471.73 133.951 487.133 146.131 494.526 155.752C497.322 159.33 498.152 161.818 498.294 162.079C498.317 162.126 499.81 166.51 500.142 172.6C500.308 176.083 499.953 184.354 496.777 182.813C495.9 182.387 495.616 181.273 496.232 180.467C496.516 180.088 497.014 177.932 497.038 177.813C497.322 175.23 498.009 171.794 496.54 164.282C495.095 156.368 481.232 143.524 475.213 138.097C470.9 134.211 466.445 130.467 461.896 126.889Z" fill="#A9C4FF"/>
<path d="M515.332 173.287C514.597 173.809 511.114 177.102 510.521 177.434C503.318 181.629 461.872 176.344 461.777 176.273C460.45 174.993 454.384 170.799 450.213 168.264C446.042 165.728 444.929 161.605 443.365 161.51C442.109 161.439 442.109 164.543 444.573 166.273C446.99 167.956 451.019 170.847 448.46 172.624C445.948 174.377 432.298 163.666 432.156 163.548C430.829 162.482 428.175 160.894 428.317 162.576C428.578 163.453 432.772 167.102 435.568 168.974C440.426 172.245 441.919 173.335 441.99 174.164C441.493 174.685 438.317 172.647 431.161 168.335C423.317 163.619 416.042 163.619 432.701 172.102C437.275 174.448 440.663 176.794 440.308 177.174C439.194 178.335 436.303 176.605 433.436 175.278C430.64 173.974 424.313 171.368 425.758 174.235C426.208 174.78 430.142 176.297 433.009 177.387C439.194 179.756 440.924 180.538 441.161 181.463C439.241 183.453 432.796 180.017 429.265 178.974C428.72 178.809 428.388 179.52 428.839 179.851C430.711 181.226 434.739 183.311 440.095 184.709C445.663 186.155 455 187.102 460.616 187.434C461.351 188.05 497.085 196.273 511.682 193.335C513.128 187.648 515.213 179.069 515.332 173.287Z" fill="#FC7575"/>
<path d="M435.591 152.481L471.326 161.865C471.326 161.865 481.824 169.448 486.563 170.965C491.279 172.481 497.061 177.695 495.923 179.282C494.786 180.894 488.862 175.444 487.89 175.609C486.919 175.775 491.374 182.197 492.108 186.415C492.843 190.633 494.288 194.733 491.871 194.401C489.454 194.069 487.701 184.567 487.701 184.567C487.701 184.567 483.98 177.387 483.388 178.24C482.795 179.093 485.876 184.022 485.876 184.022C485.876 184.022 486.61 189.354 486.919 191.226C487.155 192.624 485.876 196.818 484.786 195.278C484.146 194.377 484.454 190.894 483.696 188.927C482.155 184.875 479.644 181.652 479.644 181.652C479.644 181.652 482.321 193.809 480.639 194.093C478.956 194.377 477.203 184.306 477.203 184.306C477.203 184.306 473.08 175.917 471.279 175.183C469.478 174.425 464.525 171.249 460.71 169.922C456.895 168.595 441.065 172.979 434.004 173.074C426.942 173.169 415.497 168.785 414.549 163.24C414.264 161.557 415.307 159.662 416.918 157.884C421.587 152.718 428.838 150.728 435.591 152.481Z" fill="#F96969"/>
<path d="M519.739 48.3341C519.692 48.3341 519.668 48.3341 519.621 48.3104C519.337 48.2393 519.171 47.9549 519.242 47.6943C523.223 31.3198 518.199 20.4193 513.294 14.1634C508.033 7.45717 501.682 4.47137 500.166 4.47137C499.882 4.47137 499.645 4.2344 499.645 3.95004C499.645 3.66568 499.882 3.42871 500.166 3.42871C502.275 3.42871 508.91 6.88844 514.1 13.4998C519.147 19.9454 524.337 31.1302 520.237 47.9312C520.19 48.1682 519.976 48.3341 519.739 48.3341Z" fill="#1B2B80"/>
<path d="M526.019 69.6614C525.877 69.6614 525.758 69.614 525.664 69.5192C525.474 69.3296 525.474 68.9979 525.664 68.7846C538.673 55.7751 533.247 28.8082 533.176 28.5238C533.128 28.2394 533.294 27.9788 533.578 27.9077C533.863 27.8603 534.123 28.0262 534.194 28.3105C534.242 28.5949 539.787 56.1068 526.398 69.4955C526.28 69.614 526.138 69.6614 526.019 69.6614Z" fill="#1B2B80"/>
<path d="M276.587 367.814C276.302 367.814 276.065 367.577 276.065 367.292C276.065 320.894 296.8 303.714 305.663 296.368C306.8 295.42 307.701 294.685 308.293 294.093C308.506 293.88 308.814 293.88 309.028 294.093C309.217 294.283 309.217 294.614 309.028 294.828C308.388 295.467 307.487 296.226 306.326 297.174C297.582 304.425 277.084 321.415 277.084 367.316C277.108 367.577 276.871 367.814 276.587 367.814Z" fill="#3F3E6B"/>
<defs>
<linearGradient id="paint0_linear_1_750" x1="380.094" y1="613.721" x2="272.877" y2="-33.7067" gradientUnits="userSpaceOnUse">
<stop stop-color="white"/>
<stop offset="1"/>
</linearGradient>
<linearGradient id="paint1_linear_1_750" x1="380.094" y1="613.721" x2="272.877" y2="-33.7067" gradientUnits="userSpaceOnUse">
<stop stop-color="#FFDACD"/>
<stop offset="1" stop-color="#FDB39A"/>
</linearGradient>
<linearGradient id="paint2_linear_1_750" x1="599.596" y1="244.938" x2="574.388" y2="92.7169" gradientUnits="userSpaceOnUse">
<stop stop-color="white"/>
<stop offset="1"/>
</linearGradient>
<linearGradient id="paint3_linear_1_750" x1="591.803" y1="248.94" x2="550.968" y2="101.885" gradientUnits="userSpaceOnUse">
<stop stop-color="#FFDACD"/>
<stop offset="1" stop-color="#FDB39A"/>
</linearGradient>
<linearGradient id="paint4_linear_1_750" x1="148.624" y1="213.976" x2="140.181" y2="419.421" gradientUnits="userSpaceOnUse">
<stop stop-color="#F59BC6"/>
<stop offset="1" stop-color="#FFAF90"/>
</linearGradient>
<linearGradient id="paint5_linear_1_750" x1="-0.0541682" y1="352.941" x2="131.437" y2="352.941" gradientUnits="userSpaceOnUse">
<stop stop-color="#C97F5A"/>
<stop offset="1" stop-color="#B54F1C"/>
</linearGradient>
<linearGradient id="paint6_linear_1_750" x1="149.892" y1="394.078" x2="244.884" y2="235.758" gradientUnits="userSpaceOnUse">
<stop stop-color="#FF8F62"/>
<stop offset="0.0862" stop-color="#FE8D67"/>
<stop offset="1" stop-color="#F57B9B"/>
</linearGradient>
<linearGradient id="paint7_linear_1_750" x1="494.829" y1="215.793" x2="486.387" y2="421.22" gradientUnits="userSpaceOnUse">
<stop stop-color="#F59BC6"/>
<stop offset="1" stop-color="#FFAF90"/>
</linearGradient>
<linearGradient id="paint8_linear_1_750" x1="346.056" y1="354.526" x2="477.173" y2="354.526" gradientUnits="userSpaceOnUse">
<stop stop-color="#C97F5A"/>
<stop offset="1" stop-color="#B54F1C"/>
</linearGradient>
<linearGradient id="paint9_linear_1_750" x1="495.723" y1="395.889" x2="591.396" y2="237.978" gradientUnits="userSpaceOnUse">
<stop stop-color="#F57B9B"/>
<stop offset="1" stop-color="#FFBF62"/>
</linearGradient>
</defs>
</svg>
