<svg width="18" height="18" viewBox="0 0 18 18" fill="none" xmlns="http://www.w3.org/2000/svg">
<path d="M17.5137 7.82913C17.5133 7.82872 17.5129 7.82831 17.5125 7.8279L10.1699 0.485596C9.85694 0.172485 9.44083 0 8.99822 0C8.5556 0 8.1395 0.172348 7.82639 0.485458L0.487659 7.82405C0.485187 7.82652 0.482715 7.82913 0.480243 7.8316C-0.162457 8.47801 -0.161358 9.52679 0.483402 10.1716C0.777973 10.4663 1.16703 10.637 1.583 10.6548C1.59989 10.6565 1.61692 10.6573 1.63408 10.6573H1.92673V16.0608C1.92673 17.13 2.79671 18 3.86623 18H6.73888C7.03002 18 7.26622 17.7639 7.26622 17.4727V13.2363C7.26622 12.7484 7.6631 12.3515 8.15103 12.3515H9.8454C10.3333 12.3515 10.7302 12.7484 10.7302 13.2363V17.4727C10.7302 17.7639 10.9663 18 11.2576 18H14.1302C15.1997 18 16.0697 17.13 16.0697 16.0608V10.6573H16.3411C16.7835 10.6573 17.1996 10.4849 17.5129 10.1718C18.1583 9.52597 18.1586 8.4754 17.5137 7.82913Z" fill="#70708C"/>
</svg>
