<svg width="40" height="40" viewBox="0 0 40 40" fill="none" xmlns="http://www.w3.org/2000/svg">
<rect width="40" height="40" rx="10" fill="#605BFF" fill-opacity="0.2"/>
<path d="M16.6211 14.0469C16.6211 13.7422 16.8711 13.4922 17.1758 13.4922H22.8242C23.1289 13.4922 23.3789 13.7422 23.3789 14.0469V16.1719H24.8945V14.0469C24.8945 12.9063 23.9649 11.9766 22.8242 11.9766H17.1758C16.0352 11.9766 15.1055 12.9063 15.1055 14.0469V16.1719H16.6211V14.0469Z" fill="#605BFF"/>
<path d="M12.8828 21.0703C12.8477 21.0703 12.8086 21.0703 12.7734 21.0664V27.0469C12.7734 27.5859 13.2852 28.0234 13.9141 28.0234H26.0898C26.7188 28.0234 27.2305 27.5859 27.2305 27.0469V21.0625C27.1953 21.0664 27.1602 21.0664 27.1211 21.0664H12.8828V21.0703ZM22.3945 25.5977H21.0547V26.9375H18.9453V25.5977H17.6055V23.4883H18.9453V22.1484H21.0547V23.4883H22.3945V25.5977Z" fill="#605BFF"/>
<path d="M25.8125 17.875H27.9883V17.5898C27.9883 17.1094 27.5977 16.7227 27.1211 16.7227H12.8828C12.4023 16.7227 12.0156 17.1133 12.0156 17.5898V19.6523C12.0156 20.1328 12.4063 20.5234 12.8828 20.5234H27.1211C27.6016 20.5234 27.9883 20.1328 27.9883 19.6523V18.4219H25.8125C25.6602 18.4219 25.5391 18.3008 25.5391 18.1484C25.5391 17.9961 25.6602 17.875 25.8125 17.875ZM25.1523 18.3398C25.1016 18.3906 25.0312 18.418 24.9609 18.418C24.8867 18.418 24.8203 18.3867 24.7656 18.3398C24.7148 18.2891 24.6875 18.2187 24.6875 18.1445C24.6875 18.0703 24.7188 18.0039 24.7656 17.9492C24.8164 17.8984 24.8867 17.8711 24.9609 17.8711C25.0352 17.8711 25.1016 17.8984 25.1523 17.9492C25.2031 18 25.2344 18.0703 25.2344 18.1445C25.2344 18.2187 25.2031 18.2891 25.1523 18.3398Z" fill="#605BFF"/>
</svg>
