<svg width="135" height="32" viewBox="0 0 135 32" fill="none" xmlns="http://www.w3.org/2000/svg">
<path d="M60.1923 23L57.5378 5.3033H52.6838L48.4872 14.9354L44.3158 5.3033H39.4366L36.7568 23H41.7119L43.0771 12.837L47.754 23.0506H49.1951L53.8973 12.8118L55.2625 23H60.1923ZM76.2605 16.0477C76.2605 12.0533 73.2268 8.91849 68.8279 8.91849C64.5302 8.91849 61.4206 12.0028 61.4206 16.1741C61.4206 20.3455 64.5554 23.4551 68.8279 23.4551C72.2409 23.4551 75.0218 21.5084 75.9824 18.3989H71.2802C70.8504 19.2079 69.915 19.6882 68.8279 19.6882C67.3363 19.6882 66.3504 18.8792 66.047 17.3118H76.1847C76.2353 16.882 76.2605 16.4775 76.2605 16.0477ZM68.8279 12.6095C70.2437 12.6095 71.2296 13.3427 71.6341 14.7078H66.1229C66.5021 13.3427 67.4627 12.6095 68.8279 12.6095ZM88.1584 4.41847V9.85388C87.1977 9.24714 86.0348 8.91849 84.7707 8.91849C80.5994 8.91849 77.6162 11.9522 77.6162 16.1741C77.6162 20.4213 80.5994 23.4803 84.7707 23.4803C86.3635 23.4803 87.7792 22.9242 88.8916 21.9888L89.3466 23H92.8101V4.41847H88.1584ZM85.4028 19.309C83.6584 19.309 82.3438 17.9691 82.3438 16.1994C82.3438 14.4045 83.6584 13.0646 85.4028 13.0646C87.1724 13.0646 88.4618 14.4045 88.4618 16.1994C88.4618 17.9691 87.1724 19.309 85.4028 19.309ZM95.7812 7.65444H100.433V3.66004H95.7812V7.65444ZM95.7559 23H100.458V9.34826H95.7559V23ZM110.159 23.4551C114.002 23.4551 116.935 20.9522 117.466 17.2612H112.839C112.46 18.4747 111.423 19.2584 110.159 19.2584C108.516 19.2584 107.328 17.9691 107.328 16.1741C107.328 14.4045 108.516 13.1404 110.159 13.1404C111.398 13.1404 112.435 13.8736 112.814 14.9859H117.415C116.884 11.3455 114.027 8.94377 110.185 8.94377C105.76 8.94377 102.626 11.9522 102.626 16.1741C102.626 20.3961 105.786 23.4551 110.159 23.4551ZM126.333 23.4551C130.782 23.4551 133.993 20.3961 133.993 16.1741C133.993 11.9522 130.782 8.91849 126.333 8.91849C121.883 8.91849 118.698 11.9522 118.698 16.1741C118.698 20.3961 121.883 23.4551 126.333 23.4551ZM126.333 19.2331C124.639 19.2331 123.4 17.9944 123.4 16.1994C123.4 14.3792 124.639 13.1404 126.333 13.1404C128.052 13.1404 129.291 14.4045 129.291 16.1994C129.291 17.9944 128.052 19.2331 126.333 19.2331Z" fill="#605BFF"/>
<g clip-path="url(#clip0_1_12810)">
<path d="M16.1901 2.31964L21.5998 5.39188L27.0191 8.47345C27.3038 8.6322 27.4651 8.93102 27.4651 9.22984V14.8981H25.6904V9.7341L20.7172 6.90465L15.744 4.0752L10.7708 6.90465L5.78817 9.7341V14.6553H4.00391V9.23918C4.00391 8.89367 4.20321 8.59485 4.50692 8.45478L9.86921 5.41055L15.2885 2.32898C15.5827 2.15155 15.9243 2.16089 16.1901 2.31964ZM27.4651 16.663V21.5468C27.4651 21.8923 27.2658 22.1911 26.9621 22.3312L21.5998 25.3754L16.1806 28.457C15.8959 28.6158 15.5542 28.6064 15.279 28.4477L9.86921 25.3754L4.44997 22.2939C4.16525 22.1351 4.00391 21.8363 4.00391 21.5375V16.4108H5.78817V21.0426L10.7613 23.872L15.7345 26.7014L20.7077 23.872L25.6809 21.0426V16.663H27.4651V16.663Z" fill="#4A45FC"/>
<path d="M13.7984 23.3025C14.0451 23.3025 14.2539 23.1157 14.2729 22.8729L15.4118 11.8259L16.1616 17.1393C16.1711 17.2607 16.2375 17.3728 16.3324 17.4475C16.4083 17.5128 16.5222 17.5502 16.6266 17.5502C16.7595 17.5502 16.8829 17.4942 16.9683 17.4008L18.1546 16.1962H20.2901C20.4894 16.1962 20.6602 16.0748 20.7361 15.8973L21.5903 13.7216L22.4824 15.944C22.4919 15.972 22.5109 16.0001 22.5204 16.0281C22.6058 16.1588 22.7577 16.2429 22.919 16.2429H30.0846C30.3408 16.2429 30.5591 16.0374 30.5591 15.7759C30.5591 15.5238 30.3503 15.309 30.0846 15.309H23.2322L22.0174 12.2928C21.9794 12.1808 21.894 12.0874 21.7801 12.0314C21.6567 11.9753 21.5144 11.966 21.4005 12.022C21.2771 12.0687 21.1822 12.1714 21.1347 12.2928L19.9769 15.2717H17.9648C17.8414 15.2717 17.7181 15.3184 17.6326 15.4118L16.9683 16.0841L15.8104 7.8759C15.8104 7.86657 15.8104 7.85723 15.8104 7.84789C15.7725 7.63311 15.5731 7.47437 15.3454 7.47437C15.3169 7.47437 15.2884 7.47437 15.2599 7.4837C15.0512 7.52106 14.8898 7.69848 14.8803 7.90392L13.637 19.866L12.2609 13.5908C12.2419 13.4694 12.1565 13.3667 12.0521 13.292C11.9477 13.2266 11.8148 13.208 11.6914 13.236C11.5016 13.2827 11.3687 13.4227 11.3403 13.6002L10.2963 18.0638L8.53098 15.281L8.52149 15.2717C8.43607 15.141 8.28422 15.0663 8.12288 15.0663H1.37493C1.11868 15.0663 0.900391 15.2717 0.900391 15.5238C0.900391 15.7759 1.10919 15.9907 1.37493 15.9907H7.86663L10.097 19.4925C10.1349 19.5579 10.1919 19.6326 10.2963 19.6793C10.3342 19.698 10.3722 19.7073 10.4102 19.7166C10.6664 19.7633 10.9132 19.6046 10.9606 19.3618L11.7768 15.832L13.3333 22.9289C13.3333 22.9383 13.3333 22.9383 13.3333 22.9476C13.3903 23.1531 13.5801 23.3025 13.7984 23.3025Z" fill="#FE6534"/>
</g>
<defs>
<clipPath id="clip0_1_12810">
<rect width="29.6777" height="26.3802" fill="white" transform="translate(0.900391 2.19824)"/>
</clipPath>
</defs>
</svg>
