<svg width="18" height="18" viewBox="0 0 18 18" fill="none" xmlns="http://www.w3.org/2000/svg">
<g clip-path="url(#clip0_1_307)">
<path d="M5.79727 0.0114746L5.34091 0.274971C4.63754 0.68106 4.13441 1.33672 3.92425 2.1212C3.71405 2.90571 3.82191 3.7251 4.228 4.42844L6.32809 8.06591L8.38779 4.4984L5.79727 0.0114746Z" fill="#70708C"/>
<path d="M17.4899 12.3608C16.9886 11.4924 16.1778 10.8709 15.207 10.6108C14.2361 10.3506 13.2232 10.4835 12.3548 10.9848C12.2995 11.0168 12.2449 11.0502 12.1912 11.0849L11.6652 10.1738L9.60547 13.7413L10.9082 15.9977V16.0161L10.9876 16.1352C11.4896 16.9957 12.2966 17.6115 13.2617 17.8701C13.5865 17.9571 13.9158 18.0001 14.243 18.0001C14.894 18.0001 15.536 17.8297 16.1139 17.496C16.9823 16.9946 17.6038 16.1839 17.864 15.213C18.1242 14.2421 17.9913 13.2292 17.4899 12.3608ZM15.7846 14.6558C15.6737 15.0699 15.4081 15.416 15.0369 15.6304C14.7896 15.7731 14.5151 15.8461 14.237 15.8461C14.0976 15.8461 13.9572 15.8278 13.819 15.7907C13.4049 15.6798 13.0588 15.4141 12.8444 15.0429C12.6301 14.6717 12.5731 14.2392 12.6841 13.8251C12.7951 13.4109 13.0607 13.0649 13.4319 12.8505C13.8032 12.6362 14.2356 12.5792 14.6498 12.6902C15.0639 12.8012 15.41 13.0667 15.6243 13.438C15.8387 13.8092 15.8956 14.2417 15.7846 14.6558Z" fill="#70708C"/>
<path d="M14.075 2.10973C13.8649 1.32521 13.3617 0.669551 12.6584 0.263496L12.2019 0L5.80873 11.0734C5.75508 11.0387 5.70052 11.0053 5.64515 10.9733C5.06721 10.6397 4.4253 10.4692 3.77434 10.4692C3.44718 10.4692 3.11777 10.5122 2.79303 10.5992C1.82219 10.8593 1.01138 11.4809 0.510051 12.3493C0.00861736 13.2177 -0.124238 14.2306 0.135918 15.2015C0.396039 16.1723 1.01757 16.9831 1.88596 17.4845C2.46393 17.8182 3.10574 17.9886 3.75677 17.9886C3.7568 17.9886 3.75684 17.9886 3.75687 17.9886C4.084 17.9886 4.41345 17.9455 4.73815 17.8586C5.7033 17.6 6.51027 16.9841 7.0123 16.1237L7.09179 16.0044V15.9861L13.7712 4.41696C14.1774 3.71359 14.2852 2.8942 14.075 2.10973ZM5.15549 15.0314C4.94114 15.4027 4.59507 15.6682 4.18096 15.7792C4.04269 15.8162 3.90231 15.8345 3.76295 15.8345C3.48483 15.8345 3.21037 15.7616 2.96308 15.6188C2.59183 15.4045 2.32622 15.0584 2.2153 14.6443C2.10435 14.2302 2.1613 13.7977 2.37565 13.4264C2.59 13.0552 2.93608 12.7896 3.35015 12.6786C3.76425 12.5677 4.19675 12.6246 4.56803 12.839C4.93932 13.0533 5.20492 13.3995 5.31584 13.8135C5.42679 14.2276 5.3698 14.6601 5.15549 15.0314Z" fill="#70708C"/>
</g>
<defs>
<clipPath id="clip0_1_307">
<rect width="18" height="18" fill="white"/>
</clipPath>
</defs>
</svg>
